%TF.GenerationSoftware,KiCad,Pcbnew,(5.1.9)-1*%
%TF.CreationDate,2021-11-14T21:39:45-06:00*%
%TF.ProjectId,BLDC_Cont,424c4443-5f43-46f6-9e74-2e6b69636164,rev?*%
%TF.SameCoordinates,Original*%
%TF.FileFunction,Copper,L1,Top*%
%TF.FilePolarity,Positive*%
%FSLAX46Y46*%
G04 Gerber Fmt 4.6, Leading zero omitted, Abs format (unit mm)*
G04 Created by KiCad (PCBNEW (5.1.9)-1) date 2021-11-14 21:39:45*
%MOMM*%
%LPD*%
G01*
G04 APERTURE LIST*
%TA.AperFunction,SMDPad,CuDef*%
%ADD10R,1.000000X0.950000*%
%TD*%
%TA.AperFunction,SMDPad,CuDef*%
%ADD11R,4.900000X3.200000*%
%TD*%
%TA.AperFunction,ComponentPad*%
%ADD12C,4.000000*%
%TD*%
%TA.AperFunction,ComponentPad*%
%ADD13R,4.000000X4.000000*%
%TD*%
%TA.AperFunction,ComponentPad*%
%ADD14R,1.600000X1.600000*%
%TD*%
%TA.AperFunction,ComponentPad*%
%ADD15C,1.600000*%
%TD*%
%TA.AperFunction,SMDPad,CuDef*%
%ADD16R,1.200000X0.900000*%
%TD*%
%TA.AperFunction,SMDPad,CuDef*%
%ADD17R,1.500000X1.000000*%
%TD*%
%TA.AperFunction,ComponentPad*%
%ADD18R,1.700000X1.700000*%
%TD*%
%TA.AperFunction,ComponentPad*%
%ADD19O,1.700000X1.700000*%
%TD*%
%TA.AperFunction,ViaPad*%
%ADD20C,0.800000*%
%TD*%
%TA.AperFunction,Conductor*%
%ADD21C,1.000000*%
%TD*%
%TA.AperFunction,Conductor*%
%ADD22C,0.500000*%
%TD*%
%TA.AperFunction,Conductor*%
%ADD23C,0.254000*%
%TD*%
%TA.AperFunction,Conductor*%
%ADD24C,0.100000*%
%TD*%
G04 APERTURE END LIST*
D10*
%TO.P,D3,1*%
%TO.N,Net-(D3-Pad1)*%
X163855000Y-108920000D03*
D11*
%TO.P,D3,3*%
%TO.N,/VDD*%
X168205000Y-107950000D03*
D10*
%TO.P,D3,2*%
%TO.N,Net-(D3-Pad1)*%
X163855000Y-106980000D03*
%TD*%
D12*
%TO.P,C7,2*%
%TO.N,GNDPWR*%
X187960000Y-120490000D03*
D13*
%TO.P,C7,1*%
%TO.N,+VDC*%
X187960000Y-110490000D03*
%TD*%
%TO.P,C1,1*%
%TO.N,+5VD*%
%TA.AperFunction,SMDPad,CuDef*%
G36*
G01*
X163814997Y-116520000D02*
X165115003Y-116520000D01*
G75*
G02*
X165365000Y-116769997I0J-249997D01*
G01*
X165365000Y-117595003D01*
G75*
G02*
X165115003Y-117845000I-249997J0D01*
G01*
X163814997Y-117845000D01*
G75*
G02*
X163565000Y-117595003I0J249997D01*
G01*
X163565000Y-116769997D01*
G75*
G02*
X163814997Y-116520000I249997J0D01*
G01*
G37*
%TD.AperFunction*%
%TO.P,C1,2*%
%TO.N,GNDD*%
%TA.AperFunction,SMDPad,CuDef*%
G36*
G01*
X163814997Y-119645000D02*
X165115003Y-119645000D01*
G75*
G02*
X165365000Y-119894997I0J-249997D01*
G01*
X165365000Y-120720003D01*
G75*
G02*
X165115003Y-120970000I-249997J0D01*
G01*
X163814997Y-120970000D01*
G75*
G02*
X163565000Y-120720003I0J249997D01*
G01*
X163565000Y-119894997D01*
G75*
G02*
X163814997Y-119645000I249997J0D01*
G01*
G37*
%TD.AperFunction*%
%TD*%
%TO.P,C2,2*%
%TO.N,GNDPWR*%
%TA.AperFunction,SMDPad,CuDef*%
G36*
G01*
X175244997Y-119302500D02*
X176545003Y-119302500D01*
G75*
G02*
X176795000Y-119552497I0J-249997D01*
G01*
X176795000Y-120377503D01*
G75*
G02*
X176545003Y-120627500I-249997J0D01*
G01*
X175244997Y-120627500D01*
G75*
G02*
X174995000Y-120377503I0J249997D01*
G01*
X174995000Y-119552497D01*
G75*
G02*
X175244997Y-119302500I249997J0D01*
G01*
G37*
%TD.AperFunction*%
%TO.P,C2,1*%
%TO.N,+12V*%
%TA.AperFunction,SMDPad,CuDef*%
G36*
G01*
X175244997Y-116177500D02*
X176545003Y-116177500D01*
G75*
G02*
X176795000Y-116427497I0J-249997D01*
G01*
X176795000Y-117252503D01*
G75*
G02*
X176545003Y-117502500I-249997J0D01*
G01*
X175244997Y-117502500D01*
G75*
G02*
X174995000Y-117252503I0J249997D01*
G01*
X174995000Y-116427497D01*
G75*
G02*
X175244997Y-116177500I249997J0D01*
G01*
G37*
%TD.AperFunction*%
%TD*%
%TO.P,C3,1*%
%TO.N,+12V*%
%TA.AperFunction,SMDPad,CuDef*%
G36*
G01*
X177784997Y-116177500D02*
X179085003Y-116177500D01*
G75*
G02*
X179335000Y-116427497I0J-249997D01*
G01*
X179335000Y-117252503D01*
G75*
G02*
X179085003Y-117502500I-249997J0D01*
G01*
X177784997Y-117502500D01*
G75*
G02*
X177535000Y-117252503I0J249997D01*
G01*
X177535000Y-116427497D01*
G75*
G02*
X177784997Y-116177500I249997J0D01*
G01*
G37*
%TD.AperFunction*%
%TO.P,C3,2*%
%TO.N,GNDPWR*%
%TA.AperFunction,SMDPad,CuDef*%
G36*
G01*
X177784997Y-119302500D02*
X179085003Y-119302500D01*
G75*
G02*
X179335000Y-119552497I0J-249997D01*
G01*
X179335000Y-120377503D01*
G75*
G02*
X179085003Y-120627500I-249997J0D01*
G01*
X177784997Y-120627500D01*
G75*
G02*
X177535000Y-120377503I0J249997D01*
G01*
X177535000Y-119552497D01*
G75*
G02*
X177784997Y-119302500I249997J0D01*
G01*
G37*
%TD.AperFunction*%
%TD*%
%TO.P,C4,2*%
%TO.N,/PHASE*%
%TA.AperFunction,SMDPad,CuDef*%
G36*
G01*
X175244997Y-113930000D02*
X176545003Y-113930000D01*
G75*
G02*
X176795000Y-114179997I0J-249997D01*
G01*
X176795000Y-115005003D01*
G75*
G02*
X176545003Y-115255000I-249997J0D01*
G01*
X175244997Y-115255000D01*
G75*
G02*
X174995000Y-115005003I0J249997D01*
G01*
X174995000Y-114179997D01*
G75*
G02*
X175244997Y-113930000I249997J0D01*
G01*
G37*
%TD.AperFunction*%
%TO.P,C4,1*%
%TO.N,/VDD*%
%TA.AperFunction,SMDPad,CuDef*%
G36*
G01*
X175244997Y-110805000D02*
X176545003Y-110805000D01*
G75*
G02*
X176795000Y-111054997I0J-249997D01*
G01*
X176795000Y-111880003D01*
G75*
G02*
X176545003Y-112130000I-249997J0D01*
G01*
X175244997Y-112130000D01*
G75*
G02*
X174995000Y-111880003I0J249997D01*
G01*
X174995000Y-111054997D01*
G75*
G02*
X175244997Y-110805000I249997J0D01*
G01*
G37*
%TD.AperFunction*%
%TD*%
%TO.P,C5,1*%
%TO.N,/VDD*%
%TA.AperFunction,SMDPad,CuDef*%
G36*
G01*
X177784997Y-110805000D02*
X179085003Y-110805000D01*
G75*
G02*
X179335000Y-111054997I0J-249997D01*
G01*
X179335000Y-111880003D01*
G75*
G02*
X179085003Y-112130000I-249997J0D01*
G01*
X177784997Y-112130000D01*
G75*
G02*
X177535000Y-111880003I0J249997D01*
G01*
X177535000Y-111054997D01*
G75*
G02*
X177784997Y-110805000I249997J0D01*
G01*
G37*
%TD.AperFunction*%
%TO.P,C5,2*%
%TO.N,/PHASE*%
%TA.AperFunction,SMDPad,CuDef*%
G36*
G01*
X177784997Y-113930000D02*
X179085003Y-113930000D01*
G75*
G02*
X179335000Y-114179997I0J-249997D01*
G01*
X179335000Y-115005003D01*
G75*
G02*
X179085003Y-115255000I-249997J0D01*
G01*
X177784997Y-115255000D01*
G75*
G02*
X177535000Y-115005003I0J249997D01*
G01*
X177535000Y-114179997D01*
G75*
G02*
X177784997Y-113930000I249997J0D01*
G01*
G37*
%TD.AperFunction*%
%TD*%
D14*
%TO.P,C6,1*%
%TO.N,/VDD*%
X173990000Y-106045000D03*
D15*
%TO.P,C6,2*%
%TO.N,/PHASE*%
X176490000Y-106045000D03*
%TD*%
D16*
%TO.P,D4,1*%
%TO.N,/VDD*%
X180975000Y-111380000D03*
%TO.P,D4,2*%
%TO.N,/PHASE*%
X180975000Y-114680000D03*
%TD*%
%TO.P,R3,2*%
%TO.N,+12V*%
%TA.AperFunction,SMDPad,CuDef*%
G36*
G01*
X160664999Y-108850000D02*
X161915001Y-108850000D01*
G75*
G02*
X162165000Y-109099999I0J-249999D01*
G01*
X162165000Y-109900001D01*
G75*
G02*
X161915001Y-110150000I-249999J0D01*
G01*
X160664999Y-110150000D01*
G75*
G02*
X160415000Y-109900001I0J249999D01*
G01*
X160415000Y-109099999D01*
G75*
G02*
X160664999Y-108850000I249999J0D01*
G01*
G37*
%TD.AperFunction*%
%TO.P,R3,1*%
%TO.N,Net-(D3-Pad1)*%
%TA.AperFunction,SMDPad,CuDef*%
G36*
G01*
X160664999Y-105750000D02*
X161915001Y-105750000D01*
G75*
G02*
X162165000Y-105999999I0J-249999D01*
G01*
X162165000Y-106800001D01*
G75*
G02*
X161915001Y-107050000I-249999J0D01*
G01*
X160664999Y-107050000D01*
G75*
G02*
X160415000Y-106800001I0J249999D01*
G01*
X160415000Y-105999999D01*
G75*
G02*
X160664999Y-105750000I249999J0D01*
G01*
G37*
%TD.AperFunction*%
%TD*%
%TO.P,R4,1*%
%TO.N,/VDD*%
%TA.AperFunction,SMDPad,CuDef*%
G36*
G01*
X182889999Y-110830000D02*
X184140001Y-110830000D01*
G75*
G02*
X184390000Y-111079999I0J-249999D01*
G01*
X184390000Y-111880001D01*
G75*
G02*
X184140001Y-112130000I-249999J0D01*
G01*
X182889999Y-112130000D01*
G75*
G02*
X182640000Y-111880001I0J249999D01*
G01*
X182640000Y-111079999D01*
G75*
G02*
X182889999Y-110830000I249999J0D01*
G01*
G37*
%TD.AperFunction*%
%TO.P,R4,2*%
%TO.N,/PHASE*%
%TA.AperFunction,SMDPad,CuDef*%
G36*
G01*
X182889999Y-113930000D02*
X184140001Y-113930000D01*
G75*
G02*
X184390000Y-114179999I0J-249999D01*
G01*
X184390000Y-114980001D01*
G75*
G02*
X184140001Y-115230000I-249999J0D01*
G01*
X182889999Y-115230000D01*
G75*
G02*
X182640000Y-114980001I0J249999D01*
G01*
X182640000Y-114179999D01*
G75*
G02*
X182889999Y-113930000I249999J0D01*
G01*
G37*
%TD.AperFunction*%
%TD*%
%TO.P,R5,1*%
%TO.N,/PHASE*%
%TA.AperFunction,SMDPad,CuDef*%
G36*
G01*
X180349999Y-116265000D02*
X181600001Y-116265000D01*
G75*
G02*
X181850000Y-116514999I0J-249999D01*
G01*
X181850000Y-117315001D01*
G75*
G02*
X181600001Y-117565000I-249999J0D01*
G01*
X180349999Y-117565000D01*
G75*
G02*
X180100000Y-117315001I0J249999D01*
G01*
X180100000Y-116514999D01*
G75*
G02*
X180349999Y-116265000I249999J0D01*
G01*
G37*
%TD.AperFunction*%
%TO.P,R5,2*%
%TO.N,GNDPWR*%
%TA.AperFunction,SMDPad,CuDef*%
G36*
G01*
X180349999Y-119365000D02*
X181600001Y-119365000D01*
G75*
G02*
X181850000Y-119614999I0J-249999D01*
G01*
X181850000Y-120415001D01*
G75*
G02*
X181600001Y-120665000I-249999J0D01*
G01*
X180349999Y-120665000D01*
G75*
G02*
X180100000Y-120415001I0J249999D01*
G01*
X180100000Y-119614999D01*
G75*
G02*
X180349999Y-119365000I249999J0D01*
G01*
G37*
%TD.AperFunction*%
%TD*%
%TO.P,U1,1*%
%TO.N,Net-(U1-Pad1)*%
%TA.AperFunction,SMDPad,CuDef*%
G36*
G01*
X166730000Y-113180000D02*
X166730000Y-112880000D01*
G75*
G02*
X166880000Y-112730000I150000J0D01*
G01*
X168530000Y-112730000D01*
G75*
G02*
X168680000Y-112880000I0J-150000D01*
G01*
X168680000Y-113180000D01*
G75*
G02*
X168530000Y-113330000I-150000J0D01*
G01*
X166880000Y-113330000D01*
G75*
G02*
X166730000Y-113180000I0J150000D01*
G01*
G37*
%TD.AperFunction*%
%TO.P,U1,2*%
%TO.N,/A_Safe*%
%TA.AperFunction,SMDPad,CuDef*%
G36*
G01*
X166730000Y-114450000D02*
X166730000Y-114150000D01*
G75*
G02*
X166880000Y-114000000I150000J0D01*
G01*
X168530000Y-114000000D01*
G75*
G02*
X168680000Y-114150000I0J-150000D01*
G01*
X168680000Y-114450000D01*
G75*
G02*
X168530000Y-114600000I-150000J0D01*
G01*
X166880000Y-114600000D01*
G75*
G02*
X166730000Y-114450000I0J150000D01*
G01*
G37*
%TD.AperFunction*%
%TO.P,U1,3*%
%TO.N,/B_Safe*%
%TA.AperFunction,SMDPad,CuDef*%
G36*
G01*
X166730000Y-115720000D02*
X166730000Y-115420000D01*
G75*
G02*
X166880000Y-115270000I150000J0D01*
G01*
X168530000Y-115270000D01*
G75*
G02*
X168680000Y-115420000I0J-150000D01*
G01*
X168680000Y-115720000D01*
G75*
G02*
X168530000Y-115870000I-150000J0D01*
G01*
X166880000Y-115870000D01*
G75*
G02*
X166730000Y-115720000I0J150000D01*
G01*
G37*
%TD.AperFunction*%
%TO.P,U1,4*%
%TO.N,+5VD*%
%TA.AperFunction,SMDPad,CuDef*%
G36*
G01*
X166730000Y-116990000D02*
X166730000Y-116690000D01*
G75*
G02*
X166880000Y-116540000I150000J0D01*
G01*
X168530000Y-116540000D01*
G75*
G02*
X168680000Y-116690000I0J-150000D01*
G01*
X168680000Y-116990000D01*
G75*
G02*
X168530000Y-117140000I-150000J0D01*
G01*
X166880000Y-117140000D01*
G75*
G02*
X166730000Y-116990000I0J150000D01*
G01*
G37*
%TD.AperFunction*%
%TO.P,U1,5*%
%TO.N,GNDD*%
%TA.AperFunction,SMDPad,CuDef*%
G36*
G01*
X166730000Y-118260000D02*
X166730000Y-117960000D01*
G75*
G02*
X166880000Y-117810000I150000J0D01*
G01*
X168530000Y-117810000D01*
G75*
G02*
X168680000Y-117960000I0J-150000D01*
G01*
X168680000Y-118260000D01*
G75*
G02*
X168530000Y-118410000I-150000J0D01*
G01*
X166880000Y-118410000D01*
G75*
G02*
X166730000Y-118260000I0J150000D01*
G01*
G37*
%TD.AperFunction*%
%TO.P,U1,6*%
%TO.N,Net-(U1-Pad6)*%
%TA.AperFunction,SMDPad,CuDef*%
G36*
G01*
X166730000Y-119530000D02*
X166730000Y-119230000D01*
G75*
G02*
X166880000Y-119080000I150000J0D01*
G01*
X168530000Y-119080000D01*
G75*
G02*
X168680000Y-119230000I0J-150000D01*
G01*
X168680000Y-119530000D01*
G75*
G02*
X168530000Y-119680000I-150000J0D01*
G01*
X166880000Y-119680000D01*
G75*
G02*
X166730000Y-119530000I0J150000D01*
G01*
G37*
%TD.AperFunction*%
%TO.P,U1,7*%
%TO.N,+5VD*%
%TA.AperFunction,SMDPad,CuDef*%
G36*
G01*
X166730000Y-120800000D02*
X166730000Y-120500000D01*
G75*
G02*
X166880000Y-120350000I150000J0D01*
G01*
X168530000Y-120350000D01*
G75*
G02*
X168680000Y-120500000I0J-150000D01*
G01*
X168680000Y-120800000D01*
G75*
G02*
X168530000Y-120950000I-150000J0D01*
G01*
X166880000Y-120950000D01*
G75*
G02*
X166730000Y-120800000I0J150000D01*
G01*
G37*
%TD.AperFunction*%
%TO.P,U1,8*%
%TO.N,Net-(U1-Pad8)*%
%TA.AperFunction,SMDPad,CuDef*%
G36*
G01*
X166730000Y-122070000D02*
X166730000Y-121770000D01*
G75*
G02*
X166880000Y-121620000I150000J0D01*
G01*
X168530000Y-121620000D01*
G75*
G02*
X168680000Y-121770000I0J-150000D01*
G01*
X168680000Y-122070000D01*
G75*
G02*
X168530000Y-122220000I-150000J0D01*
G01*
X166880000Y-122220000D01*
G75*
G02*
X166730000Y-122070000I0J150000D01*
G01*
G37*
%TD.AperFunction*%
%TO.P,U1,9*%
%TO.N,GNDPWR*%
%TA.AperFunction,SMDPad,CuDef*%
G36*
G01*
X171680000Y-122070000D02*
X171680000Y-121770000D01*
G75*
G02*
X171830000Y-121620000I150000J0D01*
G01*
X173480000Y-121620000D01*
G75*
G02*
X173630000Y-121770000I0J-150000D01*
G01*
X173630000Y-122070000D01*
G75*
G02*
X173480000Y-122220000I-150000J0D01*
G01*
X171830000Y-122220000D01*
G75*
G02*
X171680000Y-122070000I0J150000D01*
G01*
G37*
%TD.AperFunction*%
%TO.P,U1,10*%
%TO.N,/V_OL*%
%TA.AperFunction,SMDPad,CuDef*%
G36*
G01*
X171680000Y-120800000D02*
X171680000Y-120500000D01*
G75*
G02*
X171830000Y-120350000I150000J0D01*
G01*
X173480000Y-120350000D01*
G75*
G02*
X173630000Y-120500000I0J-150000D01*
G01*
X173630000Y-120800000D01*
G75*
G02*
X173480000Y-120950000I-150000J0D01*
G01*
X171830000Y-120950000D01*
G75*
G02*
X171680000Y-120800000I0J150000D01*
G01*
G37*
%TD.AperFunction*%
%TO.P,U1,11*%
%TO.N,+12V*%
%TA.AperFunction,SMDPad,CuDef*%
G36*
G01*
X171680000Y-119530000D02*
X171680000Y-119230000D01*
G75*
G02*
X171830000Y-119080000I150000J0D01*
G01*
X173480000Y-119080000D01*
G75*
G02*
X173630000Y-119230000I0J-150000D01*
G01*
X173630000Y-119530000D01*
G75*
G02*
X173480000Y-119680000I-150000J0D01*
G01*
X171830000Y-119680000D01*
G75*
G02*
X171680000Y-119530000I0J150000D01*
G01*
G37*
%TD.AperFunction*%
%TO.P,U1,12*%
%TO.N,Net-(U1-Pad12)*%
%TA.AperFunction,SMDPad,CuDef*%
G36*
G01*
X171680000Y-118260000D02*
X171680000Y-117960000D01*
G75*
G02*
X171830000Y-117810000I150000J0D01*
G01*
X173480000Y-117810000D01*
G75*
G02*
X173630000Y-117960000I0J-150000D01*
G01*
X173630000Y-118260000D01*
G75*
G02*
X173480000Y-118410000I-150000J0D01*
G01*
X171830000Y-118410000D01*
G75*
G02*
X171680000Y-118260000I0J150000D01*
G01*
G37*
%TD.AperFunction*%
%TO.P,U1,13*%
%TO.N,Net-(U1-Pad13)*%
%TA.AperFunction,SMDPad,CuDef*%
G36*
G01*
X171680000Y-116990000D02*
X171680000Y-116690000D01*
G75*
G02*
X171830000Y-116540000I150000J0D01*
G01*
X173480000Y-116540000D01*
G75*
G02*
X173630000Y-116690000I0J-150000D01*
G01*
X173630000Y-116990000D01*
G75*
G02*
X173480000Y-117140000I-150000J0D01*
G01*
X171830000Y-117140000D01*
G75*
G02*
X171680000Y-116990000I0J150000D01*
G01*
G37*
%TD.AperFunction*%
%TO.P,U1,14*%
%TO.N,/PHASE*%
%TA.AperFunction,SMDPad,CuDef*%
G36*
G01*
X171680000Y-115720000D02*
X171680000Y-115420000D01*
G75*
G02*
X171830000Y-115270000I150000J0D01*
G01*
X173480000Y-115270000D01*
G75*
G02*
X173630000Y-115420000I0J-150000D01*
G01*
X173630000Y-115720000D01*
G75*
G02*
X173480000Y-115870000I-150000J0D01*
G01*
X171830000Y-115870000D01*
G75*
G02*
X171680000Y-115720000I0J150000D01*
G01*
G37*
%TD.AperFunction*%
%TO.P,U1,15*%
%TO.N,/V_OH*%
%TA.AperFunction,SMDPad,CuDef*%
G36*
G01*
X171680000Y-114450000D02*
X171680000Y-114150000D01*
G75*
G02*
X171830000Y-114000000I150000J0D01*
G01*
X173480000Y-114000000D01*
G75*
G02*
X173630000Y-114150000I0J-150000D01*
G01*
X173630000Y-114450000D01*
G75*
G02*
X173480000Y-114600000I-150000J0D01*
G01*
X171830000Y-114600000D01*
G75*
G02*
X171680000Y-114450000I0J150000D01*
G01*
G37*
%TD.AperFunction*%
%TO.P,U1,16*%
%TO.N,/VDD*%
%TA.AperFunction,SMDPad,CuDef*%
G36*
G01*
X171680000Y-113180000D02*
X171680000Y-112880000D01*
G75*
G02*
X171830000Y-112730000I150000J0D01*
G01*
X173480000Y-112730000D01*
G75*
G02*
X173630000Y-112880000I0J-150000D01*
G01*
X173630000Y-113180000D01*
G75*
G02*
X173480000Y-113330000I-150000J0D01*
G01*
X171830000Y-113330000D01*
G75*
G02*
X171680000Y-113180000I0J150000D01*
G01*
G37*
%TD.AperFunction*%
%TD*%
D17*
%TO.P,J5,2*%
%TO.N,GNDPWR*%
X164465000Y-123840000D03*
%TO.P,J5,1*%
%TO.N,GNDD*%
X164465000Y-122540000D03*
%TD*%
%TO.P,C8,2*%
%TO.N,GNDD*%
%TA.AperFunction,SMDPad,CuDef*%
G36*
G01*
X155945000Y-107299999D02*
X155945000Y-108600001D01*
G75*
G02*
X155695001Y-108850000I-249999J0D01*
G01*
X154869999Y-108850000D01*
G75*
G02*
X154620000Y-108600001I0J249999D01*
G01*
X154620000Y-107299999D01*
G75*
G02*
X154869999Y-107050000I249999J0D01*
G01*
X155695001Y-107050000D01*
G75*
G02*
X155945000Y-107299999I0J-249999D01*
G01*
G37*
%TD.AperFunction*%
%TO.P,C8,1*%
%TO.N,+5VD*%
%TA.AperFunction,SMDPad,CuDef*%
G36*
G01*
X159070000Y-107299999D02*
X159070000Y-108600001D01*
G75*
G02*
X158820001Y-108850000I-249999J0D01*
G01*
X157994999Y-108850000D01*
G75*
G02*
X157745000Y-108600001I0J249999D01*
G01*
X157745000Y-107299999D01*
G75*
G02*
X157994999Y-107050000I249999J0D01*
G01*
X158820001Y-107050000D01*
G75*
G02*
X159070000Y-107299999I0J-249999D01*
G01*
G37*
%TD.AperFunction*%
%TD*%
%TO.P,C9,1*%
%TO.N,+5VD*%
%TA.AperFunction,SMDPad,CuDef*%
G36*
G01*
X159070000Y-110474999D02*
X159070000Y-111775001D01*
G75*
G02*
X158820001Y-112025000I-249999J0D01*
G01*
X157994999Y-112025000D01*
G75*
G02*
X157745000Y-111775001I0J249999D01*
G01*
X157745000Y-110474999D01*
G75*
G02*
X157994999Y-110225000I249999J0D01*
G01*
X158820001Y-110225000D01*
G75*
G02*
X159070000Y-110474999I0J-249999D01*
G01*
G37*
%TD.AperFunction*%
%TO.P,C9,2*%
%TO.N,GNDD*%
%TA.AperFunction,SMDPad,CuDef*%
G36*
G01*
X155945000Y-110474999D02*
X155945000Y-111775001D01*
G75*
G02*
X155695001Y-112025000I-249999J0D01*
G01*
X154869999Y-112025000D01*
G75*
G02*
X154620000Y-111775001I0J249999D01*
G01*
X154620000Y-110474999D01*
G75*
G02*
X154869999Y-110225000I249999J0D01*
G01*
X155695001Y-110225000D01*
G75*
G02*
X155945000Y-110474999I0J-249999D01*
G01*
G37*
%TD.AperFunction*%
%TD*%
%TO.P,U2,1*%
%TO.N,/PWM_A*%
%TA.AperFunction,SMDPad,CuDef*%
G36*
G01*
X154538000Y-113688000D02*
X154538000Y-113388000D01*
G75*
G02*
X154688000Y-113238000I150000J0D01*
G01*
X156338000Y-113238000D01*
G75*
G02*
X156488000Y-113388000I0J-150000D01*
G01*
X156488000Y-113688000D01*
G75*
G02*
X156338000Y-113838000I-150000J0D01*
G01*
X154688000Y-113838000D01*
G75*
G02*
X154538000Y-113688000I0J150000D01*
G01*
G37*
%TD.AperFunction*%
%TO.P,U2,2*%
%TO.N,GNDD*%
%TA.AperFunction,SMDPad,CuDef*%
G36*
G01*
X154538000Y-114958000D02*
X154538000Y-114658000D01*
G75*
G02*
X154688000Y-114508000I150000J0D01*
G01*
X156338000Y-114508000D01*
G75*
G02*
X156488000Y-114658000I0J-150000D01*
G01*
X156488000Y-114958000D01*
G75*
G02*
X156338000Y-115108000I-150000J0D01*
G01*
X154688000Y-115108000D01*
G75*
G02*
X154538000Y-114958000I0J150000D01*
G01*
G37*
%TD.AperFunction*%
%TO.P,U2,3*%
%TO.N,/nA*%
%TA.AperFunction,SMDPad,CuDef*%
G36*
G01*
X154538000Y-116228000D02*
X154538000Y-115928000D01*
G75*
G02*
X154688000Y-115778000I150000J0D01*
G01*
X156338000Y-115778000D01*
G75*
G02*
X156488000Y-115928000I0J-150000D01*
G01*
X156488000Y-116228000D01*
G75*
G02*
X156338000Y-116378000I-150000J0D01*
G01*
X154688000Y-116378000D01*
G75*
G02*
X154538000Y-116228000I0J150000D01*
G01*
G37*
%TD.AperFunction*%
%TO.P,U2,4*%
%TO.N,/PWM_B*%
%TA.AperFunction,SMDPad,CuDef*%
G36*
G01*
X154538000Y-117498000D02*
X154538000Y-117198000D01*
G75*
G02*
X154688000Y-117048000I150000J0D01*
G01*
X156338000Y-117048000D01*
G75*
G02*
X156488000Y-117198000I0J-150000D01*
G01*
X156488000Y-117498000D01*
G75*
G02*
X156338000Y-117648000I-150000J0D01*
G01*
X154688000Y-117648000D01*
G75*
G02*
X154538000Y-117498000I0J150000D01*
G01*
G37*
%TD.AperFunction*%
%TO.P,U2,5*%
%TO.N,GNDD*%
%TA.AperFunction,SMDPad,CuDef*%
G36*
G01*
X154538000Y-118768000D02*
X154538000Y-118468000D01*
G75*
G02*
X154688000Y-118318000I150000J0D01*
G01*
X156338000Y-118318000D01*
G75*
G02*
X156488000Y-118468000I0J-150000D01*
G01*
X156488000Y-118768000D01*
G75*
G02*
X156338000Y-118918000I-150000J0D01*
G01*
X154688000Y-118918000D01*
G75*
G02*
X154538000Y-118768000I0J150000D01*
G01*
G37*
%TD.AperFunction*%
%TO.P,U2,6*%
%TO.N,/nB*%
%TA.AperFunction,SMDPad,CuDef*%
G36*
G01*
X154538000Y-120038000D02*
X154538000Y-119738000D01*
G75*
G02*
X154688000Y-119588000I150000J0D01*
G01*
X156338000Y-119588000D01*
G75*
G02*
X156488000Y-119738000I0J-150000D01*
G01*
X156488000Y-120038000D01*
G75*
G02*
X156338000Y-120188000I-150000J0D01*
G01*
X154688000Y-120188000D01*
G75*
G02*
X154538000Y-120038000I0J150000D01*
G01*
G37*
%TD.AperFunction*%
%TO.P,U2,7*%
%TO.N,GNDD*%
%TA.AperFunction,SMDPad,CuDef*%
G36*
G01*
X154538000Y-121308000D02*
X154538000Y-121008000D01*
G75*
G02*
X154688000Y-120858000I150000J0D01*
G01*
X156338000Y-120858000D01*
G75*
G02*
X156488000Y-121008000I0J-150000D01*
G01*
X156488000Y-121308000D01*
G75*
G02*
X156338000Y-121458000I-150000J0D01*
G01*
X154688000Y-121458000D01*
G75*
G02*
X154538000Y-121308000I0J150000D01*
G01*
G37*
%TD.AperFunction*%
%TO.P,U2,8*%
%TO.N,/B_Safe*%
%TA.AperFunction,SMDPad,CuDef*%
G36*
G01*
X159488000Y-121308000D02*
X159488000Y-121008000D01*
G75*
G02*
X159638000Y-120858000I150000J0D01*
G01*
X161288000Y-120858000D01*
G75*
G02*
X161438000Y-121008000I0J-150000D01*
G01*
X161438000Y-121308000D01*
G75*
G02*
X161288000Y-121458000I-150000J0D01*
G01*
X159638000Y-121458000D01*
G75*
G02*
X159488000Y-121308000I0J150000D01*
G01*
G37*
%TD.AperFunction*%
%TO.P,U2,9*%
%TO.N,/nB*%
%TA.AperFunction,SMDPad,CuDef*%
G36*
G01*
X159488000Y-120038000D02*
X159488000Y-119738000D01*
G75*
G02*
X159638000Y-119588000I150000J0D01*
G01*
X161288000Y-119588000D01*
G75*
G02*
X161438000Y-119738000I0J-150000D01*
G01*
X161438000Y-120038000D01*
G75*
G02*
X161288000Y-120188000I-150000J0D01*
G01*
X159638000Y-120188000D01*
G75*
G02*
X159488000Y-120038000I0J150000D01*
G01*
G37*
%TD.AperFunction*%
%TO.P,U2,10*%
%TO.N,/PWM_A*%
%TA.AperFunction,SMDPad,CuDef*%
G36*
G01*
X159488000Y-118768000D02*
X159488000Y-118468000D01*
G75*
G02*
X159638000Y-118318000I150000J0D01*
G01*
X161288000Y-118318000D01*
G75*
G02*
X161438000Y-118468000I0J-150000D01*
G01*
X161438000Y-118768000D01*
G75*
G02*
X161288000Y-118918000I-150000J0D01*
G01*
X159638000Y-118918000D01*
G75*
G02*
X159488000Y-118768000I0J150000D01*
G01*
G37*
%TD.AperFunction*%
%TO.P,U2,11*%
%TO.N,/A_Safe*%
%TA.AperFunction,SMDPad,CuDef*%
G36*
G01*
X159488000Y-117498000D02*
X159488000Y-117198000D01*
G75*
G02*
X159638000Y-117048000I150000J0D01*
G01*
X161288000Y-117048000D01*
G75*
G02*
X161438000Y-117198000I0J-150000D01*
G01*
X161438000Y-117498000D01*
G75*
G02*
X161288000Y-117648000I-150000J0D01*
G01*
X159638000Y-117648000D01*
G75*
G02*
X159488000Y-117498000I0J150000D01*
G01*
G37*
%TD.AperFunction*%
%TO.P,U2,12*%
%TO.N,/PWM_B*%
%TA.AperFunction,SMDPad,CuDef*%
G36*
G01*
X159488000Y-116228000D02*
X159488000Y-115928000D01*
G75*
G02*
X159638000Y-115778000I150000J0D01*
G01*
X161288000Y-115778000D01*
G75*
G02*
X161438000Y-115928000I0J-150000D01*
G01*
X161438000Y-116228000D01*
G75*
G02*
X161288000Y-116378000I-150000J0D01*
G01*
X159638000Y-116378000D01*
G75*
G02*
X159488000Y-116228000I0J150000D01*
G01*
G37*
%TD.AperFunction*%
%TO.P,U2,13*%
%TO.N,/nA*%
%TA.AperFunction,SMDPad,CuDef*%
G36*
G01*
X159488000Y-114958000D02*
X159488000Y-114658000D01*
G75*
G02*
X159638000Y-114508000I150000J0D01*
G01*
X161288000Y-114508000D01*
G75*
G02*
X161438000Y-114658000I0J-150000D01*
G01*
X161438000Y-114958000D01*
G75*
G02*
X161288000Y-115108000I-150000J0D01*
G01*
X159638000Y-115108000D01*
G75*
G02*
X159488000Y-114958000I0J150000D01*
G01*
G37*
%TD.AperFunction*%
%TO.P,U2,14*%
%TO.N,+5VD*%
%TA.AperFunction,SMDPad,CuDef*%
G36*
G01*
X159488000Y-113688000D02*
X159488000Y-113388000D01*
G75*
G02*
X159638000Y-113238000I150000J0D01*
G01*
X161288000Y-113238000D01*
G75*
G02*
X161438000Y-113388000I0J-150000D01*
G01*
X161438000Y-113688000D01*
G75*
G02*
X161288000Y-113838000I-150000J0D01*
G01*
X159638000Y-113838000D01*
G75*
G02*
X159488000Y-113688000I0J150000D01*
G01*
G37*
%TD.AperFunction*%
%TD*%
D18*
%TO.P,J4,1*%
%TO.N,+5VD*%
X152400000Y-112395000D03*
D19*
%TO.P,J4,2*%
%TO.N,/PWM_A*%
X152400000Y-114935000D03*
%TO.P,J4,3*%
%TO.N,/PWM_B*%
X152400000Y-117475000D03*
%TO.P,J4,4*%
%TO.N,GNDD*%
X152400000Y-120015000D03*
%TD*%
D18*
%TO.P,J6,1*%
%TO.N,+12V*%
X159385000Y-124460000D03*
D19*
%TO.P,J6,2*%
%TO.N,GNDPWR*%
X161925000Y-124460000D03*
%TD*%
D20*
%TO.N,GNDD*%
X155575000Y-121285000D03*
X155575000Y-114935000D03*
%TO.N,+12V*%
X160655000Y-109220000D03*
X161925000Y-109855000D03*
X169545000Y-120015000D03*
X169545000Y-118745000D03*
X169545000Y-117475000D03*
X169545000Y-121285000D03*
%TO.N,+5VD*%
X164465000Y-117182500D03*
X165735000Y-116840000D03*
X167005000Y-116840000D03*
X160305000Y-113380000D03*
X159352500Y-112427500D03*
X158407500Y-111482500D03*
%TO.N,GNDD*%
X155282500Y-111125000D03*
X155282500Y-109512500D03*
X155282500Y-107950000D03*
X156845000Y-114935000D03*
X155575000Y-118745000D03*
X156845000Y-118745000D03*
X156845000Y-121285000D03*
X165100000Y-119843750D03*
X165881250Y-118891250D03*
X167005000Y-118110000D03*
%TO.N,GNDPWR*%
X167005000Y-125095000D03*
X165735000Y-125095000D03*
X164465000Y-125095000D03*
X168275000Y-125095000D03*
X169545000Y-125095000D03*
X170815000Y-125095000D03*
X172085000Y-125095000D03*
X173355000Y-125095000D03*
X174625000Y-125095000D03*
X175895000Y-125095000D03*
X177165000Y-125095000D03*
X178435000Y-125095000D03*
X179705000Y-125095000D03*
X180975000Y-125095000D03*
X182245000Y-125095000D03*
X183515000Y-125095000D03*
X184785000Y-125095000D03*
X186055000Y-125095000D03*
X187325000Y-125095000D03*
%TO.N,/PHASE*%
X176525000Y-114395000D03*
X177805000Y-114395000D03*
X179075000Y-114395000D03*
X181610000Y-114395000D03*
X184055000Y-114395000D03*
%TO.N,/V_OH*%
X173990000Y-114300000D03*
X172655000Y-114300000D03*
X171450000Y-114300000D03*
%TO.N,/V_OL*%
X172720000Y-120650000D03*
X171450000Y-120650000D03*
%TO.N,/PWM_A*%
X158750000Y-118745000D03*
X157480000Y-113665000D03*
%TO.N,+5VD*%
X168275000Y-120650000D03*
X167005000Y-120650000D03*
X158407500Y-107950000D03*
X158407500Y-109562500D03*
%TD*%
D21*
%TO.N,+12V*%
X175895000Y-117115000D02*
X175895000Y-116840000D01*
X173630000Y-119380000D02*
X175895000Y-117115000D01*
X175895000Y-116840000D02*
X178435000Y-116840000D01*
X160655000Y-109220000D02*
X161290000Y-109220000D01*
X169545000Y-120015000D02*
X169545000Y-121285000D01*
X172655000Y-119380000D02*
X169545000Y-119380000D01*
X169545000Y-119380000D02*
X169545000Y-120015000D01*
X169545000Y-117475000D02*
X169545000Y-119380000D01*
X172655000Y-119380000D02*
X173630000Y-119380000D01*
%TO.N,+5VD*%
X164807500Y-116840000D02*
X165735000Y-116840000D01*
X164465000Y-117182500D02*
X164465000Y-117182500D01*
X164465000Y-117182500D02*
X164122500Y-117182500D01*
X164465000Y-116840000D02*
X164807500Y-116840000D01*
X158407500Y-107950000D02*
X158407500Y-111125000D01*
X158407500Y-111482500D02*
X159352500Y-112427500D01*
X158407500Y-111125000D02*
X158407500Y-111482500D01*
X164465000Y-117182500D02*
X164807500Y-116840000D01*
X165735000Y-116840000D02*
X167005000Y-116840000D01*
X167005000Y-116840000D02*
X167705000Y-116840000D01*
X160305000Y-113380000D02*
X160463000Y-113538000D01*
X159352500Y-112427500D02*
X160305000Y-113380000D01*
X158407500Y-111482500D02*
X158407500Y-111482500D01*
%TO.N,GNDD*%
X164465000Y-122540000D02*
X164450000Y-122540000D01*
X155282500Y-107950000D02*
X155282500Y-107950000D01*
X155282500Y-111125000D02*
X155282500Y-111125000D01*
X155282500Y-109512500D02*
X155282500Y-111125000D01*
X155282500Y-107950000D02*
X155282500Y-109512500D01*
X156718000Y-114808000D02*
X156845000Y-114935000D01*
X155513000Y-114808000D02*
X156718000Y-114808000D01*
X155575000Y-118745000D02*
X156845000Y-118745000D01*
X155575000Y-121285000D02*
X156845000Y-121285000D01*
X164465000Y-120307500D02*
X164465000Y-122540000D01*
X164465000Y-122540000D02*
X164465000Y-121224998D01*
X164928750Y-119843750D02*
X164465000Y-120307500D01*
X164465000Y-120307500D02*
X165881250Y-118891250D01*
X165881250Y-118891250D02*
X164928750Y-119843750D01*
X166662500Y-118110000D02*
X165881250Y-118891250D01*
X167005000Y-118110000D02*
X166662500Y-118110000D01*
X167705000Y-118110000D02*
X167005000Y-118110000D01*
%TO.N,GNDPWR*%
X172655000Y-121920000D02*
X173630000Y-121920000D01*
X177165000Y-120015000D02*
X177215000Y-119965000D01*
X177215000Y-119965000D02*
X178435000Y-119965000D01*
X175895000Y-119965000D02*
X177215000Y-119965000D01*
X170735000Y-123840000D02*
X172655000Y-121920000D01*
X164465000Y-123840000D02*
X170735000Y-123840000D01*
X175895000Y-121920000D02*
X177215000Y-120600000D01*
X172655000Y-121920000D02*
X175895000Y-121920000D01*
X177215000Y-119965000D02*
X177215000Y-120600000D01*
X188875000Y-119575000D02*
X187960000Y-120490000D01*
X164465000Y-125095000D02*
X174625000Y-125095000D01*
X187960000Y-124460000D02*
X187960000Y-120490000D01*
X187325000Y-125095000D02*
X187960000Y-124460000D01*
X174625000Y-125095000D02*
X175895000Y-125095000D01*
X175895000Y-125095000D02*
X177165000Y-125095000D01*
X177165000Y-125095000D02*
X178435000Y-125095000D01*
X178435000Y-125095000D02*
X179705000Y-125095000D01*
X179705000Y-125095000D02*
X180975000Y-125095000D01*
X180975000Y-125095000D02*
X182245000Y-125095000D01*
X182245000Y-125095000D02*
X183515000Y-125095000D01*
X183515000Y-125095000D02*
X184785000Y-125095000D01*
X184785000Y-125095000D02*
X186055000Y-125095000D01*
X186055000Y-125095000D02*
X187325000Y-125095000D01*
X187325000Y-125095000D02*
X187325000Y-125095000D01*
X178485000Y-120015000D02*
X178435000Y-119965000D01*
X180975000Y-120015000D02*
X178485000Y-120015000D01*
%TO.N,/PHASE*%
X175736480Y-114592500D02*
X175895000Y-114592500D01*
X174758980Y-115570000D02*
X175736480Y-114592500D01*
X172655000Y-115570000D02*
X174758980Y-115570000D01*
X183502500Y-114592500D02*
X183515000Y-114580000D01*
X175895000Y-114592500D02*
X181952500Y-114592500D01*
X181952500Y-114592500D02*
X183502500Y-114592500D01*
X183330000Y-114395000D02*
X183515000Y-114580000D01*
X176525000Y-114395000D02*
X180245000Y-114395000D01*
X182785000Y-114395000D02*
X183330000Y-114395000D01*
X178593520Y-114592500D02*
X178435000Y-114592500D01*
X180245000Y-114395000D02*
X182785000Y-114395000D01*
X182880000Y-114490000D02*
X182785000Y-114395000D01*
X180975000Y-116915000D02*
X180975000Y-114680000D01*
%TO.N,/VDD*%
X174332500Y-113030000D02*
X175895000Y-111467500D01*
X172655000Y-113030000D02*
X174332500Y-113030000D01*
X183502500Y-111467500D02*
X183515000Y-111480000D01*
X175895000Y-111467500D02*
X183502500Y-111467500D01*
X168205000Y-107950000D02*
X168205000Y-108580000D01*
X173990000Y-106045000D02*
X173990000Y-111695000D01*
X175667500Y-111695000D02*
X175895000Y-111467500D01*
X174332500Y-111922500D02*
X174560000Y-111695000D01*
X174560000Y-111695000D02*
X175667500Y-111695000D01*
X174332500Y-113030000D02*
X174332500Y-111922500D01*
X173990000Y-111695000D02*
X174560000Y-111695000D01*
X171742500Y-111467500D02*
X171417500Y-111792500D01*
X171417500Y-111792500D02*
X172655000Y-113030000D01*
X168205000Y-108580000D02*
X171417500Y-111792500D01*
X173322500Y-112362500D02*
X172427500Y-111467500D01*
X172427500Y-111467500D02*
X171742500Y-111467500D01*
X175895000Y-111467500D02*
X172427500Y-111467500D01*
X173990000Y-111695000D02*
X173322500Y-112362500D01*
X173322500Y-112362500D02*
X172655000Y-113030000D01*
%TO.N,Net-(D3-Pad1)*%
X163275000Y-106400000D02*
X163855000Y-106980000D01*
X161290000Y-106400000D02*
X163275000Y-106400000D01*
X163855000Y-108920000D02*
X163855000Y-106980000D01*
%TO.N,/V_OH*%
X172655000Y-114300000D02*
X173990000Y-114300000D01*
%TO.N,/V_OL*%
X172655000Y-120650000D02*
X172720000Y-120650000D01*
X171450000Y-120650000D02*
X170815000Y-120650000D01*
X171450000Y-120650000D02*
X172720000Y-120650000D01*
D22*
%TO.N,/PWM_A*%
X158877000Y-118618000D02*
X158750000Y-118745000D01*
X157353000Y-113538000D02*
X157480000Y-113665000D01*
X155513000Y-113538000D02*
X157353000Y-113538000D01*
D21*
%TO.N,+5VD*%
X167705000Y-120650000D02*
X168275000Y-120650000D01*
X167705000Y-120650000D02*
X167005000Y-120650000D01*
D22*
%TO.N,/PWM_A*%
X160463000Y-118618000D02*
X158877000Y-118618000D01*
X153797000Y-113538000D02*
X152400000Y-114935000D01*
X155513000Y-113538000D02*
X153797000Y-113538000D01*
%TO.N,/PWM_B*%
X155513000Y-117348000D02*
X158242000Y-117348000D01*
X158242000Y-117348000D02*
X159512000Y-116078000D01*
X155513000Y-117348000D02*
X154178000Y-117348000D01*
X152527000Y-117348000D02*
X152400000Y-117475000D01*
X155513000Y-117348000D02*
X152527000Y-117348000D01*
%TO.N,/A_Safe*%
X161417000Y-117348000D02*
X161906980Y-117348000D01*
X160463000Y-117348000D02*
X161417000Y-117348000D01*
X161906980Y-117348000D02*
X162169990Y-117084990D01*
X162169990Y-117084990D02*
X162169990Y-115960010D01*
X163830000Y-114300000D02*
X167705000Y-114300000D01*
X162169990Y-115960010D02*
X163830000Y-114300000D01*
%TO.N,/B_Safe*%
X160782000Y-121158000D02*
X159860010Y-121158000D01*
X163830000Y-115570000D02*
X162870000Y-116530000D01*
X167705000Y-115570000D02*
X163830000Y-115570000D01*
X161438000Y-121158000D02*
X160463000Y-121158000D01*
X162870000Y-119726000D02*
X161438000Y-121158000D01*
X162870000Y-116530000D02*
X162870000Y-119726000D01*
%TO.N,/nA*%
X155513000Y-116078000D02*
X157607000Y-116078000D01*
X158877000Y-114808000D02*
X159544990Y-114808000D01*
X157607000Y-116078000D02*
X158877000Y-114808000D01*
%TO.N,/nB*%
X155513000Y-119888000D02*
X159544990Y-119888000D01*
%TD*%
D23*
%TO.N,/VDD*%
X175110147Y-105626426D02*
X175055000Y-105903665D01*
X175055000Y-106186335D01*
X175110147Y-106463574D01*
X175218320Y-106724727D01*
X175375363Y-106959759D01*
X175575241Y-107159637D01*
X175810273Y-107316680D01*
X176071426Y-107424853D01*
X176348665Y-107480000D01*
X176631335Y-107480000D01*
X176908574Y-107424853D01*
X177169727Y-107316680D01*
X177404759Y-107159637D01*
X177604637Y-106959759D01*
X177761680Y-106724727D01*
X177869853Y-106463574D01*
X177925000Y-106186335D01*
X177925000Y-105903665D01*
X177869853Y-105626426D01*
X177832812Y-105537000D01*
X189738000Y-105537000D01*
X189738000Y-107851928D01*
X185960000Y-107851928D01*
X185835518Y-107864188D01*
X185715820Y-107900498D01*
X185605506Y-107959463D01*
X185508815Y-108038815D01*
X185429463Y-108135506D01*
X185370498Y-108245820D01*
X185334188Y-108365518D01*
X185321928Y-108490000D01*
X185321928Y-112490000D01*
X185334188Y-112614482D01*
X185370498Y-112734180D01*
X185429463Y-112844494D01*
X185477477Y-112903000D01*
X172137606Y-112903000D01*
X167767000Y-108532394D01*
X167767000Y-105537000D01*
X175147188Y-105537000D01*
X175110147Y-105626426D01*
%TA.AperFunction,Conductor*%
D24*
G36*
X175110147Y-105626426D02*
G01*
X175055000Y-105903665D01*
X175055000Y-106186335D01*
X175110147Y-106463574D01*
X175218320Y-106724727D01*
X175375363Y-106959759D01*
X175575241Y-107159637D01*
X175810273Y-107316680D01*
X176071426Y-107424853D01*
X176348665Y-107480000D01*
X176631335Y-107480000D01*
X176908574Y-107424853D01*
X177169727Y-107316680D01*
X177404759Y-107159637D01*
X177604637Y-106959759D01*
X177761680Y-106724727D01*
X177869853Y-106463574D01*
X177925000Y-106186335D01*
X177925000Y-105903665D01*
X177869853Y-105626426D01*
X177832812Y-105537000D01*
X189738000Y-105537000D01*
X189738000Y-107851928D01*
X185960000Y-107851928D01*
X185835518Y-107864188D01*
X185715820Y-107900498D01*
X185605506Y-107959463D01*
X185508815Y-108038815D01*
X185429463Y-108135506D01*
X185370498Y-108245820D01*
X185334188Y-108365518D01*
X185321928Y-108490000D01*
X185321928Y-112490000D01*
X185334188Y-112614482D01*
X185370498Y-112734180D01*
X185429463Y-112844494D01*
X185477477Y-112903000D01*
X172137606Y-112903000D01*
X167767000Y-108532394D01*
X167767000Y-105537000D01*
X175147188Y-105537000D01*
X175110147Y-105626426D01*
G37*
%TD.AperFunction*%
%TD*%
D23*
%TO.N,/VDD*%
X168783000Y-106553000D02*
X165862000Y-106553000D01*
X165862000Y-105537000D01*
X168783000Y-105537000D01*
X168783000Y-106553000D01*
%TA.AperFunction,Conductor*%
D24*
G36*
X168783000Y-106553000D02*
G01*
X165862000Y-106553000D01*
X165862000Y-105537000D01*
X168783000Y-105537000D01*
X168783000Y-106553000D01*
G37*
%TD.AperFunction*%
%TD*%
D23*
%TO.N,GNDPWR*%
X189738000Y-125603000D02*
X160798407Y-125603000D01*
X160824502Y-125554180D01*
X160860812Y-125434482D01*
X160873072Y-125310000D01*
X160873072Y-123610000D01*
X160860812Y-123485518D01*
X160824502Y-123365820D01*
X160798407Y-123317000D01*
X163143041Y-123317000D01*
X163184463Y-123394494D01*
X163263815Y-123491185D01*
X163360506Y-123570537D01*
X163470820Y-123629502D01*
X163590518Y-123665812D01*
X163715000Y-123678072D01*
X164440439Y-123678072D01*
X164465000Y-123680491D01*
X164489561Y-123678072D01*
X165215000Y-123678072D01*
X165339482Y-123665812D01*
X165459180Y-123629502D01*
X165569494Y-123570537D01*
X165666185Y-123491185D01*
X165745537Y-123394494D01*
X165786959Y-123317000D01*
X170180000Y-123317000D01*
X170204776Y-123314560D01*
X170228601Y-123307333D01*
X170250557Y-123295597D01*
X170269803Y-123279803D01*
X171764606Y-121785000D01*
X172775752Y-121785000D01*
X172942499Y-121768577D01*
X173156447Y-121703676D01*
X173353623Y-121598284D01*
X173366066Y-121588072D01*
X173480000Y-121588072D01*
X173633745Y-121572929D01*
X173781582Y-121528084D01*
X173917829Y-121455258D01*
X174037251Y-121357251D01*
X174135258Y-121237829D01*
X174208084Y-121101582D01*
X174252929Y-120953745D01*
X174268072Y-120800000D01*
X174268072Y-120500000D01*
X174252929Y-120346255D01*
X174249730Y-120335710D01*
X174263623Y-120328284D01*
X174436449Y-120186449D01*
X174471996Y-120143136D01*
X175108132Y-119507000D01*
X179705000Y-119507000D01*
X179729776Y-119504560D01*
X179753601Y-119497333D01*
X179775557Y-119485597D01*
X179794803Y-119469803D01*
X179810597Y-119450557D01*
X179822333Y-119428601D01*
X179829560Y-119404776D01*
X179832000Y-119380000D01*
X179832000Y-118237000D01*
X189738000Y-118237000D01*
X189738000Y-125603000D01*
%TA.AperFunction,Conductor*%
D24*
G36*
X189738000Y-125603000D02*
G01*
X160798407Y-125603000D01*
X160824502Y-125554180D01*
X160860812Y-125434482D01*
X160873072Y-125310000D01*
X160873072Y-123610000D01*
X160860812Y-123485518D01*
X160824502Y-123365820D01*
X160798407Y-123317000D01*
X163143041Y-123317000D01*
X163184463Y-123394494D01*
X163263815Y-123491185D01*
X163360506Y-123570537D01*
X163470820Y-123629502D01*
X163590518Y-123665812D01*
X163715000Y-123678072D01*
X164440439Y-123678072D01*
X164465000Y-123680491D01*
X164489561Y-123678072D01*
X165215000Y-123678072D01*
X165339482Y-123665812D01*
X165459180Y-123629502D01*
X165569494Y-123570537D01*
X165666185Y-123491185D01*
X165745537Y-123394494D01*
X165786959Y-123317000D01*
X170180000Y-123317000D01*
X170204776Y-123314560D01*
X170228601Y-123307333D01*
X170250557Y-123295597D01*
X170269803Y-123279803D01*
X171764606Y-121785000D01*
X172775752Y-121785000D01*
X172942499Y-121768577D01*
X173156447Y-121703676D01*
X173353623Y-121598284D01*
X173366066Y-121588072D01*
X173480000Y-121588072D01*
X173633745Y-121572929D01*
X173781582Y-121528084D01*
X173917829Y-121455258D01*
X174037251Y-121357251D01*
X174135258Y-121237829D01*
X174208084Y-121101582D01*
X174252929Y-120953745D01*
X174268072Y-120800000D01*
X174268072Y-120500000D01*
X174252929Y-120346255D01*
X174249730Y-120335710D01*
X174263623Y-120328284D01*
X174436449Y-120186449D01*
X174471996Y-120143136D01*
X175108132Y-119507000D01*
X179705000Y-119507000D01*
X179729776Y-119504560D01*
X179753601Y-119497333D01*
X179775557Y-119485597D01*
X179794803Y-119469803D01*
X179810597Y-119450557D01*
X179822333Y-119428601D01*
X179829560Y-119404776D01*
X179832000Y-119380000D01*
X179832000Y-118237000D01*
X189738000Y-118237000D01*
X189738000Y-125603000D01*
G37*
%TD.AperFunction*%
%TD*%
M02*
