%TF.GenerationSoftware,KiCad,Pcbnew,(5.1.9)-1*%
%TF.CreationDate,2021-11-14T21:39:45-06:00*%
%TF.ProjectId,BLDC_Cont,424c4443-5f43-46f6-9e74-2e6b69636164,rev?*%
%TF.SameCoordinates,Original*%
%TF.FileFunction,Copper,L2,Inr*%
%TF.FilePolarity,Positive*%
%FSLAX46Y46*%
G04 Gerber Fmt 4.6, Leading zero omitted, Abs format (unit mm)*
G04 Created by KiCad (PCBNEW (5.1.9)-1) date 2021-11-14 21:39:45*
%MOMM*%
%LPD*%
G01*
G04 APERTURE LIST*
%TA.AperFunction,ComponentPad*%
%ADD10C,4.000000*%
%TD*%
%TA.AperFunction,ComponentPad*%
%ADD11R,4.000000X4.000000*%
%TD*%
%TA.AperFunction,ComponentPad*%
%ADD12R,1.600000X1.600000*%
%TD*%
%TA.AperFunction,ComponentPad*%
%ADD13C,1.600000*%
%TD*%
%TA.AperFunction,ComponentPad*%
%ADD14R,1.700000X1.700000*%
%TD*%
%TA.AperFunction,ComponentPad*%
%ADD15O,1.700000X1.700000*%
%TD*%
%TA.AperFunction,ViaPad*%
%ADD16C,0.800000*%
%TD*%
%TA.AperFunction,Conductor*%
%ADD17C,1.000000*%
%TD*%
%TA.AperFunction,Conductor*%
%ADD18C,0.254000*%
%TD*%
%TA.AperFunction,Conductor*%
%ADD19C,0.100000*%
%TD*%
G04 APERTURE END LIST*
D10*
%TO.N,GNDPWR*%
%TO.C,C7*%
X187960000Y-120490000D03*
D11*
%TO.N,+VDC*%
X187960000Y-110490000D03*
%TD*%
D12*
%TO.N,/VDD*%
%TO.C,C6*%
X173990000Y-106045000D03*
D13*
%TO.N,/PHASE*%
X176490000Y-106045000D03*
%TD*%
D14*
%TO.N,+5VD*%
%TO.C,J4*%
X152400000Y-112395000D03*
D15*
%TO.N,/PWM_A*%
X152400000Y-114935000D03*
%TO.N,/PWM_B*%
X152400000Y-117475000D03*
%TO.N,GNDD*%
X152400000Y-120015000D03*
%TD*%
D14*
%TO.N,+12V*%
%TO.C,J6*%
X159385000Y-124460000D03*
D15*
%TO.N,GNDPWR*%
X161925000Y-124460000D03*
%TD*%
D16*
%TO.N,GNDD*%
X155575000Y-121285000D03*
X155575000Y-114935000D03*
%TO.N,+12V*%
X160655000Y-109220000D03*
X161925000Y-109855000D03*
X169545000Y-120015000D03*
X169545000Y-118745000D03*
X169545000Y-117475000D03*
X169545000Y-121285000D03*
%TO.N,+5VD*%
X164465000Y-117182500D03*
X165735000Y-116840000D03*
X167005000Y-116840000D03*
X160305000Y-113380000D03*
X159352500Y-112427500D03*
X158407500Y-111482500D03*
%TO.N,GNDD*%
X155282500Y-111125000D03*
X155282500Y-109512500D03*
X155282500Y-107950000D03*
X156845000Y-114935000D03*
X155575000Y-118745000D03*
X156845000Y-118745000D03*
X156845000Y-121285000D03*
X165100000Y-119843750D03*
X165881250Y-118891250D03*
X167005000Y-118110000D03*
%TO.N,GNDPWR*%
X167005000Y-125095000D03*
X165735000Y-125095000D03*
X164465000Y-125095000D03*
X168275000Y-125095000D03*
X169545000Y-125095000D03*
X170815000Y-125095000D03*
X172085000Y-125095000D03*
X173355000Y-125095000D03*
X174625000Y-125095000D03*
X175895000Y-125095000D03*
X177165000Y-125095000D03*
X178435000Y-125095000D03*
X179705000Y-125095000D03*
X180975000Y-125095000D03*
X182245000Y-125095000D03*
X183515000Y-125095000D03*
X184785000Y-125095000D03*
X186055000Y-125095000D03*
X187325000Y-125095000D03*
%TO.N,/PHASE*%
X176525000Y-114395000D03*
X177805000Y-114395000D03*
X179075000Y-114395000D03*
X181610000Y-114395000D03*
X184055000Y-114395000D03*
%TO.N,/V_OH*%
X173990000Y-114300000D03*
X172655000Y-114300000D03*
X171450000Y-114300000D03*
%TO.N,/V_OL*%
X172720000Y-120650000D03*
X171450000Y-120650000D03*
%TO.N,/PWM_A*%
X158750000Y-118745000D03*
X157480000Y-113665000D03*
%TO.N,+5VD*%
X168275000Y-120650000D03*
X167005000Y-120650000D03*
X158407500Y-107950000D03*
X158407500Y-109562500D03*
%TD*%
D17*
%TO.N,+12V*%
X161290000Y-109220000D02*
X161290000Y-109220000D01*
X161290000Y-109220000D02*
X161925000Y-109855000D01*
X169545000Y-121285000D02*
X169545000Y-120015000D01*
X169545000Y-120015000D02*
X169545000Y-118745000D01*
X169545000Y-118745000D02*
X169545000Y-117475000D01*
X160655000Y-109220000D02*
X161290000Y-109220000D01*
X159385000Y-124460000D02*
X159385000Y-123825000D01*
X161925000Y-109855000D02*
X161925000Y-121285000D01*
X169079999Y-121750001D02*
X161459999Y-121750001D01*
X161459999Y-121750001D02*
X160655000Y-122555000D01*
X169545000Y-121285000D02*
X169079999Y-121750001D01*
X160655000Y-122555000D02*
X161925000Y-121285000D01*
X159385000Y-123825000D02*
X160655000Y-122555000D01*
%TO.N,+5VD*%
X160305000Y-113380000D02*
X158407500Y-111482500D01*
X158407500Y-111482500D02*
X158407500Y-109562500D01*
X158407500Y-109562500D02*
X158407500Y-107950000D01*
X156242500Y-112427500D02*
X152432500Y-112427500D01*
X152432500Y-112427500D02*
X152400000Y-112395000D01*
X159352500Y-112427500D02*
X156242500Y-112427500D01*
X156242500Y-112427500D02*
X154337500Y-112427500D01*
%TO.N,GNDPWR*%
X187325000Y-125095000D02*
X164465000Y-125095000D01*
%TD*%
D18*
%TO.N,GNDPWR*%
X172551928Y-106845000D02*
X172564188Y-106969482D01*
X172600498Y-107089180D01*
X172659463Y-107199494D01*
X172738815Y-107296185D01*
X172835506Y-107375537D01*
X172945820Y-107434502D01*
X173065518Y-107470812D01*
X173190000Y-107483072D01*
X174790000Y-107483072D01*
X174914482Y-107470812D01*
X175034180Y-107434502D01*
X175144494Y-107375537D01*
X175241185Y-107296185D01*
X175320537Y-107199494D01*
X175379502Y-107089180D01*
X175408661Y-106993057D01*
X175575241Y-107159637D01*
X175810273Y-107316680D01*
X176071426Y-107424853D01*
X176348665Y-107480000D01*
X176631335Y-107480000D01*
X176908574Y-107424853D01*
X177169727Y-107316680D01*
X177404759Y-107159637D01*
X177604637Y-106959759D01*
X177761680Y-106724727D01*
X177869853Y-106463574D01*
X177925000Y-106186335D01*
X177925000Y-105903665D01*
X177869853Y-105626426D01*
X177832812Y-105537000D01*
X189738000Y-105537000D01*
X189738000Y-107851928D01*
X185960000Y-107851928D01*
X185835518Y-107864188D01*
X185715820Y-107900498D01*
X185605506Y-107959463D01*
X185508815Y-108038815D01*
X185429463Y-108135506D01*
X185370498Y-108245820D01*
X185334188Y-108365518D01*
X185321928Y-108490000D01*
X185321928Y-112490000D01*
X185334188Y-112614482D01*
X185370498Y-112734180D01*
X185429463Y-112844494D01*
X185508815Y-112941185D01*
X185605506Y-113020537D01*
X185715820Y-113079502D01*
X185835518Y-113115812D01*
X185960000Y-113128072D01*
X189738000Y-113128072D01*
X189738000Y-125603000D01*
X160798407Y-125603000D01*
X160824502Y-125554180D01*
X160860812Y-125434482D01*
X160873072Y-125310000D01*
X160873072Y-123942060D01*
X161496988Y-123318144D01*
X161496992Y-123318139D01*
X161626509Y-123188622D01*
X161930131Y-122885001D01*
X169024248Y-122885001D01*
X169079999Y-122890492D01*
X169135750Y-122885001D01*
X169135751Y-122885001D01*
X169302498Y-122868578D01*
X169516446Y-122803677D01*
X169713622Y-122698285D01*
X169733465Y-122682000D01*
X170815000Y-122682000D01*
X170839776Y-122679560D01*
X170863601Y-122672333D01*
X170885557Y-122660597D01*
X170904803Y-122644803D01*
X170920597Y-122625557D01*
X170932333Y-122603601D01*
X170939560Y-122579776D01*
X170942000Y-122555000D01*
X170942000Y-121555349D01*
X170959744Y-121567205D01*
X171148102Y-121645226D01*
X171348061Y-121685000D01*
X171551939Y-121685000D01*
X171751898Y-121645226D01*
X171940256Y-121567205D01*
X172085000Y-121470490D01*
X172229744Y-121567205D01*
X172418102Y-121645226D01*
X172618061Y-121685000D01*
X172821939Y-121685000D01*
X173021898Y-121645226D01*
X173210256Y-121567205D01*
X173379774Y-121453937D01*
X173523937Y-121309774D01*
X173637205Y-121140256D01*
X173715226Y-120951898D01*
X173755000Y-120751939D01*
X173755000Y-120548061D01*
X173715226Y-120348102D01*
X173637205Y-120159744D01*
X173523937Y-119990226D01*
X173379774Y-119846063D01*
X173210256Y-119732795D01*
X173021898Y-119654774D01*
X172821939Y-119615000D01*
X172618061Y-119615000D01*
X172418102Y-119654774D01*
X172229744Y-119732795D01*
X172085000Y-119829510D01*
X171940256Y-119732795D01*
X171751898Y-119654774D01*
X171551939Y-119615000D01*
X171348061Y-119615000D01*
X171148102Y-119654774D01*
X170959744Y-119732795D01*
X170942000Y-119744651D01*
X170942000Y-115205349D01*
X170959744Y-115217205D01*
X171148102Y-115295226D01*
X171348061Y-115335000D01*
X171551939Y-115335000D01*
X171751898Y-115295226D01*
X171940256Y-115217205D01*
X172052500Y-115142206D01*
X172164744Y-115217205D01*
X172353102Y-115295226D01*
X172553061Y-115335000D01*
X172756939Y-115335000D01*
X172956898Y-115295226D01*
X173145256Y-115217205D01*
X173314774Y-115103937D01*
X173322500Y-115096211D01*
X173330226Y-115103937D01*
X173499744Y-115217205D01*
X173688102Y-115295226D01*
X173888061Y-115335000D01*
X174091939Y-115335000D01*
X174291898Y-115295226D01*
X174480256Y-115217205D01*
X174649774Y-115103937D01*
X174793937Y-114959774D01*
X174907205Y-114790256D01*
X174985226Y-114601898D01*
X175025000Y-114401939D01*
X175025000Y-114293061D01*
X175490000Y-114293061D01*
X175490000Y-114496939D01*
X175529774Y-114696898D01*
X175607795Y-114885256D01*
X175721063Y-115054774D01*
X175865226Y-115198937D01*
X176034744Y-115312205D01*
X176223102Y-115390226D01*
X176423061Y-115430000D01*
X176626939Y-115430000D01*
X176826898Y-115390226D01*
X177015256Y-115312205D01*
X177165000Y-115212150D01*
X177314744Y-115312205D01*
X177503102Y-115390226D01*
X177703061Y-115430000D01*
X177906939Y-115430000D01*
X178106898Y-115390226D01*
X178295256Y-115312205D01*
X178440000Y-115215490D01*
X178584744Y-115312205D01*
X178773102Y-115390226D01*
X178973061Y-115430000D01*
X179176939Y-115430000D01*
X179376898Y-115390226D01*
X179565256Y-115312205D01*
X179734774Y-115198937D01*
X179878937Y-115054774D01*
X179992205Y-114885256D01*
X180070226Y-114696898D01*
X180110000Y-114496939D01*
X180110000Y-114293061D01*
X180575000Y-114293061D01*
X180575000Y-114496939D01*
X180614774Y-114696898D01*
X180692795Y-114885256D01*
X180806063Y-115054774D01*
X180950226Y-115198937D01*
X181119744Y-115312205D01*
X181308102Y-115390226D01*
X181508061Y-115430000D01*
X181711939Y-115430000D01*
X181911898Y-115390226D01*
X182100256Y-115312205D01*
X182269774Y-115198937D01*
X182413937Y-115054774D01*
X182527205Y-114885256D01*
X182605226Y-114696898D01*
X182645000Y-114496939D01*
X182645000Y-114293061D01*
X183020000Y-114293061D01*
X183020000Y-114496939D01*
X183059774Y-114696898D01*
X183137795Y-114885256D01*
X183251063Y-115054774D01*
X183395226Y-115198937D01*
X183564744Y-115312205D01*
X183753102Y-115390226D01*
X183953061Y-115430000D01*
X184156939Y-115430000D01*
X184356898Y-115390226D01*
X184545256Y-115312205D01*
X184714774Y-115198937D01*
X184858937Y-115054774D01*
X184972205Y-114885256D01*
X185050226Y-114696898D01*
X185090000Y-114496939D01*
X185090000Y-114293061D01*
X185050226Y-114093102D01*
X184972205Y-113904744D01*
X184858937Y-113735226D01*
X184714774Y-113591063D01*
X184545256Y-113477795D01*
X184356898Y-113399774D01*
X184156939Y-113360000D01*
X183953061Y-113360000D01*
X183753102Y-113399774D01*
X183564744Y-113477795D01*
X183395226Y-113591063D01*
X183251063Y-113735226D01*
X183137795Y-113904744D01*
X183059774Y-114093102D01*
X183020000Y-114293061D01*
X182645000Y-114293061D01*
X182605226Y-114093102D01*
X182527205Y-113904744D01*
X182413937Y-113735226D01*
X182269774Y-113591063D01*
X182100256Y-113477795D01*
X181911898Y-113399774D01*
X181711939Y-113360000D01*
X181508061Y-113360000D01*
X181308102Y-113399774D01*
X181119744Y-113477795D01*
X180950226Y-113591063D01*
X180806063Y-113735226D01*
X180692795Y-113904744D01*
X180614774Y-114093102D01*
X180575000Y-114293061D01*
X180110000Y-114293061D01*
X180070226Y-114093102D01*
X179992205Y-113904744D01*
X179878937Y-113735226D01*
X179734774Y-113591063D01*
X179565256Y-113477795D01*
X179376898Y-113399774D01*
X179176939Y-113360000D01*
X178973061Y-113360000D01*
X178773102Y-113399774D01*
X178584744Y-113477795D01*
X178440000Y-113574510D01*
X178295256Y-113477795D01*
X178106898Y-113399774D01*
X177906939Y-113360000D01*
X177703061Y-113360000D01*
X177503102Y-113399774D01*
X177314744Y-113477795D01*
X177165000Y-113577850D01*
X177015256Y-113477795D01*
X176826898Y-113399774D01*
X176626939Y-113360000D01*
X176423061Y-113360000D01*
X176223102Y-113399774D01*
X176034744Y-113477795D01*
X175865226Y-113591063D01*
X175721063Y-113735226D01*
X175607795Y-113904744D01*
X175529774Y-114093102D01*
X175490000Y-114293061D01*
X175025000Y-114293061D01*
X175025000Y-114198061D01*
X174985226Y-113998102D01*
X174907205Y-113809744D01*
X174793937Y-113640226D01*
X174649774Y-113496063D01*
X174480256Y-113382795D01*
X174291898Y-113304774D01*
X174091939Y-113265000D01*
X173888061Y-113265000D01*
X173688102Y-113304774D01*
X173499744Y-113382795D01*
X173330226Y-113496063D01*
X173322500Y-113503789D01*
X173314774Y-113496063D01*
X173145256Y-113382795D01*
X172956898Y-113304774D01*
X172756939Y-113265000D01*
X172553061Y-113265000D01*
X172353102Y-113304774D01*
X172164744Y-113382795D01*
X172052500Y-113457794D01*
X171940256Y-113382795D01*
X171751898Y-113304774D01*
X171551939Y-113265000D01*
X171348061Y-113265000D01*
X171148102Y-113304774D01*
X170959744Y-113382795D01*
X170942000Y-113394651D01*
X170942000Y-109855000D01*
X170939560Y-109830224D01*
X170932333Y-109806399D01*
X170920597Y-109784443D01*
X170904803Y-109765197D01*
X170885557Y-109749403D01*
X170863601Y-109737667D01*
X170839776Y-109730440D01*
X170815000Y-109728000D01*
X165227000Y-109728000D01*
X165227000Y-105537000D01*
X172551928Y-105537000D01*
X172551928Y-106845000D01*
%TA.AperFunction,Conductor*%
D19*
G36*
X172551928Y-106845000D02*
G01*
X172564188Y-106969482D01*
X172600498Y-107089180D01*
X172659463Y-107199494D01*
X172738815Y-107296185D01*
X172835506Y-107375537D01*
X172945820Y-107434502D01*
X173065518Y-107470812D01*
X173190000Y-107483072D01*
X174790000Y-107483072D01*
X174914482Y-107470812D01*
X175034180Y-107434502D01*
X175144494Y-107375537D01*
X175241185Y-107296185D01*
X175320537Y-107199494D01*
X175379502Y-107089180D01*
X175408661Y-106993057D01*
X175575241Y-107159637D01*
X175810273Y-107316680D01*
X176071426Y-107424853D01*
X176348665Y-107480000D01*
X176631335Y-107480000D01*
X176908574Y-107424853D01*
X177169727Y-107316680D01*
X177404759Y-107159637D01*
X177604637Y-106959759D01*
X177761680Y-106724727D01*
X177869853Y-106463574D01*
X177925000Y-106186335D01*
X177925000Y-105903665D01*
X177869853Y-105626426D01*
X177832812Y-105537000D01*
X189738000Y-105537000D01*
X189738000Y-107851928D01*
X185960000Y-107851928D01*
X185835518Y-107864188D01*
X185715820Y-107900498D01*
X185605506Y-107959463D01*
X185508815Y-108038815D01*
X185429463Y-108135506D01*
X185370498Y-108245820D01*
X185334188Y-108365518D01*
X185321928Y-108490000D01*
X185321928Y-112490000D01*
X185334188Y-112614482D01*
X185370498Y-112734180D01*
X185429463Y-112844494D01*
X185508815Y-112941185D01*
X185605506Y-113020537D01*
X185715820Y-113079502D01*
X185835518Y-113115812D01*
X185960000Y-113128072D01*
X189738000Y-113128072D01*
X189738000Y-125603000D01*
X160798407Y-125603000D01*
X160824502Y-125554180D01*
X160860812Y-125434482D01*
X160873072Y-125310000D01*
X160873072Y-123942060D01*
X161496988Y-123318144D01*
X161496992Y-123318139D01*
X161626509Y-123188622D01*
X161930131Y-122885001D01*
X169024248Y-122885001D01*
X169079999Y-122890492D01*
X169135750Y-122885001D01*
X169135751Y-122885001D01*
X169302498Y-122868578D01*
X169516446Y-122803677D01*
X169713622Y-122698285D01*
X169733465Y-122682000D01*
X170815000Y-122682000D01*
X170839776Y-122679560D01*
X170863601Y-122672333D01*
X170885557Y-122660597D01*
X170904803Y-122644803D01*
X170920597Y-122625557D01*
X170932333Y-122603601D01*
X170939560Y-122579776D01*
X170942000Y-122555000D01*
X170942000Y-121555349D01*
X170959744Y-121567205D01*
X171148102Y-121645226D01*
X171348061Y-121685000D01*
X171551939Y-121685000D01*
X171751898Y-121645226D01*
X171940256Y-121567205D01*
X172085000Y-121470490D01*
X172229744Y-121567205D01*
X172418102Y-121645226D01*
X172618061Y-121685000D01*
X172821939Y-121685000D01*
X173021898Y-121645226D01*
X173210256Y-121567205D01*
X173379774Y-121453937D01*
X173523937Y-121309774D01*
X173637205Y-121140256D01*
X173715226Y-120951898D01*
X173755000Y-120751939D01*
X173755000Y-120548061D01*
X173715226Y-120348102D01*
X173637205Y-120159744D01*
X173523937Y-119990226D01*
X173379774Y-119846063D01*
X173210256Y-119732795D01*
X173021898Y-119654774D01*
X172821939Y-119615000D01*
X172618061Y-119615000D01*
X172418102Y-119654774D01*
X172229744Y-119732795D01*
X172085000Y-119829510D01*
X171940256Y-119732795D01*
X171751898Y-119654774D01*
X171551939Y-119615000D01*
X171348061Y-119615000D01*
X171148102Y-119654774D01*
X170959744Y-119732795D01*
X170942000Y-119744651D01*
X170942000Y-115205349D01*
X170959744Y-115217205D01*
X171148102Y-115295226D01*
X171348061Y-115335000D01*
X171551939Y-115335000D01*
X171751898Y-115295226D01*
X171940256Y-115217205D01*
X172052500Y-115142206D01*
X172164744Y-115217205D01*
X172353102Y-115295226D01*
X172553061Y-115335000D01*
X172756939Y-115335000D01*
X172956898Y-115295226D01*
X173145256Y-115217205D01*
X173314774Y-115103937D01*
X173322500Y-115096211D01*
X173330226Y-115103937D01*
X173499744Y-115217205D01*
X173688102Y-115295226D01*
X173888061Y-115335000D01*
X174091939Y-115335000D01*
X174291898Y-115295226D01*
X174480256Y-115217205D01*
X174649774Y-115103937D01*
X174793937Y-114959774D01*
X174907205Y-114790256D01*
X174985226Y-114601898D01*
X175025000Y-114401939D01*
X175025000Y-114293061D01*
X175490000Y-114293061D01*
X175490000Y-114496939D01*
X175529774Y-114696898D01*
X175607795Y-114885256D01*
X175721063Y-115054774D01*
X175865226Y-115198937D01*
X176034744Y-115312205D01*
X176223102Y-115390226D01*
X176423061Y-115430000D01*
X176626939Y-115430000D01*
X176826898Y-115390226D01*
X177015256Y-115312205D01*
X177165000Y-115212150D01*
X177314744Y-115312205D01*
X177503102Y-115390226D01*
X177703061Y-115430000D01*
X177906939Y-115430000D01*
X178106898Y-115390226D01*
X178295256Y-115312205D01*
X178440000Y-115215490D01*
X178584744Y-115312205D01*
X178773102Y-115390226D01*
X178973061Y-115430000D01*
X179176939Y-115430000D01*
X179376898Y-115390226D01*
X179565256Y-115312205D01*
X179734774Y-115198937D01*
X179878937Y-115054774D01*
X179992205Y-114885256D01*
X180070226Y-114696898D01*
X180110000Y-114496939D01*
X180110000Y-114293061D01*
X180575000Y-114293061D01*
X180575000Y-114496939D01*
X180614774Y-114696898D01*
X180692795Y-114885256D01*
X180806063Y-115054774D01*
X180950226Y-115198937D01*
X181119744Y-115312205D01*
X181308102Y-115390226D01*
X181508061Y-115430000D01*
X181711939Y-115430000D01*
X181911898Y-115390226D01*
X182100256Y-115312205D01*
X182269774Y-115198937D01*
X182413937Y-115054774D01*
X182527205Y-114885256D01*
X182605226Y-114696898D01*
X182645000Y-114496939D01*
X182645000Y-114293061D01*
X183020000Y-114293061D01*
X183020000Y-114496939D01*
X183059774Y-114696898D01*
X183137795Y-114885256D01*
X183251063Y-115054774D01*
X183395226Y-115198937D01*
X183564744Y-115312205D01*
X183753102Y-115390226D01*
X183953061Y-115430000D01*
X184156939Y-115430000D01*
X184356898Y-115390226D01*
X184545256Y-115312205D01*
X184714774Y-115198937D01*
X184858937Y-115054774D01*
X184972205Y-114885256D01*
X185050226Y-114696898D01*
X185090000Y-114496939D01*
X185090000Y-114293061D01*
X185050226Y-114093102D01*
X184972205Y-113904744D01*
X184858937Y-113735226D01*
X184714774Y-113591063D01*
X184545256Y-113477795D01*
X184356898Y-113399774D01*
X184156939Y-113360000D01*
X183953061Y-113360000D01*
X183753102Y-113399774D01*
X183564744Y-113477795D01*
X183395226Y-113591063D01*
X183251063Y-113735226D01*
X183137795Y-113904744D01*
X183059774Y-114093102D01*
X183020000Y-114293061D01*
X182645000Y-114293061D01*
X182605226Y-114093102D01*
X182527205Y-113904744D01*
X182413937Y-113735226D01*
X182269774Y-113591063D01*
X182100256Y-113477795D01*
X181911898Y-113399774D01*
X181711939Y-113360000D01*
X181508061Y-113360000D01*
X181308102Y-113399774D01*
X181119744Y-113477795D01*
X180950226Y-113591063D01*
X180806063Y-113735226D01*
X180692795Y-113904744D01*
X180614774Y-114093102D01*
X180575000Y-114293061D01*
X180110000Y-114293061D01*
X180070226Y-114093102D01*
X179992205Y-113904744D01*
X179878937Y-113735226D01*
X179734774Y-113591063D01*
X179565256Y-113477795D01*
X179376898Y-113399774D01*
X179176939Y-113360000D01*
X178973061Y-113360000D01*
X178773102Y-113399774D01*
X178584744Y-113477795D01*
X178440000Y-113574510D01*
X178295256Y-113477795D01*
X178106898Y-113399774D01*
X177906939Y-113360000D01*
X177703061Y-113360000D01*
X177503102Y-113399774D01*
X177314744Y-113477795D01*
X177165000Y-113577850D01*
X177015256Y-113477795D01*
X176826898Y-113399774D01*
X176626939Y-113360000D01*
X176423061Y-113360000D01*
X176223102Y-113399774D01*
X176034744Y-113477795D01*
X175865226Y-113591063D01*
X175721063Y-113735226D01*
X175607795Y-113904744D01*
X175529774Y-114093102D01*
X175490000Y-114293061D01*
X175025000Y-114293061D01*
X175025000Y-114198061D01*
X174985226Y-113998102D01*
X174907205Y-113809744D01*
X174793937Y-113640226D01*
X174649774Y-113496063D01*
X174480256Y-113382795D01*
X174291898Y-113304774D01*
X174091939Y-113265000D01*
X173888061Y-113265000D01*
X173688102Y-113304774D01*
X173499744Y-113382795D01*
X173330226Y-113496063D01*
X173322500Y-113503789D01*
X173314774Y-113496063D01*
X173145256Y-113382795D01*
X172956898Y-113304774D01*
X172756939Y-113265000D01*
X172553061Y-113265000D01*
X172353102Y-113304774D01*
X172164744Y-113382795D01*
X172052500Y-113457794D01*
X171940256Y-113382795D01*
X171751898Y-113304774D01*
X171551939Y-113265000D01*
X171348061Y-113265000D01*
X171148102Y-113304774D01*
X170959744Y-113382795D01*
X170942000Y-113394651D01*
X170942000Y-109855000D01*
X170939560Y-109830224D01*
X170932333Y-109806399D01*
X170920597Y-109784443D01*
X170904803Y-109765197D01*
X170885557Y-109749403D01*
X170863601Y-109737667D01*
X170839776Y-109730440D01*
X170815000Y-109728000D01*
X165227000Y-109728000D01*
X165227000Y-105537000D01*
X172551928Y-105537000D01*
X172551928Y-106845000D01*
G37*
%TD.AperFunction*%
%TD*%
M02*
