%TF.GenerationSoftware,KiCad,Pcbnew,(5.1.9)-1*%
%TF.CreationDate,2021-11-14T21:39:46-06:00*%
%TF.ProjectId,BLDC_Cont,424c4443-5f43-46f6-9e74-2e6b69636164,rev?*%
%TF.SameCoordinates,Original*%
%TF.FileFunction,Other,Fab,Top*%
%FSLAX46Y46*%
G04 Gerber Fmt 4.6, Leading zero omitted, Abs format (unit mm)*
G04 Created by KiCad (PCBNEW (5.1.9)-1) date 2021-11-14 21:39:46*
%MOMM*%
%LPD*%
G01*
G04 APERTURE LIST*
%ADD10C,0.100000*%
%ADD11C,0.150000*%
%ADD12C,0.120000*%
G04 APERTURE END LIST*
D10*
%TO.C,D3*%
X165315000Y-109940000D02*
X164315000Y-108940000D01*
X169695000Y-109940000D02*
X169695000Y-105960000D01*
X165315000Y-109940000D02*
X169695000Y-109940000D01*
X164315000Y-105960000D02*
X164315000Y-108950000D01*
X169695000Y-105960000D02*
X164315000Y-105960000D01*
%TO.C,C1*%
X163665000Y-120345000D02*
X163665000Y-117145000D01*
X165265000Y-120345000D02*
X163665000Y-120345000D01*
X165265000Y-117145000D02*
X165265000Y-120345000D01*
X163665000Y-117145000D02*
X165265000Y-117145000D01*
%TO.C,C2*%
X175095000Y-116802500D02*
X176695000Y-116802500D01*
X176695000Y-116802500D02*
X176695000Y-120002500D01*
X176695000Y-120002500D02*
X175095000Y-120002500D01*
X175095000Y-120002500D02*
X175095000Y-116802500D01*
%TO.C,C3*%
X177635000Y-120002500D02*
X177635000Y-116802500D01*
X179235000Y-120002500D02*
X177635000Y-120002500D01*
X179235000Y-116802500D02*
X179235000Y-120002500D01*
X177635000Y-116802500D02*
X179235000Y-116802500D01*
%TO.C,C4*%
X175095000Y-111430000D02*
X176695000Y-111430000D01*
X176695000Y-111430000D02*
X176695000Y-114630000D01*
X176695000Y-114630000D02*
X175095000Y-114630000D01*
X175095000Y-114630000D02*
X175095000Y-111430000D01*
%TO.C,C5*%
X177635000Y-114630000D02*
X177635000Y-111430000D01*
X179235000Y-114630000D02*
X177635000Y-114630000D01*
X179235000Y-111430000D02*
X179235000Y-114630000D01*
X177635000Y-111430000D02*
X179235000Y-111430000D01*
%TO.C,C6*%
X172861028Y-104356500D02*
X172861028Y-104986500D01*
X172546028Y-104671500D02*
X173176028Y-104671500D01*
X178390000Y-106045000D02*
G75*
G03*
X178390000Y-106045000I-3150000J0D01*
G01*
%TO.C,D4*%
X181875000Y-111630000D02*
X181875000Y-114430000D01*
X181875000Y-114430000D02*
X180075000Y-114430000D01*
X180075000Y-114430000D02*
X180075000Y-111630000D01*
X180075000Y-111630000D02*
X181875000Y-111630000D01*
X180975000Y-112280000D02*
X180975000Y-112680000D01*
X180975000Y-112680000D02*
X181525000Y-112680000D01*
X180975000Y-112680000D02*
X180425000Y-112680000D01*
X180975000Y-112680000D02*
X181375000Y-113280000D01*
X181375000Y-113280000D02*
X180575000Y-113280000D01*
X180575000Y-113280000D02*
X180975000Y-112680000D01*
X180975000Y-113280000D02*
X180975000Y-113780000D01*
%TO.C,R3*%
X160490000Y-106350000D02*
X162090000Y-106350000D01*
X162090000Y-106350000D02*
X162090000Y-109550000D01*
X162090000Y-109550000D02*
X160490000Y-109550000D01*
X160490000Y-109550000D02*
X160490000Y-106350000D01*
%TO.C,R4*%
X182715000Y-114630000D02*
X182715000Y-111430000D01*
X184315000Y-114630000D02*
X182715000Y-114630000D01*
X184315000Y-111430000D02*
X184315000Y-114630000D01*
X182715000Y-111430000D02*
X184315000Y-111430000D01*
%TO.C,R5*%
X180175000Y-120065000D02*
X180175000Y-116865000D01*
X181775000Y-120065000D02*
X180175000Y-120065000D01*
X181775000Y-116865000D02*
X181775000Y-120065000D01*
X180175000Y-116865000D02*
X181775000Y-116865000D01*
%TO.C,U1*%
X168230000Y-113500000D02*
X169205000Y-112525000D01*
X168230000Y-122425000D02*
X168230000Y-113500000D01*
X172130000Y-122425000D02*
X168230000Y-122425000D01*
X172130000Y-112525000D02*
X172130000Y-122425000D01*
X169205000Y-112525000D02*
X172130000Y-112525000D01*
%TO.C,C8*%
X158445000Y-107150000D02*
X158445000Y-108750000D01*
X158445000Y-108750000D02*
X155245000Y-108750000D01*
X155245000Y-108750000D02*
X155245000Y-107150000D01*
X155245000Y-107150000D02*
X158445000Y-107150000D01*
%TO.C,C9*%
X155245000Y-110325000D02*
X158445000Y-110325000D01*
X155245000Y-111925000D02*
X155245000Y-110325000D01*
X158445000Y-111925000D02*
X155245000Y-111925000D01*
X158445000Y-110325000D02*
X158445000Y-111925000D01*
%TO.C,U2*%
X156038000Y-113998000D02*
X157013000Y-113023000D01*
X156038000Y-121673000D02*
X156038000Y-113998000D01*
X159938000Y-121673000D02*
X156038000Y-121673000D01*
X159938000Y-113023000D02*
X159938000Y-121673000D01*
X157013000Y-113023000D02*
X159938000Y-113023000D01*
%TO.C,J4*%
X151130000Y-111760000D02*
X151765000Y-111125000D01*
X151130000Y-121285000D02*
X151130000Y-111760000D01*
X153670000Y-121285000D02*
X151130000Y-121285000D01*
X153670000Y-111125000D02*
X153670000Y-121285000D01*
X151765000Y-111125000D02*
X153670000Y-111125000D01*
%TO.C,J6*%
X158750000Y-125730000D02*
X158115000Y-125095000D01*
X163195000Y-125730000D02*
X158750000Y-125730000D01*
X163195000Y-123190000D02*
X163195000Y-125730000D01*
X158115000Y-123190000D02*
X163195000Y-123190000D01*
X158115000Y-125095000D02*
X158115000Y-123190000D01*
%TD*%
%TO.C,D3*%
D11*
X167412142Y-108614285D02*
X166512142Y-108614285D01*
X166512142Y-108400000D01*
X166555000Y-108271428D01*
X166640714Y-108185714D01*
X166726428Y-108142857D01*
X166897857Y-108100000D01*
X167026428Y-108100000D01*
X167197857Y-108142857D01*
X167283571Y-108185714D01*
X167369285Y-108271428D01*
X167412142Y-108400000D01*
X167412142Y-108614285D01*
X166512142Y-107800000D02*
X166512142Y-107242857D01*
X166855000Y-107542857D01*
X166855000Y-107414285D01*
X166897857Y-107328571D01*
X166940714Y-107285714D01*
X167026428Y-107242857D01*
X167240714Y-107242857D01*
X167326428Y-107285714D01*
X167369285Y-107328571D01*
X167412142Y-107414285D01*
X167412142Y-107671428D01*
X167369285Y-107757142D01*
X167326428Y-107800000D01*
%TO.C,C7*%
X185721904Y-115592619D02*
X185769523Y-115545000D01*
X185864761Y-115497380D01*
X186102857Y-115497380D01*
X186198095Y-115545000D01*
X186245714Y-115592619D01*
X186293333Y-115687857D01*
X186293333Y-115783095D01*
X186245714Y-115925952D01*
X185674285Y-116497380D01*
X186293333Y-116497380D01*
X186674285Y-115592619D02*
X186721904Y-115545000D01*
X186817142Y-115497380D01*
X187055238Y-115497380D01*
X187150476Y-115545000D01*
X187198095Y-115592619D01*
X187245714Y-115687857D01*
X187245714Y-115783095D01*
X187198095Y-115925952D01*
X186626666Y-116497380D01*
X187245714Y-116497380D01*
X188436190Y-116497380D02*
X188436190Y-115830714D01*
X188436190Y-115925952D02*
X188483809Y-115878333D01*
X188579047Y-115830714D01*
X188721904Y-115830714D01*
X188817142Y-115878333D01*
X188864761Y-115973571D01*
X188864761Y-116497380D01*
X188864761Y-115973571D02*
X188912380Y-115878333D01*
X189007619Y-115830714D01*
X189150476Y-115830714D01*
X189245714Y-115878333D01*
X189293333Y-115973571D01*
X189293333Y-116497380D01*
X190102857Y-115973571D02*
X189769523Y-115973571D01*
X189769523Y-116497380D02*
X189769523Y-115497380D01*
X190245714Y-115497380D01*
X187793333Y-114497142D02*
X187745714Y-114544761D01*
X187602857Y-114592380D01*
X187507619Y-114592380D01*
X187364761Y-114544761D01*
X187269523Y-114449523D01*
X187221904Y-114354285D01*
X187174285Y-114163809D01*
X187174285Y-114020952D01*
X187221904Y-113830476D01*
X187269523Y-113735238D01*
X187364761Y-113640000D01*
X187507619Y-113592380D01*
X187602857Y-113592380D01*
X187745714Y-113640000D01*
X187793333Y-113687619D01*
X188126666Y-113592380D02*
X188793333Y-113592380D01*
X188364761Y-114592380D01*
%TO.C,C1*%
D12*
X164750714Y-118878333D02*
X164788809Y-118916428D01*
X164826904Y-119030714D01*
X164826904Y-119106904D01*
X164788809Y-119221190D01*
X164712619Y-119297380D01*
X164636428Y-119335476D01*
X164484047Y-119373571D01*
X164369761Y-119373571D01*
X164217380Y-119335476D01*
X164141190Y-119297380D01*
X164065000Y-119221190D01*
X164026904Y-119106904D01*
X164026904Y-119030714D01*
X164065000Y-118916428D01*
X164103095Y-118878333D01*
X164826904Y-118116428D02*
X164826904Y-118573571D01*
X164826904Y-118345000D02*
X164026904Y-118345000D01*
X164141190Y-118421190D01*
X164217380Y-118497380D01*
X164255476Y-118573571D01*
%TO.C,C2*%
X176180714Y-118535833D02*
X176218809Y-118573928D01*
X176256904Y-118688214D01*
X176256904Y-118764404D01*
X176218809Y-118878690D01*
X176142619Y-118954880D01*
X176066428Y-118992976D01*
X175914047Y-119031071D01*
X175799761Y-119031071D01*
X175647380Y-118992976D01*
X175571190Y-118954880D01*
X175495000Y-118878690D01*
X175456904Y-118764404D01*
X175456904Y-118688214D01*
X175495000Y-118573928D01*
X175533095Y-118535833D01*
X175533095Y-118231071D02*
X175495000Y-118192976D01*
X175456904Y-118116785D01*
X175456904Y-117926309D01*
X175495000Y-117850119D01*
X175533095Y-117812023D01*
X175609285Y-117773928D01*
X175685476Y-117773928D01*
X175799761Y-117812023D01*
X176256904Y-118269166D01*
X176256904Y-117773928D01*
%TO.C,C3*%
X178720714Y-118535833D02*
X178758809Y-118573928D01*
X178796904Y-118688214D01*
X178796904Y-118764404D01*
X178758809Y-118878690D01*
X178682619Y-118954880D01*
X178606428Y-118992976D01*
X178454047Y-119031071D01*
X178339761Y-119031071D01*
X178187380Y-118992976D01*
X178111190Y-118954880D01*
X178035000Y-118878690D01*
X177996904Y-118764404D01*
X177996904Y-118688214D01*
X178035000Y-118573928D01*
X178073095Y-118535833D01*
X177996904Y-118269166D02*
X177996904Y-117773928D01*
X178301666Y-118040595D01*
X178301666Y-117926309D01*
X178339761Y-117850119D01*
X178377857Y-117812023D01*
X178454047Y-117773928D01*
X178644523Y-117773928D01*
X178720714Y-117812023D01*
X178758809Y-117850119D01*
X178796904Y-117926309D01*
X178796904Y-118154880D01*
X178758809Y-118231071D01*
X178720714Y-118269166D01*
%TO.C,C4*%
D11*
X175347380Y-108703809D02*
X175347380Y-108608571D01*
X175395000Y-108513333D01*
X175442619Y-108465714D01*
X175537857Y-108418095D01*
X175728333Y-108370476D01*
X175966428Y-108370476D01*
X176156904Y-108418095D01*
X176252142Y-108465714D01*
X176299761Y-108513333D01*
X176347380Y-108608571D01*
X176347380Y-108703809D01*
X176299761Y-108799047D01*
X176252142Y-108846666D01*
X176156904Y-108894285D01*
X175966428Y-108941904D01*
X175728333Y-108941904D01*
X175537857Y-108894285D01*
X175442619Y-108846666D01*
X175395000Y-108799047D01*
X175347380Y-108703809D01*
X176252142Y-107941904D02*
X176299761Y-107894285D01*
X176347380Y-107941904D01*
X176299761Y-107989523D01*
X176252142Y-107941904D01*
X176347380Y-107941904D01*
X176347380Y-106941904D02*
X176347380Y-107513333D01*
X176347380Y-107227619D02*
X175347380Y-107227619D01*
X175490238Y-107322857D01*
X175585476Y-107418095D01*
X175633095Y-107513333D01*
X175680714Y-105322857D02*
X176347380Y-105322857D01*
X175680714Y-105751428D02*
X176204523Y-105751428D01*
X176299761Y-105703809D01*
X176347380Y-105608571D01*
X176347380Y-105465714D01*
X176299761Y-105370476D01*
X176252142Y-105322857D01*
X175823571Y-104513333D02*
X175823571Y-104846666D01*
X176347380Y-104846666D02*
X175347380Y-104846666D01*
X175347380Y-104370476D01*
D12*
X176180714Y-113163333D02*
X176218809Y-113201428D01*
X176256904Y-113315714D01*
X176256904Y-113391904D01*
X176218809Y-113506190D01*
X176142619Y-113582380D01*
X176066428Y-113620476D01*
X175914047Y-113658571D01*
X175799761Y-113658571D01*
X175647380Y-113620476D01*
X175571190Y-113582380D01*
X175495000Y-113506190D01*
X175456904Y-113391904D01*
X175456904Y-113315714D01*
X175495000Y-113201428D01*
X175533095Y-113163333D01*
X175723571Y-112477619D02*
X176256904Y-112477619D01*
X175418809Y-112668095D02*
X175990238Y-112858571D01*
X175990238Y-112363333D01*
%TO.C,C5*%
D11*
X178887380Y-108291190D02*
X178887380Y-108862619D01*
X178887380Y-108576904D02*
X177887380Y-108576904D01*
X178030238Y-108672142D01*
X178125476Y-108767380D01*
X178173095Y-108862619D01*
X178220714Y-106672142D02*
X178887380Y-106672142D01*
X178220714Y-107100714D02*
X178744523Y-107100714D01*
X178839761Y-107053095D01*
X178887380Y-106957857D01*
X178887380Y-106815000D01*
X178839761Y-106719761D01*
X178792142Y-106672142D01*
X178363571Y-105862619D02*
X178363571Y-106195952D01*
X178887380Y-106195952D02*
X177887380Y-106195952D01*
X177887380Y-105719761D01*
D12*
X178720714Y-113163333D02*
X178758809Y-113201428D01*
X178796904Y-113315714D01*
X178796904Y-113391904D01*
X178758809Y-113506190D01*
X178682619Y-113582380D01*
X178606428Y-113620476D01*
X178454047Y-113658571D01*
X178339761Y-113658571D01*
X178187380Y-113620476D01*
X178111190Y-113582380D01*
X178035000Y-113506190D01*
X177996904Y-113391904D01*
X177996904Y-113315714D01*
X178035000Y-113201428D01*
X178073095Y-113163333D01*
X177996904Y-112439523D02*
X177996904Y-112820476D01*
X178377857Y-112858571D01*
X178339761Y-112820476D01*
X178301666Y-112744285D01*
X178301666Y-112553809D01*
X178339761Y-112477619D01*
X178377857Y-112439523D01*
X178454047Y-112401428D01*
X178644523Y-112401428D01*
X178720714Y-112439523D01*
X178758809Y-112477619D01*
X178796904Y-112553809D01*
X178796904Y-112744285D01*
X178758809Y-112820476D01*
X178720714Y-112858571D01*
%TO.C,C6*%
D11*
X175073333Y-106402142D02*
X175025714Y-106449761D01*
X174882857Y-106497380D01*
X174787619Y-106497380D01*
X174644761Y-106449761D01*
X174549523Y-106354523D01*
X174501904Y-106259285D01*
X174454285Y-106068809D01*
X174454285Y-105925952D01*
X174501904Y-105735476D01*
X174549523Y-105640238D01*
X174644761Y-105545000D01*
X174787619Y-105497380D01*
X174882857Y-105497380D01*
X175025714Y-105545000D01*
X175073333Y-105592619D01*
X175930476Y-105497380D02*
X175740000Y-105497380D01*
X175644761Y-105545000D01*
X175597142Y-105592619D01*
X175501904Y-105735476D01*
X175454285Y-105925952D01*
X175454285Y-106306904D01*
X175501904Y-106402142D01*
X175549523Y-106449761D01*
X175644761Y-106497380D01*
X175835238Y-106497380D01*
X175930476Y-106449761D01*
X175978095Y-106402142D01*
X176025714Y-106306904D01*
X176025714Y-106068809D01*
X175978095Y-105973571D01*
X175930476Y-105925952D01*
X175835238Y-105878333D01*
X175644761Y-105878333D01*
X175549523Y-105925952D01*
X175501904Y-105973571D01*
X175454285Y-106068809D01*
%TO.C,D4*%
X181427380Y-113768095D02*
X180427380Y-113768095D01*
X180427380Y-113530000D01*
X180475000Y-113387142D01*
X180570238Y-113291904D01*
X180665476Y-113244285D01*
X180855952Y-113196666D01*
X180998809Y-113196666D01*
X181189285Y-113244285D01*
X181284523Y-113291904D01*
X181379761Y-113387142D01*
X181427380Y-113530000D01*
X181427380Y-113768095D01*
X180760714Y-112339523D02*
X181427380Y-112339523D01*
X180379761Y-112577619D02*
X181094047Y-112815714D01*
X181094047Y-112196666D01*
%TO.C,R3*%
D12*
X161651904Y-108083333D02*
X161270952Y-108350000D01*
X161651904Y-108540476D02*
X160851904Y-108540476D01*
X160851904Y-108235714D01*
X160890000Y-108159523D01*
X160928095Y-108121428D01*
X161004285Y-108083333D01*
X161118571Y-108083333D01*
X161194761Y-108121428D01*
X161232857Y-108159523D01*
X161270952Y-108235714D01*
X161270952Y-108540476D01*
X160851904Y-107816666D02*
X160851904Y-107321428D01*
X161156666Y-107588095D01*
X161156666Y-107473809D01*
X161194761Y-107397619D01*
X161232857Y-107359523D01*
X161309047Y-107321428D01*
X161499523Y-107321428D01*
X161575714Y-107359523D01*
X161613809Y-107397619D01*
X161651904Y-107473809D01*
X161651904Y-107702380D01*
X161613809Y-107778571D01*
X161575714Y-107816666D01*
%TO.C,R4*%
X183876904Y-113163333D02*
X183495952Y-113430000D01*
X183876904Y-113620476D02*
X183076904Y-113620476D01*
X183076904Y-113315714D01*
X183115000Y-113239523D01*
X183153095Y-113201428D01*
X183229285Y-113163333D01*
X183343571Y-113163333D01*
X183419761Y-113201428D01*
X183457857Y-113239523D01*
X183495952Y-113315714D01*
X183495952Y-113620476D01*
X183343571Y-112477619D02*
X183876904Y-112477619D01*
X183038809Y-112668095D02*
X183610238Y-112858571D01*
X183610238Y-112363333D01*
%TO.C,R5*%
X181336904Y-118598333D02*
X180955952Y-118865000D01*
X181336904Y-119055476D02*
X180536904Y-119055476D01*
X180536904Y-118750714D01*
X180575000Y-118674523D01*
X180613095Y-118636428D01*
X180689285Y-118598333D01*
X180803571Y-118598333D01*
X180879761Y-118636428D01*
X180917857Y-118674523D01*
X180955952Y-118750714D01*
X180955952Y-119055476D01*
X180536904Y-117874523D02*
X180536904Y-118255476D01*
X180917857Y-118293571D01*
X180879761Y-118255476D01*
X180841666Y-118179285D01*
X180841666Y-117988809D01*
X180879761Y-117912619D01*
X180917857Y-117874523D01*
X180994047Y-117836428D01*
X181184523Y-117836428D01*
X181260714Y-117874523D01*
X181298809Y-117912619D01*
X181336904Y-117988809D01*
X181336904Y-118179285D01*
X181298809Y-118255476D01*
X181260714Y-118293571D01*
%TO.C,U1*%
D11*
X169433333Y-113763333D02*
X169433333Y-114556666D01*
X169480000Y-114650000D01*
X169526666Y-114696666D01*
X169620000Y-114743333D01*
X169806666Y-114743333D01*
X169900000Y-114696666D01*
X169946666Y-114650000D01*
X169993333Y-114556666D01*
X169993333Y-113763333D01*
X170973333Y-114743333D02*
X170413333Y-114743333D01*
X170693333Y-114743333D02*
X170693333Y-113763333D01*
X170600000Y-113903333D01*
X170506666Y-113996666D01*
X170413333Y-114043333D01*
%TO.C,J5*%
X163965000Y-138453333D02*
X163917380Y-138548571D01*
X163917380Y-138691428D01*
X163965000Y-138834285D01*
X164060238Y-138929523D01*
X164155476Y-138977142D01*
X164345952Y-139024761D01*
X164488809Y-139024761D01*
X164679285Y-138977142D01*
X164774523Y-138929523D01*
X164869761Y-138834285D01*
X164917380Y-138691428D01*
X164917380Y-138596190D01*
X164869761Y-138453333D01*
X164822142Y-138405714D01*
X164488809Y-138405714D01*
X164488809Y-138596190D01*
X164917380Y-137977142D02*
X163917380Y-137977142D01*
X164917380Y-137405714D01*
X163917380Y-137405714D01*
X164917380Y-136929523D02*
X163917380Y-136929523D01*
X163917380Y-136691428D01*
X163965000Y-136548571D01*
X164060238Y-136453333D01*
X164155476Y-136405714D01*
X164345952Y-136358095D01*
X164488809Y-136358095D01*
X164679285Y-136405714D01*
X164774523Y-136453333D01*
X164869761Y-136548571D01*
X164917380Y-136691428D01*
X164917380Y-136929523D01*
X165012619Y-136167619D02*
X165012619Y-135405714D01*
X163917380Y-134881904D02*
X164631666Y-134881904D01*
X164774523Y-134929523D01*
X164869761Y-135024761D01*
X164917380Y-135167619D01*
X164917380Y-135262857D01*
X164250714Y-133977142D02*
X164917380Y-133977142D01*
X164250714Y-134405714D02*
X164774523Y-134405714D01*
X164869761Y-134358095D01*
X164917380Y-134262857D01*
X164917380Y-134120000D01*
X164869761Y-134024761D01*
X164822142Y-133977142D01*
X164917380Y-133500952D02*
X164250714Y-133500952D01*
X164345952Y-133500952D02*
X164298333Y-133453333D01*
X164250714Y-133358095D01*
X164250714Y-133215238D01*
X164298333Y-133120000D01*
X164393571Y-133072380D01*
X164917380Y-133072380D01*
X164393571Y-133072380D02*
X164298333Y-133024761D01*
X164250714Y-132929523D01*
X164250714Y-132786666D01*
X164298333Y-132691428D01*
X164393571Y-132643809D01*
X164917380Y-132643809D01*
X164250714Y-132167619D02*
X165250714Y-132167619D01*
X164298333Y-132167619D02*
X164250714Y-132072380D01*
X164250714Y-131881904D01*
X164298333Y-131786666D01*
X164345952Y-131739047D01*
X164441190Y-131691428D01*
X164726904Y-131691428D01*
X164822142Y-131739047D01*
X164869761Y-131786666D01*
X164917380Y-131881904D01*
X164917380Y-132072380D01*
X164869761Y-132167619D01*
X164869761Y-130881904D02*
X164917380Y-130977142D01*
X164917380Y-131167619D01*
X164869761Y-131262857D01*
X164774523Y-131310476D01*
X164393571Y-131310476D01*
X164298333Y-131262857D01*
X164250714Y-131167619D01*
X164250714Y-130977142D01*
X164298333Y-130881904D01*
X164393571Y-130834285D01*
X164488809Y-130834285D01*
X164584047Y-131310476D01*
X164917380Y-130405714D02*
X164250714Y-130405714D01*
X164441190Y-130405714D02*
X164345952Y-130358095D01*
X164298333Y-130310476D01*
X164250714Y-130215238D01*
X164250714Y-130120000D01*
%TO.C,C8*%
D12*
X156711666Y-108235714D02*
X156673571Y-108273809D01*
X156559285Y-108311904D01*
X156483095Y-108311904D01*
X156368809Y-108273809D01*
X156292619Y-108197619D01*
X156254523Y-108121428D01*
X156216428Y-107969047D01*
X156216428Y-107854761D01*
X156254523Y-107702380D01*
X156292619Y-107626190D01*
X156368809Y-107550000D01*
X156483095Y-107511904D01*
X156559285Y-107511904D01*
X156673571Y-107550000D01*
X156711666Y-107588095D01*
X157168809Y-107854761D02*
X157092619Y-107816666D01*
X157054523Y-107778571D01*
X157016428Y-107702380D01*
X157016428Y-107664285D01*
X157054523Y-107588095D01*
X157092619Y-107550000D01*
X157168809Y-107511904D01*
X157321190Y-107511904D01*
X157397380Y-107550000D01*
X157435476Y-107588095D01*
X157473571Y-107664285D01*
X157473571Y-107702380D01*
X157435476Y-107778571D01*
X157397380Y-107816666D01*
X157321190Y-107854761D01*
X157168809Y-107854761D01*
X157092619Y-107892857D01*
X157054523Y-107930952D01*
X157016428Y-108007142D01*
X157016428Y-108159523D01*
X157054523Y-108235714D01*
X157092619Y-108273809D01*
X157168809Y-108311904D01*
X157321190Y-108311904D01*
X157397380Y-108273809D01*
X157435476Y-108235714D01*
X157473571Y-108159523D01*
X157473571Y-108007142D01*
X157435476Y-107930952D01*
X157397380Y-107892857D01*
X157321190Y-107854761D01*
%TO.C,C9*%
X156711666Y-111410714D02*
X156673571Y-111448809D01*
X156559285Y-111486904D01*
X156483095Y-111486904D01*
X156368809Y-111448809D01*
X156292619Y-111372619D01*
X156254523Y-111296428D01*
X156216428Y-111144047D01*
X156216428Y-111029761D01*
X156254523Y-110877380D01*
X156292619Y-110801190D01*
X156368809Y-110725000D01*
X156483095Y-110686904D01*
X156559285Y-110686904D01*
X156673571Y-110725000D01*
X156711666Y-110763095D01*
X157092619Y-111486904D02*
X157245000Y-111486904D01*
X157321190Y-111448809D01*
X157359285Y-111410714D01*
X157435476Y-111296428D01*
X157473571Y-111144047D01*
X157473571Y-110839285D01*
X157435476Y-110763095D01*
X157397380Y-110725000D01*
X157321190Y-110686904D01*
X157168809Y-110686904D01*
X157092619Y-110725000D01*
X157054523Y-110763095D01*
X157016428Y-110839285D01*
X157016428Y-111029761D01*
X157054523Y-111105952D01*
X157092619Y-111144047D01*
X157168809Y-111182142D01*
X157321190Y-111182142D01*
X157397380Y-111144047D01*
X157435476Y-111105952D01*
X157473571Y-111029761D01*
%TO.C,U2*%
D11*
X157241333Y-116811333D02*
X157241333Y-117604666D01*
X157288000Y-117698000D01*
X157334666Y-117744666D01*
X157428000Y-117791333D01*
X157614666Y-117791333D01*
X157708000Y-117744666D01*
X157754666Y-117698000D01*
X157801333Y-117604666D01*
X157801333Y-116811333D01*
X158221333Y-116904666D02*
X158268000Y-116858000D01*
X158361333Y-116811333D01*
X158594666Y-116811333D01*
X158688000Y-116858000D01*
X158734666Y-116904666D01*
X158781333Y-116998000D01*
X158781333Y-117091333D01*
X158734666Y-117231333D01*
X158174666Y-117791333D01*
X158781333Y-117791333D01*
%TO.C,J4*%
X148019047Y-122797380D02*
X148019047Y-121797380D01*
X148400000Y-121797380D01*
X148495238Y-121845000D01*
X148542857Y-121892619D01*
X148590476Y-121987857D01*
X148590476Y-122130714D01*
X148542857Y-122225952D01*
X148495238Y-122273571D01*
X148400000Y-122321190D01*
X148019047Y-122321190D01*
X149019047Y-122797380D02*
X149019047Y-122130714D01*
X149019047Y-121797380D02*
X148971428Y-121845000D01*
X149019047Y-121892619D01*
X149066666Y-121845000D01*
X149019047Y-121797380D01*
X149019047Y-121892619D01*
X149495238Y-122130714D02*
X149495238Y-122797380D01*
X149495238Y-122225952D02*
X149542857Y-122178333D01*
X149638095Y-122130714D01*
X149780952Y-122130714D01*
X149876190Y-122178333D01*
X149923809Y-122273571D01*
X149923809Y-122797380D01*
X151161904Y-122797380D02*
X151161904Y-121797380D01*
X151161904Y-122273571D02*
X151733333Y-122273571D01*
X151733333Y-122797380D02*
X151733333Y-121797380D01*
X152590476Y-122749761D02*
X152495238Y-122797380D01*
X152304761Y-122797380D01*
X152209523Y-122749761D01*
X152161904Y-122654523D01*
X152161904Y-122273571D01*
X152209523Y-122178333D01*
X152304761Y-122130714D01*
X152495238Y-122130714D01*
X152590476Y-122178333D01*
X152638095Y-122273571D01*
X152638095Y-122368809D01*
X152161904Y-122464047D01*
X153495238Y-122797380D02*
X153495238Y-122273571D01*
X153447619Y-122178333D01*
X153352380Y-122130714D01*
X153161904Y-122130714D01*
X153066666Y-122178333D01*
X153495238Y-122749761D02*
X153400000Y-122797380D01*
X153161904Y-122797380D01*
X153066666Y-122749761D01*
X153019047Y-122654523D01*
X153019047Y-122559285D01*
X153066666Y-122464047D01*
X153161904Y-122416428D01*
X153400000Y-122416428D01*
X153495238Y-122368809D01*
X154400000Y-122797380D02*
X154400000Y-121797380D01*
X154400000Y-122749761D02*
X154304761Y-122797380D01*
X154114285Y-122797380D01*
X154019047Y-122749761D01*
X153971428Y-122702142D01*
X153923809Y-122606904D01*
X153923809Y-122321190D01*
X153971428Y-122225952D01*
X154019047Y-122178333D01*
X154114285Y-122130714D01*
X154304761Y-122130714D01*
X154400000Y-122178333D01*
X155304761Y-122797380D02*
X155304761Y-121797380D01*
X155304761Y-122749761D02*
X155209523Y-122797380D01*
X155019047Y-122797380D01*
X154923809Y-122749761D01*
X154876190Y-122702142D01*
X154828571Y-122606904D01*
X154828571Y-122321190D01*
X154876190Y-122225952D01*
X154923809Y-122178333D01*
X155019047Y-122130714D01*
X155209523Y-122130714D01*
X155304761Y-122178333D01*
X156161904Y-122749761D02*
X156066666Y-122797380D01*
X155876190Y-122797380D01*
X155780952Y-122749761D01*
X155733333Y-122654523D01*
X155733333Y-122273571D01*
X155780952Y-122178333D01*
X155876190Y-122130714D01*
X156066666Y-122130714D01*
X156161904Y-122178333D01*
X156209523Y-122273571D01*
X156209523Y-122368809D01*
X155733333Y-122464047D01*
X156638095Y-122797380D02*
X156638095Y-122130714D01*
X156638095Y-122321190D02*
X156685714Y-122225952D01*
X156733333Y-122178333D01*
X156828571Y-122130714D01*
X156923809Y-122130714D01*
X151852380Y-116538333D02*
X152566666Y-116538333D01*
X152709523Y-116585952D01*
X152804761Y-116681190D01*
X152852380Y-116824047D01*
X152852380Y-116919285D01*
X152185714Y-115633571D02*
X152852380Y-115633571D01*
X151804761Y-115871666D02*
X152519047Y-116109761D01*
X152519047Y-115490714D01*
%TO.C,J6*%
X164707380Y-128840952D02*
X163707380Y-128840952D01*
X163707380Y-128460000D01*
X163755000Y-128364761D01*
X163802619Y-128317142D01*
X163897857Y-128269523D01*
X164040714Y-128269523D01*
X164135952Y-128317142D01*
X164183571Y-128364761D01*
X164231190Y-128460000D01*
X164231190Y-128840952D01*
X164707380Y-127840952D02*
X164040714Y-127840952D01*
X163707380Y-127840952D02*
X163755000Y-127888571D01*
X163802619Y-127840952D01*
X163755000Y-127793333D01*
X163707380Y-127840952D01*
X163802619Y-127840952D01*
X164040714Y-127364761D02*
X164707380Y-127364761D01*
X164135952Y-127364761D02*
X164088333Y-127317142D01*
X164040714Y-127221904D01*
X164040714Y-127079047D01*
X164088333Y-126983809D01*
X164183571Y-126936190D01*
X164707380Y-126936190D01*
X164707380Y-125698095D02*
X163707380Y-125698095D01*
X164183571Y-125698095D02*
X164183571Y-125126666D01*
X164707380Y-125126666D02*
X163707380Y-125126666D01*
X164659761Y-124269523D02*
X164707380Y-124364761D01*
X164707380Y-124555238D01*
X164659761Y-124650476D01*
X164564523Y-124698095D01*
X164183571Y-124698095D01*
X164088333Y-124650476D01*
X164040714Y-124555238D01*
X164040714Y-124364761D01*
X164088333Y-124269523D01*
X164183571Y-124221904D01*
X164278809Y-124221904D01*
X164374047Y-124698095D01*
X164707380Y-123364761D02*
X164183571Y-123364761D01*
X164088333Y-123412380D01*
X164040714Y-123507619D01*
X164040714Y-123698095D01*
X164088333Y-123793333D01*
X164659761Y-123364761D02*
X164707380Y-123460000D01*
X164707380Y-123698095D01*
X164659761Y-123793333D01*
X164564523Y-123840952D01*
X164469285Y-123840952D01*
X164374047Y-123793333D01*
X164326428Y-123698095D01*
X164326428Y-123460000D01*
X164278809Y-123364761D01*
X164707380Y-122460000D02*
X163707380Y-122460000D01*
X164659761Y-122460000D02*
X164707380Y-122555238D01*
X164707380Y-122745714D01*
X164659761Y-122840952D01*
X164612142Y-122888571D01*
X164516904Y-122936190D01*
X164231190Y-122936190D01*
X164135952Y-122888571D01*
X164088333Y-122840952D01*
X164040714Y-122745714D01*
X164040714Y-122555238D01*
X164088333Y-122460000D01*
X164707380Y-121555238D02*
X163707380Y-121555238D01*
X164659761Y-121555238D02*
X164707380Y-121650476D01*
X164707380Y-121840952D01*
X164659761Y-121936190D01*
X164612142Y-121983809D01*
X164516904Y-122031428D01*
X164231190Y-122031428D01*
X164135952Y-121983809D01*
X164088333Y-121936190D01*
X164040714Y-121840952D01*
X164040714Y-121650476D01*
X164088333Y-121555238D01*
X164659761Y-120698095D02*
X164707380Y-120793333D01*
X164707380Y-120983809D01*
X164659761Y-121079047D01*
X164564523Y-121126666D01*
X164183571Y-121126666D01*
X164088333Y-121079047D01*
X164040714Y-120983809D01*
X164040714Y-120793333D01*
X164088333Y-120698095D01*
X164183571Y-120650476D01*
X164278809Y-120650476D01*
X164374047Y-121126666D01*
X164707380Y-120221904D02*
X164040714Y-120221904D01*
X164231190Y-120221904D02*
X164135952Y-120174285D01*
X164088333Y-120126666D01*
X164040714Y-120031428D01*
X164040714Y-119936190D01*
X160321666Y-123912380D02*
X160321666Y-124626666D01*
X160274047Y-124769523D01*
X160178809Y-124864761D01*
X160035952Y-124912380D01*
X159940714Y-124912380D01*
X161226428Y-123912380D02*
X161035952Y-123912380D01*
X160940714Y-123960000D01*
X160893095Y-124007619D01*
X160797857Y-124150476D01*
X160750238Y-124340952D01*
X160750238Y-124721904D01*
X160797857Y-124817142D01*
X160845476Y-124864761D01*
X160940714Y-124912380D01*
X161131190Y-124912380D01*
X161226428Y-124864761D01*
X161274047Y-124817142D01*
X161321666Y-124721904D01*
X161321666Y-124483809D01*
X161274047Y-124388571D01*
X161226428Y-124340952D01*
X161131190Y-124293333D01*
X160940714Y-124293333D01*
X160845476Y-124340952D01*
X160797857Y-124388571D01*
X160750238Y-124483809D01*
%TD*%
M02*
