%TF.GenerationSoftware,KiCad,Pcbnew,(5.1.9)-1*%
%TF.CreationDate,2021-10-27T02:20:14-05:00*%
%TF.ProjectId,BLDC_Cont,424c4443-5f43-46f6-9e74-2e6b69636164,rev?*%
%TF.SameCoordinates,Original*%
%TF.FileFunction,Paste,Bot*%
%TF.FilePolarity,Positive*%
%FSLAX46Y46*%
G04 Gerber Fmt 4.6, Leading zero omitted, Abs format (unit mm)*
G04 Created by KiCad (PCBNEW (5.1.9)-1) date 2021-10-27 02:20:14*
%MOMM*%
%LPD*%
G01*
G04 APERTURE LIST*
%ADD10R,0.900000X0.600000*%
%ADD11R,0.600000X0.900000*%
%ADD12R,0.600000X1.050000*%
%ADD13R,1.300000X1.200000*%
%ADD14R,0.950000X1.000000*%
G04 APERTURE END LIST*
D10*
%TO.C,Q1*%
X177165000Y-111375000D03*
D11*
X176565000Y-108675000D03*
D12*
X175255000Y-114395000D03*
X176525000Y-114395000D03*
X179075000Y-114395000D03*
X177805000Y-114395000D03*
D11*
X177765000Y-108675000D03*
X175285000Y-108675000D03*
X179045000Y-108675000D03*
D10*
X177165000Y-112225000D03*
X177165000Y-110525000D03*
X176015000Y-110525000D03*
X176015000Y-112225000D03*
X176015000Y-111375000D03*
X178315000Y-110525000D03*
X178315000Y-112225000D03*
X178315000Y-111375000D03*
%TD*%
D13*
%TO.C,D1*%
X183780000Y-108585000D03*
X181980000Y-108585000D03*
X183780000Y-110385000D03*
X183780000Y-112185000D03*
X181980000Y-110385000D03*
X181980000Y-112185000D03*
D14*
X183850000Y-114735000D03*
X181910000Y-114735000D03*
%TD*%
%TO.C,D2*%
X180640000Y-123095000D03*
X182580000Y-123095000D03*
D13*
X180710000Y-120545000D03*
X180710000Y-118745000D03*
X182510000Y-120545000D03*
X182510000Y-118745000D03*
X180710000Y-116945000D03*
X182510000Y-116945000D03*
%TD*%
D10*
%TO.C,Q2*%
X177045000Y-119630000D03*
X177045000Y-120480000D03*
X177045000Y-118780000D03*
X174745000Y-119630000D03*
X174745000Y-120480000D03*
X174745000Y-118780000D03*
X175895000Y-118780000D03*
X175895000Y-120480000D03*
D11*
X177775000Y-116930000D03*
X174015000Y-116930000D03*
X176495000Y-116930000D03*
D12*
X176535000Y-122650000D03*
X177805000Y-122650000D03*
X175255000Y-122650000D03*
X173985000Y-122650000D03*
D11*
X175295000Y-116930000D03*
D10*
X175895000Y-119630000D03*
%TD*%
%TO.C,R1*%
G36*
G01*
X172075001Y-116500000D02*
X170824999Y-116500000D01*
G75*
G02*
X170575000Y-116250001I0J249999D01*
G01*
X170575000Y-115449999D01*
G75*
G02*
X170824999Y-115200000I249999J0D01*
G01*
X172075001Y-115200000D01*
G75*
G02*
X172325000Y-115449999I0J-249999D01*
G01*
X172325000Y-116250001D01*
G75*
G02*
X172075001Y-116500000I-249999J0D01*
G01*
G37*
G36*
G01*
X172075001Y-113400000D02*
X170824999Y-113400000D01*
G75*
G02*
X170575000Y-113150001I0J249999D01*
G01*
X170575000Y-112349999D01*
G75*
G02*
X170824999Y-112100000I249999J0D01*
G01*
X172075001Y-112100000D01*
G75*
G02*
X172325000Y-112349999I0J-249999D01*
G01*
X172325000Y-113150001D01*
G75*
G02*
X172075001Y-113400000I-249999J0D01*
G01*
G37*
%TD*%
%TO.C,R2*%
G36*
G01*
X172075001Y-120385000D02*
X170824999Y-120385000D01*
G75*
G02*
X170575000Y-120135001I0J249999D01*
G01*
X170575000Y-119334999D01*
G75*
G02*
X170824999Y-119085000I249999J0D01*
G01*
X172075001Y-119085000D01*
G75*
G02*
X172325000Y-119334999I0J-249999D01*
G01*
X172325000Y-120135001D01*
G75*
G02*
X172075001Y-120385000I-249999J0D01*
G01*
G37*
G36*
G01*
X172075001Y-123485000D02*
X170824999Y-123485000D01*
G75*
G02*
X170575000Y-123235001I0J249999D01*
G01*
X170575000Y-122434999D01*
G75*
G02*
X170824999Y-122185000I249999J0D01*
G01*
X172075001Y-122185000D01*
G75*
G02*
X172325000Y-122434999I0J-249999D01*
G01*
X172325000Y-123235001D01*
G75*
G02*
X172075001Y-123485000I-249999J0D01*
G01*
G37*
%TD*%
M02*
