%TF.GenerationSoftware,KiCad,Pcbnew,(5.1.9)-1*%
%TF.CreationDate,2021-10-27T02:20:14-05:00*%
%TF.ProjectId,BLDC_Cont,424c4443-5f43-46f6-9e74-2e6b69636164,rev?*%
%TF.SameCoordinates,Original*%
%TF.FileFunction,Copper,L3,Inr*%
%TF.FilePolarity,Positive*%
%FSLAX46Y46*%
G04 Gerber Fmt 4.6, Leading zero omitted, Abs format (unit mm)*
G04 Created by KiCad (PCBNEW (5.1.9)-1) date 2021-10-27 02:20:14*
%MOMM*%
%LPD*%
G01*
G04 APERTURE LIST*
%TA.AperFunction,ComponentPad*%
%ADD10C,4.000000*%
%TD*%
%TA.AperFunction,ComponentPad*%
%ADD11R,4.000000X4.000000*%
%TD*%
%TA.AperFunction,ComponentPad*%
%ADD12R,1.600000X1.600000*%
%TD*%
%TA.AperFunction,ComponentPad*%
%ADD13C,1.600000*%
%TD*%
%TA.AperFunction,ComponentPad*%
%ADD14R,1.700000X1.700000*%
%TD*%
%TA.AperFunction,ComponentPad*%
%ADD15O,1.700000X1.700000*%
%TD*%
%TA.AperFunction,ViaPad*%
%ADD16C,0.800000*%
%TD*%
%TA.AperFunction,Conductor*%
%ADD17C,1.000000*%
%TD*%
%TA.AperFunction,Conductor*%
%ADD18C,0.254000*%
%TD*%
%TA.AperFunction,Conductor*%
%ADD19C,0.100000*%
%TD*%
G04 APERTURE END LIST*
D10*
%TO.N,GND*%
%TO.C,C7*%
X187960000Y-120490000D03*
D11*
%TO.N,+VDC*%
X187960000Y-110490000D03*
%TD*%
D12*
%TO.N,/VDD*%
%TO.C,C6*%
X173990000Y-106045000D03*
D13*
%TO.N,/PHASE*%
X176490000Y-106045000D03*
%TD*%
D14*
%TO.N,+12V*%
%TO.C,J4*%
X161290000Y-112395000D03*
D15*
%TO.N,/PWM_A*%
X161290000Y-114935000D03*
%TO.N,/PWM_B*%
X161290000Y-117475000D03*
%TO.N,+5VD*%
X161290000Y-120015000D03*
%TO.N,GNDD*%
X161290000Y-122555000D03*
%TD*%
D16*
%TO.N,GND*%
X167005000Y-125095000D03*
X165735000Y-125095000D03*
X164465000Y-125095000D03*
X168275000Y-125095000D03*
X169545000Y-125095000D03*
X170815000Y-125095000D03*
X172085000Y-125095000D03*
X173355000Y-125095000D03*
X174625000Y-125095000D03*
X175895000Y-125095000D03*
X177165000Y-125095000D03*
X178435000Y-125095000D03*
X179705000Y-125095000D03*
X180975000Y-125095000D03*
X182245000Y-125095000D03*
X183515000Y-125095000D03*
X184785000Y-125095000D03*
X186055000Y-125095000D03*
X187325000Y-125095000D03*
%TO.N,/PHASE*%
X176525000Y-114395000D03*
X177805000Y-114395000D03*
X179075000Y-114395000D03*
X181610000Y-114395000D03*
X184055000Y-114395000D03*
%TO.N,/V_OH*%
X173990000Y-114300000D03*
X172655000Y-114300000D03*
X171450000Y-114300000D03*
%TO.N,/V_OL*%
X172720000Y-120650000D03*
X171450000Y-120650000D03*
X170180000Y-121285000D03*
%TD*%
D17*
%TO.N,/PHASE*%
X176490000Y-114360000D02*
X176525000Y-114395000D01*
X176490000Y-106045000D02*
X176490000Y-114360000D01*
X176525000Y-114395000D02*
X177805000Y-114395000D01*
X177805000Y-114395000D02*
X179075000Y-114395000D01*
X179075000Y-114395000D02*
X180245000Y-114395000D01*
X180245000Y-114395000D02*
X181515000Y-114395000D01*
X181515000Y-114395000D02*
X181755000Y-114395000D01*
X181515000Y-114395000D02*
X182785000Y-114395000D01*
X182785000Y-114395000D02*
X184055000Y-114395000D01*
X184055000Y-114395000D02*
X184055000Y-114395000D01*
%TD*%
D18*
%TO.N,GND*%
X189738000Y-125603000D02*
X163957000Y-125603000D01*
X163957000Y-123317000D01*
X170180000Y-123317000D01*
X170204776Y-123314560D01*
X170228601Y-123307333D01*
X170250557Y-123295597D01*
X170269803Y-123279803D01*
X172067268Y-121482338D01*
X172085000Y-121470490D01*
X172229744Y-121567205D01*
X172418102Y-121645226D01*
X172618061Y-121685000D01*
X172821939Y-121685000D01*
X173021898Y-121645226D01*
X173210256Y-121567205D01*
X173379774Y-121453937D01*
X173523937Y-121309774D01*
X173552340Y-121267266D01*
X175312606Y-119507000D01*
X179705000Y-119507000D01*
X179729776Y-119504560D01*
X179753601Y-119497333D01*
X179775557Y-119485597D01*
X179794803Y-119469803D01*
X179810597Y-119450557D01*
X179822333Y-119428601D01*
X179829560Y-119404776D01*
X179832000Y-119380000D01*
X179832000Y-116332000D01*
X189738000Y-116332000D01*
X189738000Y-125603000D01*
%TA.AperFunction,Conductor*%
D19*
G36*
X189738000Y-125603000D02*
G01*
X163957000Y-125603000D01*
X163957000Y-123317000D01*
X170180000Y-123317000D01*
X170204776Y-123314560D01*
X170228601Y-123307333D01*
X170250557Y-123295597D01*
X170269803Y-123279803D01*
X172067268Y-121482338D01*
X172085000Y-121470490D01*
X172229744Y-121567205D01*
X172418102Y-121645226D01*
X172618061Y-121685000D01*
X172821939Y-121685000D01*
X173021898Y-121645226D01*
X173210256Y-121567205D01*
X173379774Y-121453937D01*
X173523937Y-121309774D01*
X173552340Y-121267266D01*
X175312606Y-119507000D01*
X179705000Y-119507000D01*
X179729776Y-119504560D01*
X179753601Y-119497333D01*
X179775557Y-119485597D01*
X179794803Y-119469803D01*
X179810597Y-119450557D01*
X179822333Y-119428601D01*
X179829560Y-119404776D01*
X179832000Y-119380000D01*
X179832000Y-116332000D01*
X189738000Y-116332000D01*
X189738000Y-125603000D01*
G37*
%TD.AperFunction*%
%TD*%
D18*
%TO.N,GNDD*%
X170053000Y-120254985D02*
X169878102Y-120289774D01*
X169689744Y-120367795D01*
X169520226Y-120481063D01*
X169376063Y-120625226D01*
X169262795Y-120794744D01*
X169184774Y-120983102D01*
X169145000Y-121183061D01*
X169145000Y-121386939D01*
X169184774Y-121586898D01*
X169262795Y-121775256D01*
X169376063Y-121944774D01*
X169520226Y-122088937D01*
X169689744Y-122202205D01*
X169878102Y-122280226D01*
X170053000Y-122315015D01*
X170053000Y-122428000D01*
X163195000Y-122428000D01*
X163170224Y-122430440D01*
X163146399Y-122437667D01*
X163124443Y-122449403D01*
X163105197Y-122465197D01*
X163089403Y-122484443D01*
X163077667Y-122506399D01*
X163070440Y-122530224D01*
X163068000Y-122555000D01*
X163068000Y-125603000D01*
X160147000Y-125603000D01*
X160147000Y-120972107D01*
X160343368Y-121168475D01*
X160586589Y-121330990D01*
X160856842Y-121442932D01*
X161143740Y-121500000D01*
X161436260Y-121500000D01*
X161723158Y-121442932D01*
X161993411Y-121330990D01*
X162236632Y-121168475D01*
X162443475Y-120961632D01*
X162605990Y-120718411D01*
X162717932Y-120448158D01*
X162775000Y-120161260D01*
X162775000Y-119868740D01*
X162717932Y-119581842D01*
X162605990Y-119311589D01*
X162443475Y-119068368D01*
X162236632Y-118861525D01*
X162062240Y-118745000D01*
X162236632Y-118628475D01*
X162443475Y-118421632D01*
X162605990Y-118178411D01*
X162717932Y-117908158D01*
X162775000Y-117621260D01*
X162775000Y-117328740D01*
X162717932Y-117041842D01*
X162605990Y-116771589D01*
X162443475Y-116528368D01*
X162236632Y-116321525D01*
X162062240Y-116205000D01*
X162236632Y-116088475D01*
X162443475Y-115881632D01*
X162605990Y-115638411D01*
X162717932Y-115368158D01*
X162775000Y-115081260D01*
X162775000Y-114788740D01*
X162717932Y-114501842D01*
X162605990Y-114231589D01*
X162443475Y-113988368D01*
X162311620Y-113856513D01*
X162384180Y-113834502D01*
X162494494Y-113775537D01*
X162591185Y-113696185D01*
X162670537Y-113599494D01*
X162729502Y-113489180D01*
X162765812Y-113369482D01*
X162778072Y-113245000D01*
X162778072Y-111545000D01*
X162765812Y-111420518D01*
X162729502Y-111300820D01*
X162703407Y-111252000D01*
X170053000Y-111252000D01*
X170053000Y-120254985D01*
%TA.AperFunction,Conductor*%
D19*
G36*
X170053000Y-120254985D02*
G01*
X169878102Y-120289774D01*
X169689744Y-120367795D01*
X169520226Y-120481063D01*
X169376063Y-120625226D01*
X169262795Y-120794744D01*
X169184774Y-120983102D01*
X169145000Y-121183061D01*
X169145000Y-121386939D01*
X169184774Y-121586898D01*
X169262795Y-121775256D01*
X169376063Y-121944774D01*
X169520226Y-122088937D01*
X169689744Y-122202205D01*
X169878102Y-122280226D01*
X170053000Y-122315015D01*
X170053000Y-122428000D01*
X163195000Y-122428000D01*
X163170224Y-122430440D01*
X163146399Y-122437667D01*
X163124443Y-122449403D01*
X163105197Y-122465197D01*
X163089403Y-122484443D01*
X163077667Y-122506399D01*
X163070440Y-122530224D01*
X163068000Y-122555000D01*
X163068000Y-125603000D01*
X160147000Y-125603000D01*
X160147000Y-120972107D01*
X160343368Y-121168475D01*
X160586589Y-121330990D01*
X160856842Y-121442932D01*
X161143740Y-121500000D01*
X161436260Y-121500000D01*
X161723158Y-121442932D01*
X161993411Y-121330990D01*
X162236632Y-121168475D01*
X162443475Y-120961632D01*
X162605990Y-120718411D01*
X162717932Y-120448158D01*
X162775000Y-120161260D01*
X162775000Y-119868740D01*
X162717932Y-119581842D01*
X162605990Y-119311589D01*
X162443475Y-119068368D01*
X162236632Y-118861525D01*
X162062240Y-118745000D01*
X162236632Y-118628475D01*
X162443475Y-118421632D01*
X162605990Y-118178411D01*
X162717932Y-117908158D01*
X162775000Y-117621260D01*
X162775000Y-117328740D01*
X162717932Y-117041842D01*
X162605990Y-116771589D01*
X162443475Y-116528368D01*
X162236632Y-116321525D01*
X162062240Y-116205000D01*
X162236632Y-116088475D01*
X162443475Y-115881632D01*
X162605990Y-115638411D01*
X162717932Y-115368158D01*
X162775000Y-115081260D01*
X162775000Y-114788740D01*
X162717932Y-114501842D01*
X162605990Y-114231589D01*
X162443475Y-113988368D01*
X162311620Y-113856513D01*
X162384180Y-113834502D01*
X162494494Y-113775537D01*
X162591185Y-113696185D01*
X162670537Y-113599494D01*
X162729502Y-113489180D01*
X162765812Y-113369482D01*
X162778072Y-113245000D01*
X162778072Y-111545000D01*
X162765812Y-111420518D01*
X162729502Y-111300820D01*
X162703407Y-111252000D01*
X170053000Y-111252000D01*
X170053000Y-120254985D01*
G37*
%TD.AperFunction*%
%TD*%
M02*
