%TF.GenerationSoftware,KiCad,Pcbnew,(5.1.9)-1*%
%TF.CreationDate,2021-10-27T02:20:13-05:00*%
%TF.ProjectId,BLDC_Cont,424c4443-5f43-46f6-9e74-2e6b69636164,rev?*%
%TF.SameCoordinates,Original*%
%TF.FileFunction,Copper,L2,Inr*%
%TF.FilePolarity,Positive*%
%FSLAX46Y46*%
G04 Gerber Fmt 4.6, Leading zero omitted, Abs format (unit mm)*
G04 Created by KiCad (PCBNEW (5.1.9)-1) date 2021-10-27 02:20:14*
%MOMM*%
%LPD*%
G01*
G04 APERTURE LIST*
%TA.AperFunction,ComponentPad*%
%ADD10C,4.000000*%
%TD*%
%TA.AperFunction,ComponentPad*%
%ADD11R,4.000000X4.000000*%
%TD*%
%TA.AperFunction,ComponentPad*%
%ADD12R,1.600000X1.600000*%
%TD*%
%TA.AperFunction,ComponentPad*%
%ADD13C,1.600000*%
%TD*%
%TA.AperFunction,ComponentPad*%
%ADD14R,1.700000X1.700000*%
%TD*%
%TA.AperFunction,ComponentPad*%
%ADD15O,1.700000X1.700000*%
%TD*%
%TA.AperFunction,ViaPad*%
%ADD16C,0.800000*%
%TD*%
%TA.AperFunction,Conductor*%
%ADD17C,0.254000*%
%TD*%
%TA.AperFunction,Conductor*%
%ADD18C,0.100000*%
%TD*%
G04 APERTURE END LIST*
D10*
%TO.N,GND*%
%TO.C,C7*%
X187960000Y-120490000D03*
D11*
%TO.N,+VDC*%
X187960000Y-110490000D03*
%TD*%
D12*
%TO.N,/VDD*%
%TO.C,C6*%
X173990000Y-106045000D03*
D13*
%TO.N,/PHASE*%
X176490000Y-106045000D03*
%TD*%
D14*
%TO.N,+12V*%
%TO.C,J4*%
X161290000Y-112395000D03*
D15*
%TO.N,/PWM_A*%
X161290000Y-114935000D03*
%TO.N,/PWM_B*%
X161290000Y-117475000D03*
%TO.N,+5VD*%
X161290000Y-120015000D03*
%TO.N,GNDD*%
X161290000Y-122555000D03*
%TD*%
D16*
%TO.N,GND*%
X167005000Y-125095000D03*
X165735000Y-125095000D03*
X164465000Y-125095000D03*
X168275000Y-125095000D03*
X169545000Y-125095000D03*
X170815000Y-125095000D03*
X172085000Y-125095000D03*
X173355000Y-125095000D03*
X174625000Y-125095000D03*
X175895000Y-125095000D03*
X177165000Y-125095000D03*
X178435000Y-125095000D03*
X179705000Y-125095000D03*
X180975000Y-125095000D03*
X182245000Y-125095000D03*
X183515000Y-125095000D03*
X184785000Y-125095000D03*
X186055000Y-125095000D03*
X187325000Y-125095000D03*
%TO.N,/PHASE*%
X176525000Y-114395000D03*
X177805000Y-114395000D03*
X179075000Y-114395000D03*
X181610000Y-114395000D03*
X184055000Y-114395000D03*
%TO.N,/V_OH*%
X173990000Y-114300000D03*
X172655000Y-114300000D03*
X171450000Y-114300000D03*
%TO.N,/V_OL*%
X172720000Y-120650000D03*
X171450000Y-120650000D03*
X170180000Y-121285000D03*
%TD*%
D17*
%TO.N,GNDD*%
X170053000Y-120254985D02*
X169878102Y-120289774D01*
X169689744Y-120367795D01*
X169520226Y-120481063D01*
X169376063Y-120625226D01*
X169262795Y-120794744D01*
X169184774Y-120983102D01*
X169145000Y-121183061D01*
X169145000Y-121386939D01*
X169184774Y-121586898D01*
X169262795Y-121775256D01*
X169376063Y-121944774D01*
X169520226Y-122088937D01*
X169689744Y-122202205D01*
X169878102Y-122280226D01*
X170053000Y-122315015D01*
X170053000Y-123698000D01*
X160147000Y-123698000D01*
X160147000Y-120972107D01*
X160343368Y-121168475D01*
X160586589Y-121330990D01*
X160856842Y-121442932D01*
X161143740Y-121500000D01*
X161436260Y-121500000D01*
X161723158Y-121442932D01*
X161993411Y-121330990D01*
X162236632Y-121168475D01*
X162443475Y-120961632D01*
X162605990Y-120718411D01*
X162717932Y-120448158D01*
X162775000Y-120161260D01*
X162775000Y-119868740D01*
X162717932Y-119581842D01*
X162605990Y-119311589D01*
X162443475Y-119068368D01*
X162236632Y-118861525D01*
X162062240Y-118745000D01*
X162236632Y-118628475D01*
X162443475Y-118421632D01*
X162605990Y-118178411D01*
X162717932Y-117908158D01*
X162775000Y-117621260D01*
X162775000Y-117328740D01*
X162717932Y-117041842D01*
X162605990Y-116771589D01*
X162443475Y-116528368D01*
X162236632Y-116321525D01*
X162062240Y-116205000D01*
X162236632Y-116088475D01*
X162443475Y-115881632D01*
X162605990Y-115638411D01*
X162717932Y-115368158D01*
X162775000Y-115081260D01*
X162775000Y-114788740D01*
X162717932Y-114501842D01*
X162605990Y-114231589D01*
X162443475Y-113988368D01*
X162311620Y-113856513D01*
X162384180Y-113834502D01*
X162494494Y-113775537D01*
X162591185Y-113696185D01*
X162670537Y-113599494D01*
X162729502Y-113489180D01*
X162765812Y-113369482D01*
X162778072Y-113245000D01*
X162778072Y-111887000D01*
X170053000Y-111887000D01*
X170053000Y-120254985D01*
%TA.AperFunction,Conductor*%
D18*
G36*
X170053000Y-120254985D02*
G01*
X169878102Y-120289774D01*
X169689744Y-120367795D01*
X169520226Y-120481063D01*
X169376063Y-120625226D01*
X169262795Y-120794744D01*
X169184774Y-120983102D01*
X169145000Y-121183061D01*
X169145000Y-121386939D01*
X169184774Y-121586898D01*
X169262795Y-121775256D01*
X169376063Y-121944774D01*
X169520226Y-122088937D01*
X169689744Y-122202205D01*
X169878102Y-122280226D01*
X170053000Y-122315015D01*
X170053000Y-123698000D01*
X160147000Y-123698000D01*
X160147000Y-120972107D01*
X160343368Y-121168475D01*
X160586589Y-121330990D01*
X160856842Y-121442932D01*
X161143740Y-121500000D01*
X161436260Y-121500000D01*
X161723158Y-121442932D01*
X161993411Y-121330990D01*
X162236632Y-121168475D01*
X162443475Y-120961632D01*
X162605990Y-120718411D01*
X162717932Y-120448158D01*
X162775000Y-120161260D01*
X162775000Y-119868740D01*
X162717932Y-119581842D01*
X162605990Y-119311589D01*
X162443475Y-119068368D01*
X162236632Y-118861525D01*
X162062240Y-118745000D01*
X162236632Y-118628475D01*
X162443475Y-118421632D01*
X162605990Y-118178411D01*
X162717932Y-117908158D01*
X162775000Y-117621260D01*
X162775000Y-117328740D01*
X162717932Y-117041842D01*
X162605990Y-116771589D01*
X162443475Y-116528368D01*
X162236632Y-116321525D01*
X162062240Y-116205000D01*
X162236632Y-116088475D01*
X162443475Y-115881632D01*
X162605990Y-115638411D01*
X162717932Y-115368158D01*
X162775000Y-115081260D01*
X162775000Y-114788740D01*
X162717932Y-114501842D01*
X162605990Y-114231589D01*
X162443475Y-113988368D01*
X162311620Y-113856513D01*
X162384180Y-113834502D01*
X162494494Y-113775537D01*
X162591185Y-113696185D01*
X162670537Y-113599494D01*
X162729502Y-113489180D01*
X162765812Y-113369482D01*
X162778072Y-113245000D01*
X162778072Y-111887000D01*
X170053000Y-111887000D01*
X170053000Y-120254985D01*
G37*
%TD.AperFunction*%
%TD*%
D17*
%TO.N,GND*%
X172551928Y-106845000D02*
X172564188Y-106969482D01*
X172600498Y-107089180D01*
X172659463Y-107199494D01*
X172738815Y-107296185D01*
X172835506Y-107375537D01*
X172945820Y-107434502D01*
X173065518Y-107470812D01*
X173190000Y-107483072D01*
X174790000Y-107483072D01*
X174914482Y-107470812D01*
X175034180Y-107434502D01*
X175144494Y-107375537D01*
X175241185Y-107296185D01*
X175320537Y-107199494D01*
X175379502Y-107089180D01*
X175408661Y-106993057D01*
X175575241Y-107159637D01*
X175810273Y-107316680D01*
X176071426Y-107424853D01*
X176348665Y-107480000D01*
X176631335Y-107480000D01*
X176908574Y-107424853D01*
X177169727Y-107316680D01*
X177404759Y-107159637D01*
X177604637Y-106959759D01*
X177761680Y-106724727D01*
X177869853Y-106463574D01*
X177925000Y-106186335D01*
X177925000Y-105903665D01*
X177869853Y-105626426D01*
X177832812Y-105537000D01*
X189738000Y-105537000D01*
X189738000Y-107851928D01*
X185960000Y-107851928D01*
X185835518Y-107864188D01*
X185715820Y-107900498D01*
X185605506Y-107959463D01*
X185508815Y-108038815D01*
X185429463Y-108135506D01*
X185370498Y-108245820D01*
X185334188Y-108365518D01*
X185321928Y-108490000D01*
X185321928Y-112490000D01*
X185334188Y-112614482D01*
X185370498Y-112734180D01*
X185429463Y-112844494D01*
X185508815Y-112941185D01*
X185605506Y-113020537D01*
X185715820Y-113079502D01*
X185835518Y-113115812D01*
X185960000Y-113128072D01*
X189738000Y-113128072D01*
X189738000Y-118532392D01*
X189627893Y-118642499D01*
X189411772Y-118275742D01*
X188951895Y-118035062D01*
X188453902Y-117888725D01*
X187936929Y-117842352D01*
X187420841Y-117897727D01*
X186925474Y-118052721D01*
X186508228Y-118275742D01*
X186292106Y-118642501D01*
X187960000Y-120310395D01*
X187974143Y-120296253D01*
X188153748Y-120475858D01*
X188139605Y-120490000D01*
X188153748Y-120504143D01*
X187974143Y-120683748D01*
X187960000Y-120669605D01*
X186292106Y-122337499D01*
X186508228Y-122704258D01*
X186968105Y-122944938D01*
X187466098Y-123091275D01*
X187983071Y-123137648D01*
X188499159Y-123082273D01*
X188994526Y-122927279D01*
X189411772Y-122704258D01*
X189627893Y-122337501D01*
X189738000Y-122447608D01*
X189738000Y-125603000D01*
X172212000Y-125603000D01*
X172212000Y-121555349D01*
X172229744Y-121567205D01*
X172418102Y-121645226D01*
X172618061Y-121685000D01*
X172821939Y-121685000D01*
X173021898Y-121645226D01*
X173210256Y-121567205D01*
X173379774Y-121453937D01*
X173523937Y-121309774D01*
X173637205Y-121140256D01*
X173715226Y-120951898D01*
X173755000Y-120751939D01*
X173755000Y-120548061D01*
X173748041Y-120513071D01*
X185312352Y-120513071D01*
X185367727Y-121029159D01*
X185522721Y-121524526D01*
X185745742Y-121941772D01*
X186112501Y-122157894D01*
X187780395Y-120490000D01*
X186112501Y-118822106D01*
X185745742Y-119038228D01*
X185505062Y-119498105D01*
X185358725Y-119996098D01*
X185312352Y-120513071D01*
X173748041Y-120513071D01*
X173715226Y-120348102D01*
X173637205Y-120159744D01*
X173523937Y-119990226D01*
X173379774Y-119846063D01*
X173210256Y-119732795D01*
X173021898Y-119654774D01*
X172821939Y-119615000D01*
X172618061Y-119615000D01*
X172418102Y-119654774D01*
X172229744Y-119732795D01*
X172212000Y-119744651D01*
X172212000Y-115236779D01*
X172353102Y-115295226D01*
X172553061Y-115335000D01*
X172756939Y-115335000D01*
X172956898Y-115295226D01*
X173145256Y-115217205D01*
X173314774Y-115103937D01*
X173322500Y-115096211D01*
X173330226Y-115103937D01*
X173499744Y-115217205D01*
X173688102Y-115295226D01*
X173888061Y-115335000D01*
X174091939Y-115335000D01*
X174291898Y-115295226D01*
X174480256Y-115217205D01*
X174649774Y-115103937D01*
X174793937Y-114959774D01*
X174907205Y-114790256D01*
X174985226Y-114601898D01*
X175025000Y-114401939D01*
X175025000Y-114293061D01*
X175490000Y-114293061D01*
X175490000Y-114496939D01*
X175529774Y-114696898D01*
X175607795Y-114885256D01*
X175721063Y-115054774D01*
X175865226Y-115198937D01*
X176034744Y-115312205D01*
X176223102Y-115390226D01*
X176423061Y-115430000D01*
X176626939Y-115430000D01*
X176826898Y-115390226D01*
X177015256Y-115312205D01*
X177165000Y-115212150D01*
X177314744Y-115312205D01*
X177503102Y-115390226D01*
X177703061Y-115430000D01*
X177906939Y-115430000D01*
X178106898Y-115390226D01*
X178295256Y-115312205D01*
X178440000Y-115215490D01*
X178584744Y-115312205D01*
X178773102Y-115390226D01*
X178973061Y-115430000D01*
X179176939Y-115430000D01*
X179376898Y-115390226D01*
X179565256Y-115312205D01*
X179734774Y-115198937D01*
X179878937Y-115054774D01*
X179992205Y-114885256D01*
X180070226Y-114696898D01*
X180110000Y-114496939D01*
X180110000Y-114293061D01*
X180575000Y-114293061D01*
X180575000Y-114496939D01*
X180614774Y-114696898D01*
X180692795Y-114885256D01*
X180806063Y-115054774D01*
X180950226Y-115198937D01*
X181119744Y-115312205D01*
X181308102Y-115390226D01*
X181508061Y-115430000D01*
X181711939Y-115430000D01*
X181911898Y-115390226D01*
X182100256Y-115312205D01*
X182269774Y-115198937D01*
X182413937Y-115054774D01*
X182527205Y-114885256D01*
X182605226Y-114696898D01*
X182645000Y-114496939D01*
X182645000Y-114293061D01*
X183020000Y-114293061D01*
X183020000Y-114496939D01*
X183059774Y-114696898D01*
X183137795Y-114885256D01*
X183251063Y-115054774D01*
X183395226Y-115198937D01*
X183564744Y-115312205D01*
X183753102Y-115390226D01*
X183953061Y-115430000D01*
X184156939Y-115430000D01*
X184356898Y-115390226D01*
X184545256Y-115312205D01*
X184714774Y-115198937D01*
X184858937Y-115054774D01*
X184972205Y-114885256D01*
X185050226Y-114696898D01*
X185090000Y-114496939D01*
X185090000Y-114293061D01*
X185050226Y-114093102D01*
X184972205Y-113904744D01*
X184858937Y-113735226D01*
X184714774Y-113591063D01*
X184545256Y-113477795D01*
X184356898Y-113399774D01*
X184156939Y-113360000D01*
X183953061Y-113360000D01*
X183753102Y-113399774D01*
X183564744Y-113477795D01*
X183395226Y-113591063D01*
X183251063Y-113735226D01*
X183137795Y-113904744D01*
X183059774Y-114093102D01*
X183020000Y-114293061D01*
X182645000Y-114293061D01*
X182605226Y-114093102D01*
X182527205Y-113904744D01*
X182413937Y-113735226D01*
X182269774Y-113591063D01*
X182100256Y-113477795D01*
X181911898Y-113399774D01*
X181711939Y-113360000D01*
X181508061Y-113360000D01*
X181308102Y-113399774D01*
X181119744Y-113477795D01*
X180950226Y-113591063D01*
X180806063Y-113735226D01*
X180692795Y-113904744D01*
X180614774Y-114093102D01*
X180575000Y-114293061D01*
X180110000Y-114293061D01*
X180070226Y-114093102D01*
X179992205Y-113904744D01*
X179878937Y-113735226D01*
X179734774Y-113591063D01*
X179565256Y-113477795D01*
X179376898Y-113399774D01*
X179176939Y-113360000D01*
X178973061Y-113360000D01*
X178773102Y-113399774D01*
X178584744Y-113477795D01*
X178440000Y-113574510D01*
X178295256Y-113477795D01*
X178106898Y-113399774D01*
X177906939Y-113360000D01*
X177703061Y-113360000D01*
X177503102Y-113399774D01*
X177314744Y-113477795D01*
X177165000Y-113577850D01*
X177015256Y-113477795D01*
X176826898Y-113399774D01*
X176626939Y-113360000D01*
X176423061Y-113360000D01*
X176223102Y-113399774D01*
X176034744Y-113477795D01*
X175865226Y-113591063D01*
X175721063Y-113735226D01*
X175607795Y-113904744D01*
X175529774Y-114093102D01*
X175490000Y-114293061D01*
X175025000Y-114293061D01*
X175025000Y-114198061D01*
X174985226Y-113998102D01*
X174907205Y-113809744D01*
X174793937Y-113640226D01*
X174649774Y-113496063D01*
X174480256Y-113382795D01*
X174291898Y-113304774D01*
X174091939Y-113265000D01*
X173888061Y-113265000D01*
X173688102Y-113304774D01*
X173499744Y-113382795D01*
X173330226Y-113496063D01*
X173322500Y-113503789D01*
X173314774Y-113496063D01*
X173145256Y-113382795D01*
X172956898Y-113304774D01*
X172756939Y-113265000D01*
X172553061Y-113265000D01*
X172353102Y-113304774D01*
X172212000Y-113363221D01*
X172212000Y-110490000D01*
X172209560Y-110465224D01*
X172202333Y-110441399D01*
X172190597Y-110419443D01*
X172174803Y-110400197D01*
X172155557Y-110384403D01*
X172133601Y-110372667D01*
X172109776Y-110365440D01*
X172085000Y-110363000D01*
X160147000Y-110363000D01*
X160147000Y-105537000D01*
X172551928Y-105537000D01*
X172551928Y-106845000D01*
%TA.AperFunction,Conductor*%
D18*
G36*
X172551928Y-106845000D02*
G01*
X172564188Y-106969482D01*
X172600498Y-107089180D01*
X172659463Y-107199494D01*
X172738815Y-107296185D01*
X172835506Y-107375537D01*
X172945820Y-107434502D01*
X173065518Y-107470812D01*
X173190000Y-107483072D01*
X174790000Y-107483072D01*
X174914482Y-107470812D01*
X175034180Y-107434502D01*
X175144494Y-107375537D01*
X175241185Y-107296185D01*
X175320537Y-107199494D01*
X175379502Y-107089180D01*
X175408661Y-106993057D01*
X175575241Y-107159637D01*
X175810273Y-107316680D01*
X176071426Y-107424853D01*
X176348665Y-107480000D01*
X176631335Y-107480000D01*
X176908574Y-107424853D01*
X177169727Y-107316680D01*
X177404759Y-107159637D01*
X177604637Y-106959759D01*
X177761680Y-106724727D01*
X177869853Y-106463574D01*
X177925000Y-106186335D01*
X177925000Y-105903665D01*
X177869853Y-105626426D01*
X177832812Y-105537000D01*
X189738000Y-105537000D01*
X189738000Y-107851928D01*
X185960000Y-107851928D01*
X185835518Y-107864188D01*
X185715820Y-107900498D01*
X185605506Y-107959463D01*
X185508815Y-108038815D01*
X185429463Y-108135506D01*
X185370498Y-108245820D01*
X185334188Y-108365518D01*
X185321928Y-108490000D01*
X185321928Y-112490000D01*
X185334188Y-112614482D01*
X185370498Y-112734180D01*
X185429463Y-112844494D01*
X185508815Y-112941185D01*
X185605506Y-113020537D01*
X185715820Y-113079502D01*
X185835518Y-113115812D01*
X185960000Y-113128072D01*
X189738000Y-113128072D01*
X189738000Y-118532392D01*
X189627893Y-118642499D01*
X189411772Y-118275742D01*
X188951895Y-118035062D01*
X188453902Y-117888725D01*
X187936929Y-117842352D01*
X187420841Y-117897727D01*
X186925474Y-118052721D01*
X186508228Y-118275742D01*
X186292106Y-118642501D01*
X187960000Y-120310395D01*
X187974143Y-120296253D01*
X188153748Y-120475858D01*
X188139605Y-120490000D01*
X188153748Y-120504143D01*
X187974143Y-120683748D01*
X187960000Y-120669605D01*
X186292106Y-122337499D01*
X186508228Y-122704258D01*
X186968105Y-122944938D01*
X187466098Y-123091275D01*
X187983071Y-123137648D01*
X188499159Y-123082273D01*
X188994526Y-122927279D01*
X189411772Y-122704258D01*
X189627893Y-122337501D01*
X189738000Y-122447608D01*
X189738000Y-125603000D01*
X172212000Y-125603000D01*
X172212000Y-121555349D01*
X172229744Y-121567205D01*
X172418102Y-121645226D01*
X172618061Y-121685000D01*
X172821939Y-121685000D01*
X173021898Y-121645226D01*
X173210256Y-121567205D01*
X173379774Y-121453937D01*
X173523937Y-121309774D01*
X173637205Y-121140256D01*
X173715226Y-120951898D01*
X173755000Y-120751939D01*
X173755000Y-120548061D01*
X173748041Y-120513071D01*
X185312352Y-120513071D01*
X185367727Y-121029159D01*
X185522721Y-121524526D01*
X185745742Y-121941772D01*
X186112501Y-122157894D01*
X187780395Y-120490000D01*
X186112501Y-118822106D01*
X185745742Y-119038228D01*
X185505062Y-119498105D01*
X185358725Y-119996098D01*
X185312352Y-120513071D01*
X173748041Y-120513071D01*
X173715226Y-120348102D01*
X173637205Y-120159744D01*
X173523937Y-119990226D01*
X173379774Y-119846063D01*
X173210256Y-119732795D01*
X173021898Y-119654774D01*
X172821939Y-119615000D01*
X172618061Y-119615000D01*
X172418102Y-119654774D01*
X172229744Y-119732795D01*
X172212000Y-119744651D01*
X172212000Y-115236779D01*
X172353102Y-115295226D01*
X172553061Y-115335000D01*
X172756939Y-115335000D01*
X172956898Y-115295226D01*
X173145256Y-115217205D01*
X173314774Y-115103937D01*
X173322500Y-115096211D01*
X173330226Y-115103937D01*
X173499744Y-115217205D01*
X173688102Y-115295226D01*
X173888061Y-115335000D01*
X174091939Y-115335000D01*
X174291898Y-115295226D01*
X174480256Y-115217205D01*
X174649774Y-115103937D01*
X174793937Y-114959774D01*
X174907205Y-114790256D01*
X174985226Y-114601898D01*
X175025000Y-114401939D01*
X175025000Y-114293061D01*
X175490000Y-114293061D01*
X175490000Y-114496939D01*
X175529774Y-114696898D01*
X175607795Y-114885256D01*
X175721063Y-115054774D01*
X175865226Y-115198937D01*
X176034744Y-115312205D01*
X176223102Y-115390226D01*
X176423061Y-115430000D01*
X176626939Y-115430000D01*
X176826898Y-115390226D01*
X177015256Y-115312205D01*
X177165000Y-115212150D01*
X177314744Y-115312205D01*
X177503102Y-115390226D01*
X177703061Y-115430000D01*
X177906939Y-115430000D01*
X178106898Y-115390226D01*
X178295256Y-115312205D01*
X178440000Y-115215490D01*
X178584744Y-115312205D01*
X178773102Y-115390226D01*
X178973061Y-115430000D01*
X179176939Y-115430000D01*
X179376898Y-115390226D01*
X179565256Y-115312205D01*
X179734774Y-115198937D01*
X179878937Y-115054774D01*
X179992205Y-114885256D01*
X180070226Y-114696898D01*
X180110000Y-114496939D01*
X180110000Y-114293061D01*
X180575000Y-114293061D01*
X180575000Y-114496939D01*
X180614774Y-114696898D01*
X180692795Y-114885256D01*
X180806063Y-115054774D01*
X180950226Y-115198937D01*
X181119744Y-115312205D01*
X181308102Y-115390226D01*
X181508061Y-115430000D01*
X181711939Y-115430000D01*
X181911898Y-115390226D01*
X182100256Y-115312205D01*
X182269774Y-115198937D01*
X182413937Y-115054774D01*
X182527205Y-114885256D01*
X182605226Y-114696898D01*
X182645000Y-114496939D01*
X182645000Y-114293061D01*
X183020000Y-114293061D01*
X183020000Y-114496939D01*
X183059774Y-114696898D01*
X183137795Y-114885256D01*
X183251063Y-115054774D01*
X183395226Y-115198937D01*
X183564744Y-115312205D01*
X183753102Y-115390226D01*
X183953061Y-115430000D01*
X184156939Y-115430000D01*
X184356898Y-115390226D01*
X184545256Y-115312205D01*
X184714774Y-115198937D01*
X184858937Y-115054774D01*
X184972205Y-114885256D01*
X185050226Y-114696898D01*
X185090000Y-114496939D01*
X185090000Y-114293061D01*
X185050226Y-114093102D01*
X184972205Y-113904744D01*
X184858937Y-113735226D01*
X184714774Y-113591063D01*
X184545256Y-113477795D01*
X184356898Y-113399774D01*
X184156939Y-113360000D01*
X183953061Y-113360000D01*
X183753102Y-113399774D01*
X183564744Y-113477795D01*
X183395226Y-113591063D01*
X183251063Y-113735226D01*
X183137795Y-113904744D01*
X183059774Y-114093102D01*
X183020000Y-114293061D01*
X182645000Y-114293061D01*
X182605226Y-114093102D01*
X182527205Y-113904744D01*
X182413937Y-113735226D01*
X182269774Y-113591063D01*
X182100256Y-113477795D01*
X181911898Y-113399774D01*
X181711939Y-113360000D01*
X181508061Y-113360000D01*
X181308102Y-113399774D01*
X181119744Y-113477795D01*
X180950226Y-113591063D01*
X180806063Y-113735226D01*
X180692795Y-113904744D01*
X180614774Y-114093102D01*
X180575000Y-114293061D01*
X180110000Y-114293061D01*
X180070226Y-114093102D01*
X179992205Y-113904744D01*
X179878937Y-113735226D01*
X179734774Y-113591063D01*
X179565256Y-113477795D01*
X179376898Y-113399774D01*
X179176939Y-113360000D01*
X178973061Y-113360000D01*
X178773102Y-113399774D01*
X178584744Y-113477795D01*
X178440000Y-113574510D01*
X178295256Y-113477795D01*
X178106898Y-113399774D01*
X177906939Y-113360000D01*
X177703061Y-113360000D01*
X177503102Y-113399774D01*
X177314744Y-113477795D01*
X177165000Y-113577850D01*
X177015256Y-113477795D01*
X176826898Y-113399774D01*
X176626939Y-113360000D01*
X176423061Y-113360000D01*
X176223102Y-113399774D01*
X176034744Y-113477795D01*
X175865226Y-113591063D01*
X175721063Y-113735226D01*
X175607795Y-113904744D01*
X175529774Y-114093102D01*
X175490000Y-114293061D01*
X175025000Y-114293061D01*
X175025000Y-114198061D01*
X174985226Y-113998102D01*
X174907205Y-113809744D01*
X174793937Y-113640226D01*
X174649774Y-113496063D01*
X174480256Y-113382795D01*
X174291898Y-113304774D01*
X174091939Y-113265000D01*
X173888061Y-113265000D01*
X173688102Y-113304774D01*
X173499744Y-113382795D01*
X173330226Y-113496063D01*
X173322500Y-113503789D01*
X173314774Y-113496063D01*
X173145256Y-113382795D01*
X172956898Y-113304774D01*
X172756939Y-113265000D01*
X172553061Y-113265000D01*
X172353102Y-113304774D01*
X172212000Y-113363221D01*
X172212000Y-110490000D01*
X172209560Y-110465224D01*
X172202333Y-110441399D01*
X172190597Y-110419443D01*
X172174803Y-110400197D01*
X172155557Y-110384403D01*
X172133601Y-110372667D01*
X172109776Y-110365440D01*
X172085000Y-110363000D01*
X160147000Y-110363000D01*
X160147000Y-105537000D01*
X172551928Y-105537000D01*
X172551928Y-106845000D01*
G37*
%TD.AperFunction*%
%TD*%
D17*
%TO.N,GND*%
X172593000Y-125603000D02*
X163957000Y-125603000D01*
X163957000Y-124587000D01*
X172593000Y-124587000D01*
X172593000Y-125603000D01*
%TA.AperFunction,Conductor*%
D18*
G36*
X172593000Y-125603000D02*
G01*
X163957000Y-125603000D01*
X163957000Y-124587000D01*
X172593000Y-124587000D01*
X172593000Y-125603000D01*
G37*
%TD.AperFunction*%
%TD*%
M02*
