M48
; DRILL file {KiCad (5.1.9)-1} date 11/14/21 21:39:47
; FORMAT={-:-/ absolute / inch / decimal}
; #@! TF.CreationDate,2021-11-14T21:39:47-06:00
; #@! TF.GenerationSoftware,Kicad,Pcbnew,(5.1.9)-1
; #@! TF.FileFunction,Plated,1,4,PTH
FMAT,2
INCH
T1C0.0157
T2C0.0315
T3C0.0394
T4C0.0787
%
G90
G05
T1
X6.1135Y-4.25
X6.1135Y-4.3115
X6.1135Y-4.375
X6.125Y-4.525
X6.125Y-4.675
X6.125Y-4.775
X6.175Y-4.525
X6.175Y-4.675
X6.175Y-4.775
X6.2Y-4.475
X6.2365Y-4.25
X6.2365Y-4.3135
X6.2365Y-4.3891
X6.25Y-4.675
X6.2737Y-4.4263
X6.3112Y-4.4638
X6.325Y-4.3
X6.375Y-4.325
X6.475Y-4.6135
X6.475Y-4.925
X6.5Y-4.7183
X6.525Y-4.6
X6.525Y-4.925
X6.5308Y-4.6808
X6.575Y-4.6
X6.575Y-4.65
X6.575Y-4.75
X6.575Y-4.925
X6.625Y-4.75
X6.625Y-4.925
X6.675Y-4.625
X6.675Y-4.675
X6.675Y-4.725
X6.675Y-4.775
X6.675Y-4.925
X6.725Y-4.925
X6.75Y-4.5
X6.75Y-4.75
X6.775Y-4.925
X6.7974Y-4.5
X6.8Y-4.75
X6.825Y-4.925
X6.85Y-4.5
X6.875Y-4.925
X6.925Y-4.925
X6.9498Y-4.5037
X6.975Y-4.925
X7.0002Y-4.5037
X7.025Y-4.925
X7.0502Y-4.5037
X7.075Y-4.925
X7.125Y-4.925
X7.15Y-4.5037
X7.175Y-4.925
X7.225Y-4.925
X7.2463Y-4.5037
X7.275Y-4.925
X7.325Y-4.925
X7.375Y-4.925
T2
X6.85Y-4.175
X6.9484Y-4.175
T3
X6.0Y-4.425
X6.0Y-4.525
X6.0Y-4.625
X6.0Y-4.725
X6.275Y-4.9
X6.375Y-4.9
T4
X7.4Y-4.35
X7.4Y-4.7437
T0
M30
