%TF.GenerationSoftware,KiCad,Pcbnew,(5.1.9)-1*%
%TF.CreationDate,2021-10-27T02:20:14-05:00*%
%TF.ProjectId,BLDC_Cont,424c4443-5f43-46f6-9e74-2e6b69636164,rev?*%
%TF.SameCoordinates,Original*%
%TF.FileFunction,Soldermask,Bot*%
%TF.FilePolarity,Negative*%
%FSLAX46Y46*%
G04 Gerber Fmt 4.6, Leading zero omitted, Abs format (unit mm)*
G04 Created by KiCad (PCBNEW (5.1.9)-1) date 2021-10-27 02:20:14*
%MOMM*%
%LPD*%
G01*
G04 APERTURE LIST*
%ADD10R,4.000000X4.000000*%
%ADD11C,0.100000*%
%ADD12C,4.000000*%
%ADD13R,1.600000X1.600000*%
%ADD14C,1.600000*%
%ADD15R,0.950000X1.000000*%
%ADD16R,3.200000X4.900000*%
%ADD17R,1.700000X1.700000*%
%ADD18O,1.700000X1.700000*%
G04 APERTURE END LIST*
D10*
%TO.C,J2*%
X165735000Y-107315000D03*
%TD*%
D11*
%TO.C,Q1*%
G36*
X174746345Y-108136344D02*
G01*
X174750328Y-108123212D01*
X174756797Y-108111110D01*
X174765503Y-108100503D01*
X174776110Y-108091797D01*
X174788212Y-108085328D01*
X174801344Y-108081345D01*
X174815000Y-108080000D01*
X179515000Y-108080000D01*
X179528656Y-108081345D01*
X179541788Y-108085328D01*
X179553890Y-108091797D01*
X179564497Y-108100503D01*
X179573203Y-108111110D01*
X179579672Y-108123212D01*
X179583655Y-108136344D01*
X179585000Y-108150000D01*
X179585000Y-109700000D01*
X179583655Y-109713656D01*
X179579672Y-109726788D01*
X179573203Y-109738890D01*
X179564497Y-109749497D01*
X179553890Y-109758203D01*
X179541788Y-109764672D01*
X179528656Y-109768655D01*
X179515000Y-109770000D01*
X179335000Y-109770000D01*
X179335000Y-112775000D01*
X179333655Y-112788656D01*
X179329672Y-112801788D01*
X179323203Y-112813890D01*
X179314497Y-112824497D01*
X179303890Y-112833203D01*
X179291788Y-112839672D01*
X179278656Y-112843655D01*
X179265000Y-112845000D01*
X175065000Y-112845000D01*
X175051344Y-112843655D01*
X175038212Y-112839672D01*
X175026110Y-112833203D01*
X175015503Y-112824497D01*
X175006797Y-112813890D01*
X175000328Y-112801788D01*
X174996345Y-112788656D01*
X174995000Y-112775000D01*
X174995000Y-109770000D01*
X174815000Y-109770000D01*
X174801344Y-109768655D01*
X174788212Y-109764672D01*
X174776110Y-109758203D01*
X174765503Y-109749497D01*
X174756797Y-109738890D01*
X174750328Y-109726788D01*
X174746345Y-109713656D01*
X174745000Y-109700000D01*
X174745000Y-108150000D01*
X174746345Y-108136344D01*
G37*
G36*
G01*
X175675000Y-113820000D02*
X175675000Y-114970000D01*
G75*
G02*
X175605000Y-115040000I-70000J0D01*
G01*
X174905000Y-115040000D01*
G75*
G02*
X174835000Y-114970000I0J70000D01*
G01*
X174835000Y-113820000D01*
G75*
G02*
X174905000Y-113750000I70000J0D01*
G01*
X175605000Y-113750000D01*
G75*
G02*
X175675000Y-113820000I0J-70000D01*
G01*
G37*
G36*
G01*
X176945000Y-113820000D02*
X176945000Y-114970000D01*
G75*
G02*
X176875000Y-115040000I-70000J0D01*
G01*
X176175000Y-115040000D01*
G75*
G02*
X176105000Y-114970000I0J70000D01*
G01*
X176105000Y-113820000D01*
G75*
G02*
X176175000Y-113750000I70000J0D01*
G01*
X176875000Y-113750000D01*
G75*
G02*
X176945000Y-113820000I0J-70000D01*
G01*
G37*
G36*
G01*
X179495000Y-113820000D02*
X179495000Y-114970000D01*
G75*
G02*
X179425000Y-115040000I-70000J0D01*
G01*
X178725000Y-115040000D01*
G75*
G02*
X178655000Y-114970000I0J70000D01*
G01*
X178655000Y-113820000D01*
G75*
G02*
X178725000Y-113750000I70000J0D01*
G01*
X179425000Y-113750000D01*
G75*
G02*
X179495000Y-113820000I0J-70000D01*
G01*
G37*
G36*
G01*
X178225000Y-113820000D02*
X178225000Y-114970000D01*
G75*
G02*
X178155000Y-115040000I-70000J0D01*
G01*
X177455000Y-115040000D01*
G75*
G02*
X177385000Y-114970000I0J70000D01*
G01*
X177385000Y-113820000D01*
G75*
G02*
X177455000Y-113750000I70000J0D01*
G01*
X178155000Y-113750000D01*
G75*
G02*
X178225000Y-113820000I0J-70000D01*
G01*
G37*
%TD*%
D12*
%TO.C,C7*%
X187960000Y-120490000D03*
D10*
X187960000Y-110490000D03*
%TD*%
D13*
%TO.C,C6*%
X173990000Y-106045000D03*
D14*
X176490000Y-106045000D03*
%TD*%
D15*
%TO.C,D1*%
X183850000Y-114735000D03*
D16*
X182880000Y-110385000D03*
D15*
X181910000Y-114735000D03*
%TD*%
%TO.C,D2*%
X180640000Y-123095000D03*
D16*
X181610000Y-118745000D03*
D15*
X182580000Y-123095000D03*
%TD*%
%TO.C,Q2*%
G36*
G01*
X176955000Y-122075000D02*
X176955000Y-123225000D01*
G75*
G02*
X176885000Y-123295000I-70000J0D01*
G01*
X176185000Y-123295000D01*
G75*
G02*
X176115000Y-123225000I0J70000D01*
G01*
X176115000Y-122075000D01*
G75*
G02*
X176185000Y-122005000I70000J0D01*
G01*
X176885000Y-122005000D01*
G75*
G02*
X176955000Y-122075000I0J-70000D01*
G01*
G37*
G36*
G01*
X178225000Y-122075000D02*
X178225000Y-123225000D01*
G75*
G02*
X178155000Y-123295000I-70000J0D01*
G01*
X177455000Y-123295000D01*
G75*
G02*
X177385000Y-123225000I0J70000D01*
G01*
X177385000Y-122075000D01*
G75*
G02*
X177455000Y-122005000I70000J0D01*
G01*
X178155000Y-122005000D01*
G75*
G02*
X178225000Y-122075000I0J-70000D01*
G01*
G37*
G36*
G01*
X175675000Y-122075000D02*
X175675000Y-123225000D01*
G75*
G02*
X175605000Y-123295000I-70000J0D01*
G01*
X174905000Y-123295000D01*
G75*
G02*
X174835000Y-123225000I0J70000D01*
G01*
X174835000Y-122075000D01*
G75*
G02*
X174905000Y-122005000I70000J0D01*
G01*
X175605000Y-122005000D01*
G75*
G02*
X175675000Y-122075000I0J-70000D01*
G01*
G37*
G36*
G01*
X174405000Y-122075000D02*
X174405000Y-123225000D01*
G75*
G02*
X174335000Y-123295000I-70000J0D01*
G01*
X173635000Y-123295000D01*
G75*
G02*
X173565000Y-123225000I0J70000D01*
G01*
X173565000Y-122075000D01*
G75*
G02*
X173635000Y-122005000I70000J0D01*
G01*
X174335000Y-122005000D01*
G75*
G02*
X174405000Y-122075000I0J-70000D01*
G01*
G37*
D11*
G36*
X173476345Y-116391344D02*
G01*
X173480328Y-116378212D01*
X173486797Y-116366110D01*
X173495503Y-116355503D01*
X173506110Y-116346797D01*
X173518212Y-116340328D01*
X173531344Y-116336345D01*
X173545000Y-116335000D01*
X178245000Y-116335000D01*
X178258656Y-116336345D01*
X178271788Y-116340328D01*
X178283890Y-116346797D01*
X178294497Y-116355503D01*
X178303203Y-116366110D01*
X178309672Y-116378212D01*
X178313655Y-116391344D01*
X178315000Y-116405000D01*
X178315000Y-117955000D01*
X178313655Y-117968656D01*
X178309672Y-117981788D01*
X178303203Y-117993890D01*
X178294497Y-118004497D01*
X178283890Y-118013203D01*
X178271788Y-118019672D01*
X178258656Y-118023655D01*
X178245000Y-118025000D01*
X178065000Y-118025000D01*
X178065000Y-121030000D01*
X178063655Y-121043656D01*
X178059672Y-121056788D01*
X178053203Y-121068890D01*
X178044497Y-121079497D01*
X178033890Y-121088203D01*
X178021788Y-121094672D01*
X178008656Y-121098655D01*
X177995000Y-121100000D01*
X173795000Y-121100000D01*
X173781344Y-121098655D01*
X173768212Y-121094672D01*
X173756110Y-121088203D01*
X173745503Y-121079497D01*
X173736797Y-121068890D01*
X173730328Y-121056788D01*
X173726345Y-121043656D01*
X173725000Y-121030000D01*
X173725000Y-118025000D01*
X173545000Y-118025000D01*
X173531344Y-118023655D01*
X173518212Y-118019672D01*
X173506110Y-118013203D01*
X173495503Y-118004497D01*
X173486797Y-117993890D01*
X173480328Y-117981788D01*
X173476345Y-117968656D01*
X173475000Y-117955000D01*
X173475000Y-116405000D01*
X173476345Y-116391344D01*
G37*
%TD*%
%TO.C,R1*%
G36*
G01*
X172075001Y-116500000D02*
X170824999Y-116500000D01*
G75*
G02*
X170575000Y-116250001I0J249999D01*
G01*
X170575000Y-115449999D01*
G75*
G02*
X170824999Y-115200000I249999J0D01*
G01*
X172075001Y-115200000D01*
G75*
G02*
X172325000Y-115449999I0J-249999D01*
G01*
X172325000Y-116250001D01*
G75*
G02*
X172075001Y-116500000I-249999J0D01*
G01*
G37*
G36*
G01*
X172075001Y-113400000D02*
X170824999Y-113400000D01*
G75*
G02*
X170575000Y-113150001I0J249999D01*
G01*
X170575000Y-112349999D01*
G75*
G02*
X170824999Y-112100000I249999J0D01*
G01*
X172075001Y-112100000D01*
G75*
G02*
X172325000Y-112349999I0J-249999D01*
G01*
X172325000Y-113150001D01*
G75*
G02*
X172075001Y-113400000I-249999J0D01*
G01*
G37*
%TD*%
%TO.C,R2*%
G36*
G01*
X172075001Y-120385000D02*
X170824999Y-120385000D01*
G75*
G02*
X170575000Y-120135001I0J249999D01*
G01*
X170575000Y-119334999D01*
G75*
G02*
X170824999Y-119085000I249999J0D01*
G01*
X172075001Y-119085000D01*
G75*
G02*
X172325000Y-119334999I0J-249999D01*
G01*
X172325000Y-120135001D01*
G75*
G02*
X172075001Y-120385000I-249999J0D01*
G01*
G37*
G36*
G01*
X172075001Y-123485000D02*
X170824999Y-123485000D01*
G75*
G02*
X170575000Y-123235001I0J249999D01*
G01*
X170575000Y-122434999D01*
G75*
G02*
X170824999Y-122185000I249999J0D01*
G01*
X172075001Y-122185000D01*
G75*
G02*
X172325000Y-122434999I0J-249999D01*
G01*
X172325000Y-123235001D01*
G75*
G02*
X172075001Y-123485000I-249999J0D01*
G01*
G37*
%TD*%
D10*
%TO.C,J1*%
X187960000Y-115570000D03*
%TD*%
D17*
%TO.C,J4*%
X161290000Y-112395000D03*
D18*
X161290000Y-114935000D03*
X161290000Y-117475000D03*
X161290000Y-120015000D03*
X161290000Y-122555000D03*
%TD*%
D10*
%TO.C,J3*%
X165735000Y-123825000D03*
%TD*%
M02*
