%TF.GenerationSoftware,KiCad,Pcbnew,(5.1.9)-1*%
%TF.CreationDate,2021-11-14T21:39:45-06:00*%
%TF.ProjectId,BLDC_Cont,424c4443-5f43-46f6-9e74-2e6b69636164,rev?*%
%TF.SameCoordinates,Original*%
%TF.FileFunction,Soldermask,Top*%
%TF.FilePolarity,Negative*%
%FSLAX46Y46*%
G04 Gerber Fmt 4.6, Leading zero omitted, Abs format (unit mm)*
G04 Created by KiCad (PCBNEW (5.1.9)-1) date 2021-11-14 21:39:45*
%MOMM*%
%LPD*%
G01*
G04 APERTURE LIST*
%ADD10R,1.000000X0.950000*%
%ADD11R,4.900000X3.200000*%
%ADD12C,4.000000*%
%ADD13R,4.000000X4.000000*%
%ADD14R,1.600000X1.600000*%
%ADD15C,1.600000*%
%ADD16R,1.200000X0.900000*%
%ADD17R,1.500000X1.000000*%
%ADD18R,1.700000X1.700000*%
%ADD19O,1.700000X1.700000*%
G04 APERTURE END LIST*
D10*
%TO.C,D3*%
X163855000Y-108920000D03*
D11*
X168205000Y-107950000D03*
D10*
X163855000Y-106980000D03*
%TD*%
D12*
%TO.C,C7*%
X187960000Y-120490000D03*
D13*
X187960000Y-110490000D03*
%TD*%
%TO.C,C1*%
G36*
G01*
X163814997Y-116520000D02*
X165115003Y-116520000D01*
G75*
G02*
X165365000Y-116769997I0J-249997D01*
G01*
X165365000Y-117595003D01*
G75*
G02*
X165115003Y-117845000I-249997J0D01*
G01*
X163814997Y-117845000D01*
G75*
G02*
X163565000Y-117595003I0J249997D01*
G01*
X163565000Y-116769997D01*
G75*
G02*
X163814997Y-116520000I249997J0D01*
G01*
G37*
G36*
G01*
X163814997Y-119645000D02*
X165115003Y-119645000D01*
G75*
G02*
X165365000Y-119894997I0J-249997D01*
G01*
X165365000Y-120720003D01*
G75*
G02*
X165115003Y-120970000I-249997J0D01*
G01*
X163814997Y-120970000D01*
G75*
G02*
X163565000Y-120720003I0J249997D01*
G01*
X163565000Y-119894997D01*
G75*
G02*
X163814997Y-119645000I249997J0D01*
G01*
G37*
%TD*%
%TO.C,C2*%
G36*
G01*
X175244997Y-119302500D02*
X176545003Y-119302500D01*
G75*
G02*
X176795000Y-119552497I0J-249997D01*
G01*
X176795000Y-120377503D01*
G75*
G02*
X176545003Y-120627500I-249997J0D01*
G01*
X175244997Y-120627500D01*
G75*
G02*
X174995000Y-120377503I0J249997D01*
G01*
X174995000Y-119552497D01*
G75*
G02*
X175244997Y-119302500I249997J0D01*
G01*
G37*
G36*
G01*
X175244997Y-116177500D02*
X176545003Y-116177500D01*
G75*
G02*
X176795000Y-116427497I0J-249997D01*
G01*
X176795000Y-117252503D01*
G75*
G02*
X176545003Y-117502500I-249997J0D01*
G01*
X175244997Y-117502500D01*
G75*
G02*
X174995000Y-117252503I0J249997D01*
G01*
X174995000Y-116427497D01*
G75*
G02*
X175244997Y-116177500I249997J0D01*
G01*
G37*
%TD*%
%TO.C,C3*%
G36*
G01*
X177784997Y-116177500D02*
X179085003Y-116177500D01*
G75*
G02*
X179335000Y-116427497I0J-249997D01*
G01*
X179335000Y-117252503D01*
G75*
G02*
X179085003Y-117502500I-249997J0D01*
G01*
X177784997Y-117502500D01*
G75*
G02*
X177535000Y-117252503I0J249997D01*
G01*
X177535000Y-116427497D01*
G75*
G02*
X177784997Y-116177500I249997J0D01*
G01*
G37*
G36*
G01*
X177784997Y-119302500D02*
X179085003Y-119302500D01*
G75*
G02*
X179335000Y-119552497I0J-249997D01*
G01*
X179335000Y-120377503D01*
G75*
G02*
X179085003Y-120627500I-249997J0D01*
G01*
X177784997Y-120627500D01*
G75*
G02*
X177535000Y-120377503I0J249997D01*
G01*
X177535000Y-119552497D01*
G75*
G02*
X177784997Y-119302500I249997J0D01*
G01*
G37*
%TD*%
%TO.C,C4*%
G36*
G01*
X175244997Y-113930000D02*
X176545003Y-113930000D01*
G75*
G02*
X176795000Y-114179997I0J-249997D01*
G01*
X176795000Y-115005003D01*
G75*
G02*
X176545003Y-115255000I-249997J0D01*
G01*
X175244997Y-115255000D01*
G75*
G02*
X174995000Y-115005003I0J249997D01*
G01*
X174995000Y-114179997D01*
G75*
G02*
X175244997Y-113930000I249997J0D01*
G01*
G37*
G36*
G01*
X175244997Y-110805000D02*
X176545003Y-110805000D01*
G75*
G02*
X176795000Y-111054997I0J-249997D01*
G01*
X176795000Y-111880003D01*
G75*
G02*
X176545003Y-112130000I-249997J0D01*
G01*
X175244997Y-112130000D01*
G75*
G02*
X174995000Y-111880003I0J249997D01*
G01*
X174995000Y-111054997D01*
G75*
G02*
X175244997Y-110805000I249997J0D01*
G01*
G37*
%TD*%
%TO.C,C5*%
G36*
G01*
X177784997Y-110805000D02*
X179085003Y-110805000D01*
G75*
G02*
X179335000Y-111054997I0J-249997D01*
G01*
X179335000Y-111880003D01*
G75*
G02*
X179085003Y-112130000I-249997J0D01*
G01*
X177784997Y-112130000D01*
G75*
G02*
X177535000Y-111880003I0J249997D01*
G01*
X177535000Y-111054997D01*
G75*
G02*
X177784997Y-110805000I249997J0D01*
G01*
G37*
G36*
G01*
X177784997Y-113930000D02*
X179085003Y-113930000D01*
G75*
G02*
X179335000Y-114179997I0J-249997D01*
G01*
X179335000Y-115005003D01*
G75*
G02*
X179085003Y-115255000I-249997J0D01*
G01*
X177784997Y-115255000D01*
G75*
G02*
X177535000Y-115005003I0J249997D01*
G01*
X177535000Y-114179997D01*
G75*
G02*
X177784997Y-113930000I249997J0D01*
G01*
G37*
%TD*%
D14*
%TO.C,C6*%
X173990000Y-106045000D03*
D15*
X176490000Y-106045000D03*
%TD*%
D16*
%TO.C,D4*%
X180975000Y-111380000D03*
X180975000Y-114680000D03*
%TD*%
%TO.C,R3*%
G36*
G01*
X160664999Y-108850000D02*
X161915001Y-108850000D01*
G75*
G02*
X162165000Y-109099999I0J-249999D01*
G01*
X162165000Y-109900001D01*
G75*
G02*
X161915001Y-110150000I-249999J0D01*
G01*
X160664999Y-110150000D01*
G75*
G02*
X160415000Y-109900001I0J249999D01*
G01*
X160415000Y-109099999D01*
G75*
G02*
X160664999Y-108850000I249999J0D01*
G01*
G37*
G36*
G01*
X160664999Y-105750000D02*
X161915001Y-105750000D01*
G75*
G02*
X162165000Y-105999999I0J-249999D01*
G01*
X162165000Y-106800001D01*
G75*
G02*
X161915001Y-107050000I-249999J0D01*
G01*
X160664999Y-107050000D01*
G75*
G02*
X160415000Y-106800001I0J249999D01*
G01*
X160415000Y-105999999D01*
G75*
G02*
X160664999Y-105750000I249999J0D01*
G01*
G37*
%TD*%
%TO.C,R4*%
G36*
G01*
X182889999Y-110830000D02*
X184140001Y-110830000D01*
G75*
G02*
X184390000Y-111079999I0J-249999D01*
G01*
X184390000Y-111880001D01*
G75*
G02*
X184140001Y-112130000I-249999J0D01*
G01*
X182889999Y-112130000D01*
G75*
G02*
X182640000Y-111880001I0J249999D01*
G01*
X182640000Y-111079999D01*
G75*
G02*
X182889999Y-110830000I249999J0D01*
G01*
G37*
G36*
G01*
X182889999Y-113930000D02*
X184140001Y-113930000D01*
G75*
G02*
X184390000Y-114179999I0J-249999D01*
G01*
X184390000Y-114980001D01*
G75*
G02*
X184140001Y-115230000I-249999J0D01*
G01*
X182889999Y-115230000D01*
G75*
G02*
X182640000Y-114980001I0J249999D01*
G01*
X182640000Y-114179999D01*
G75*
G02*
X182889999Y-113930000I249999J0D01*
G01*
G37*
%TD*%
%TO.C,R5*%
G36*
G01*
X180349999Y-116265000D02*
X181600001Y-116265000D01*
G75*
G02*
X181850000Y-116514999I0J-249999D01*
G01*
X181850000Y-117315001D01*
G75*
G02*
X181600001Y-117565000I-249999J0D01*
G01*
X180349999Y-117565000D01*
G75*
G02*
X180100000Y-117315001I0J249999D01*
G01*
X180100000Y-116514999D01*
G75*
G02*
X180349999Y-116265000I249999J0D01*
G01*
G37*
G36*
G01*
X180349999Y-119365000D02*
X181600001Y-119365000D01*
G75*
G02*
X181850000Y-119614999I0J-249999D01*
G01*
X181850000Y-120415001D01*
G75*
G02*
X181600001Y-120665000I-249999J0D01*
G01*
X180349999Y-120665000D01*
G75*
G02*
X180100000Y-120415001I0J249999D01*
G01*
X180100000Y-119614999D01*
G75*
G02*
X180349999Y-119365000I249999J0D01*
G01*
G37*
%TD*%
%TO.C,U1*%
G36*
G01*
X166730000Y-113180000D02*
X166730000Y-112880000D01*
G75*
G02*
X166880000Y-112730000I150000J0D01*
G01*
X168530000Y-112730000D01*
G75*
G02*
X168680000Y-112880000I0J-150000D01*
G01*
X168680000Y-113180000D01*
G75*
G02*
X168530000Y-113330000I-150000J0D01*
G01*
X166880000Y-113330000D01*
G75*
G02*
X166730000Y-113180000I0J150000D01*
G01*
G37*
G36*
G01*
X166730000Y-114450000D02*
X166730000Y-114150000D01*
G75*
G02*
X166880000Y-114000000I150000J0D01*
G01*
X168530000Y-114000000D01*
G75*
G02*
X168680000Y-114150000I0J-150000D01*
G01*
X168680000Y-114450000D01*
G75*
G02*
X168530000Y-114600000I-150000J0D01*
G01*
X166880000Y-114600000D01*
G75*
G02*
X166730000Y-114450000I0J150000D01*
G01*
G37*
G36*
G01*
X166730000Y-115720000D02*
X166730000Y-115420000D01*
G75*
G02*
X166880000Y-115270000I150000J0D01*
G01*
X168530000Y-115270000D01*
G75*
G02*
X168680000Y-115420000I0J-150000D01*
G01*
X168680000Y-115720000D01*
G75*
G02*
X168530000Y-115870000I-150000J0D01*
G01*
X166880000Y-115870000D01*
G75*
G02*
X166730000Y-115720000I0J150000D01*
G01*
G37*
G36*
G01*
X166730000Y-116990000D02*
X166730000Y-116690000D01*
G75*
G02*
X166880000Y-116540000I150000J0D01*
G01*
X168530000Y-116540000D01*
G75*
G02*
X168680000Y-116690000I0J-150000D01*
G01*
X168680000Y-116990000D01*
G75*
G02*
X168530000Y-117140000I-150000J0D01*
G01*
X166880000Y-117140000D01*
G75*
G02*
X166730000Y-116990000I0J150000D01*
G01*
G37*
G36*
G01*
X166730000Y-118260000D02*
X166730000Y-117960000D01*
G75*
G02*
X166880000Y-117810000I150000J0D01*
G01*
X168530000Y-117810000D01*
G75*
G02*
X168680000Y-117960000I0J-150000D01*
G01*
X168680000Y-118260000D01*
G75*
G02*
X168530000Y-118410000I-150000J0D01*
G01*
X166880000Y-118410000D01*
G75*
G02*
X166730000Y-118260000I0J150000D01*
G01*
G37*
G36*
G01*
X166730000Y-119530000D02*
X166730000Y-119230000D01*
G75*
G02*
X166880000Y-119080000I150000J0D01*
G01*
X168530000Y-119080000D01*
G75*
G02*
X168680000Y-119230000I0J-150000D01*
G01*
X168680000Y-119530000D01*
G75*
G02*
X168530000Y-119680000I-150000J0D01*
G01*
X166880000Y-119680000D01*
G75*
G02*
X166730000Y-119530000I0J150000D01*
G01*
G37*
G36*
G01*
X166730000Y-120800000D02*
X166730000Y-120500000D01*
G75*
G02*
X166880000Y-120350000I150000J0D01*
G01*
X168530000Y-120350000D01*
G75*
G02*
X168680000Y-120500000I0J-150000D01*
G01*
X168680000Y-120800000D01*
G75*
G02*
X168530000Y-120950000I-150000J0D01*
G01*
X166880000Y-120950000D01*
G75*
G02*
X166730000Y-120800000I0J150000D01*
G01*
G37*
G36*
G01*
X166730000Y-122070000D02*
X166730000Y-121770000D01*
G75*
G02*
X166880000Y-121620000I150000J0D01*
G01*
X168530000Y-121620000D01*
G75*
G02*
X168680000Y-121770000I0J-150000D01*
G01*
X168680000Y-122070000D01*
G75*
G02*
X168530000Y-122220000I-150000J0D01*
G01*
X166880000Y-122220000D01*
G75*
G02*
X166730000Y-122070000I0J150000D01*
G01*
G37*
G36*
G01*
X171680000Y-122070000D02*
X171680000Y-121770000D01*
G75*
G02*
X171830000Y-121620000I150000J0D01*
G01*
X173480000Y-121620000D01*
G75*
G02*
X173630000Y-121770000I0J-150000D01*
G01*
X173630000Y-122070000D01*
G75*
G02*
X173480000Y-122220000I-150000J0D01*
G01*
X171830000Y-122220000D01*
G75*
G02*
X171680000Y-122070000I0J150000D01*
G01*
G37*
G36*
G01*
X171680000Y-120800000D02*
X171680000Y-120500000D01*
G75*
G02*
X171830000Y-120350000I150000J0D01*
G01*
X173480000Y-120350000D01*
G75*
G02*
X173630000Y-120500000I0J-150000D01*
G01*
X173630000Y-120800000D01*
G75*
G02*
X173480000Y-120950000I-150000J0D01*
G01*
X171830000Y-120950000D01*
G75*
G02*
X171680000Y-120800000I0J150000D01*
G01*
G37*
G36*
G01*
X171680000Y-119530000D02*
X171680000Y-119230000D01*
G75*
G02*
X171830000Y-119080000I150000J0D01*
G01*
X173480000Y-119080000D01*
G75*
G02*
X173630000Y-119230000I0J-150000D01*
G01*
X173630000Y-119530000D01*
G75*
G02*
X173480000Y-119680000I-150000J0D01*
G01*
X171830000Y-119680000D01*
G75*
G02*
X171680000Y-119530000I0J150000D01*
G01*
G37*
G36*
G01*
X171680000Y-118260000D02*
X171680000Y-117960000D01*
G75*
G02*
X171830000Y-117810000I150000J0D01*
G01*
X173480000Y-117810000D01*
G75*
G02*
X173630000Y-117960000I0J-150000D01*
G01*
X173630000Y-118260000D01*
G75*
G02*
X173480000Y-118410000I-150000J0D01*
G01*
X171830000Y-118410000D01*
G75*
G02*
X171680000Y-118260000I0J150000D01*
G01*
G37*
G36*
G01*
X171680000Y-116990000D02*
X171680000Y-116690000D01*
G75*
G02*
X171830000Y-116540000I150000J0D01*
G01*
X173480000Y-116540000D01*
G75*
G02*
X173630000Y-116690000I0J-150000D01*
G01*
X173630000Y-116990000D01*
G75*
G02*
X173480000Y-117140000I-150000J0D01*
G01*
X171830000Y-117140000D01*
G75*
G02*
X171680000Y-116990000I0J150000D01*
G01*
G37*
G36*
G01*
X171680000Y-115720000D02*
X171680000Y-115420000D01*
G75*
G02*
X171830000Y-115270000I150000J0D01*
G01*
X173480000Y-115270000D01*
G75*
G02*
X173630000Y-115420000I0J-150000D01*
G01*
X173630000Y-115720000D01*
G75*
G02*
X173480000Y-115870000I-150000J0D01*
G01*
X171830000Y-115870000D01*
G75*
G02*
X171680000Y-115720000I0J150000D01*
G01*
G37*
G36*
G01*
X171680000Y-114450000D02*
X171680000Y-114150000D01*
G75*
G02*
X171830000Y-114000000I150000J0D01*
G01*
X173480000Y-114000000D01*
G75*
G02*
X173630000Y-114150000I0J-150000D01*
G01*
X173630000Y-114450000D01*
G75*
G02*
X173480000Y-114600000I-150000J0D01*
G01*
X171830000Y-114600000D01*
G75*
G02*
X171680000Y-114450000I0J150000D01*
G01*
G37*
G36*
G01*
X171680000Y-113180000D02*
X171680000Y-112880000D01*
G75*
G02*
X171830000Y-112730000I150000J0D01*
G01*
X173480000Y-112730000D01*
G75*
G02*
X173630000Y-112880000I0J-150000D01*
G01*
X173630000Y-113180000D01*
G75*
G02*
X173480000Y-113330000I-150000J0D01*
G01*
X171830000Y-113330000D01*
G75*
G02*
X171680000Y-113180000I0J150000D01*
G01*
G37*
%TD*%
D17*
%TO.C,J5*%
X164465000Y-123840000D03*
X164465000Y-122540000D03*
%TD*%
%TO.C,C8*%
G36*
G01*
X155945000Y-107299999D02*
X155945000Y-108600001D01*
G75*
G02*
X155695001Y-108850000I-249999J0D01*
G01*
X154869999Y-108850000D01*
G75*
G02*
X154620000Y-108600001I0J249999D01*
G01*
X154620000Y-107299999D01*
G75*
G02*
X154869999Y-107050000I249999J0D01*
G01*
X155695001Y-107050000D01*
G75*
G02*
X155945000Y-107299999I0J-249999D01*
G01*
G37*
G36*
G01*
X159070000Y-107299999D02*
X159070000Y-108600001D01*
G75*
G02*
X158820001Y-108850000I-249999J0D01*
G01*
X157994999Y-108850000D01*
G75*
G02*
X157745000Y-108600001I0J249999D01*
G01*
X157745000Y-107299999D01*
G75*
G02*
X157994999Y-107050000I249999J0D01*
G01*
X158820001Y-107050000D01*
G75*
G02*
X159070000Y-107299999I0J-249999D01*
G01*
G37*
%TD*%
%TO.C,C9*%
G36*
G01*
X159070000Y-110474999D02*
X159070000Y-111775001D01*
G75*
G02*
X158820001Y-112025000I-249999J0D01*
G01*
X157994999Y-112025000D01*
G75*
G02*
X157745000Y-111775001I0J249999D01*
G01*
X157745000Y-110474999D01*
G75*
G02*
X157994999Y-110225000I249999J0D01*
G01*
X158820001Y-110225000D01*
G75*
G02*
X159070000Y-110474999I0J-249999D01*
G01*
G37*
G36*
G01*
X155945000Y-110474999D02*
X155945000Y-111775001D01*
G75*
G02*
X155695001Y-112025000I-249999J0D01*
G01*
X154869999Y-112025000D01*
G75*
G02*
X154620000Y-111775001I0J249999D01*
G01*
X154620000Y-110474999D01*
G75*
G02*
X154869999Y-110225000I249999J0D01*
G01*
X155695001Y-110225000D01*
G75*
G02*
X155945000Y-110474999I0J-249999D01*
G01*
G37*
%TD*%
%TO.C,U2*%
G36*
G01*
X154538000Y-113688000D02*
X154538000Y-113388000D01*
G75*
G02*
X154688000Y-113238000I150000J0D01*
G01*
X156338000Y-113238000D01*
G75*
G02*
X156488000Y-113388000I0J-150000D01*
G01*
X156488000Y-113688000D01*
G75*
G02*
X156338000Y-113838000I-150000J0D01*
G01*
X154688000Y-113838000D01*
G75*
G02*
X154538000Y-113688000I0J150000D01*
G01*
G37*
G36*
G01*
X154538000Y-114958000D02*
X154538000Y-114658000D01*
G75*
G02*
X154688000Y-114508000I150000J0D01*
G01*
X156338000Y-114508000D01*
G75*
G02*
X156488000Y-114658000I0J-150000D01*
G01*
X156488000Y-114958000D01*
G75*
G02*
X156338000Y-115108000I-150000J0D01*
G01*
X154688000Y-115108000D01*
G75*
G02*
X154538000Y-114958000I0J150000D01*
G01*
G37*
G36*
G01*
X154538000Y-116228000D02*
X154538000Y-115928000D01*
G75*
G02*
X154688000Y-115778000I150000J0D01*
G01*
X156338000Y-115778000D01*
G75*
G02*
X156488000Y-115928000I0J-150000D01*
G01*
X156488000Y-116228000D01*
G75*
G02*
X156338000Y-116378000I-150000J0D01*
G01*
X154688000Y-116378000D01*
G75*
G02*
X154538000Y-116228000I0J150000D01*
G01*
G37*
G36*
G01*
X154538000Y-117498000D02*
X154538000Y-117198000D01*
G75*
G02*
X154688000Y-117048000I150000J0D01*
G01*
X156338000Y-117048000D01*
G75*
G02*
X156488000Y-117198000I0J-150000D01*
G01*
X156488000Y-117498000D01*
G75*
G02*
X156338000Y-117648000I-150000J0D01*
G01*
X154688000Y-117648000D01*
G75*
G02*
X154538000Y-117498000I0J150000D01*
G01*
G37*
G36*
G01*
X154538000Y-118768000D02*
X154538000Y-118468000D01*
G75*
G02*
X154688000Y-118318000I150000J0D01*
G01*
X156338000Y-118318000D01*
G75*
G02*
X156488000Y-118468000I0J-150000D01*
G01*
X156488000Y-118768000D01*
G75*
G02*
X156338000Y-118918000I-150000J0D01*
G01*
X154688000Y-118918000D01*
G75*
G02*
X154538000Y-118768000I0J150000D01*
G01*
G37*
G36*
G01*
X154538000Y-120038000D02*
X154538000Y-119738000D01*
G75*
G02*
X154688000Y-119588000I150000J0D01*
G01*
X156338000Y-119588000D01*
G75*
G02*
X156488000Y-119738000I0J-150000D01*
G01*
X156488000Y-120038000D01*
G75*
G02*
X156338000Y-120188000I-150000J0D01*
G01*
X154688000Y-120188000D01*
G75*
G02*
X154538000Y-120038000I0J150000D01*
G01*
G37*
G36*
G01*
X154538000Y-121308000D02*
X154538000Y-121008000D01*
G75*
G02*
X154688000Y-120858000I150000J0D01*
G01*
X156338000Y-120858000D01*
G75*
G02*
X156488000Y-121008000I0J-150000D01*
G01*
X156488000Y-121308000D01*
G75*
G02*
X156338000Y-121458000I-150000J0D01*
G01*
X154688000Y-121458000D01*
G75*
G02*
X154538000Y-121308000I0J150000D01*
G01*
G37*
G36*
G01*
X159488000Y-121308000D02*
X159488000Y-121008000D01*
G75*
G02*
X159638000Y-120858000I150000J0D01*
G01*
X161288000Y-120858000D01*
G75*
G02*
X161438000Y-121008000I0J-150000D01*
G01*
X161438000Y-121308000D01*
G75*
G02*
X161288000Y-121458000I-150000J0D01*
G01*
X159638000Y-121458000D01*
G75*
G02*
X159488000Y-121308000I0J150000D01*
G01*
G37*
G36*
G01*
X159488000Y-120038000D02*
X159488000Y-119738000D01*
G75*
G02*
X159638000Y-119588000I150000J0D01*
G01*
X161288000Y-119588000D01*
G75*
G02*
X161438000Y-119738000I0J-150000D01*
G01*
X161438000Y-120038000D01*
G75*
G02*
X161288000Y-120188000I-150000J0D01*
G01*
X159638000Y-120188000D01*
G75*
G02*
X159488000Y-120038000I0J150000D01*
G01*
G37*
G36*
G01*
X159488000Y-118768000D02*
X159488000Y-118468000D01*
G75*
G02*
X159638000Y-118318000I150000J0D01*
G01*
X161288000Y-118318000D01*
G75*
G02*
X161438000Y-118468000I0J-150000D01*
G01*
X161438000Y-118768000D01*
G75*
G02*
X161288000Y-118918000I-150000J0D01*
G01*
X159638000Y-118918000D01*
G75*
G02*
X159488000Y-118768000I0J150000D01*
G01*
G37*
G36*
G01*
X159488000Y-117498000D02*
X159488000Y-117198000D01*
G75*
G02*
X159638000Y-117048000I150000J0D01*
G01*
X161288000Y-117048000D01*
G75*
G02*
X161438000Y-117198000I0J-150000D01*
G01*
X161438000Y-117498000D01*
G75*
G02*
X161288000Y-117648000I-150000J0D01*
G01*
X159638000Y-117648000D01*
G75*
G02*
X159488000Y-117498000I0J150000D01*
G01*
G37*
G36*
G01*
X159488000Y-116228000D02*
X159488000Y-115928000D01*
G75*
G02*
X159638000Y-115778000I150000J0D01*
G01*
X161288000Y-115778000D01*
G75*
G02*
X161438000Y-115928000I0J-150000D01*
G01*
X161438000Y-116228000D01*
G75*
G02*
X161288000Y-116378000I-150000J0D01*
G01*
X159638000Y-116378000D01*
G75*
G02*
X159488000Y-116228000I0J150000D01*
G01*
G37*
G36*
G01*
X159488000Y-114958000D02*
X159488000Y-114658000D01*
G75*
G02*
X159638000Y-114508000I150000J0D01*
G01*
X161288000Y-114508000D01*
G75*
G02*
X161438000Y-114658000I0J-150000D01*
G01*
X161438000Y-114958000D01*
G75*
G02*
X161288000Y-115108000I-150000J0D01*
G01*
X159638000Y-115108000D01*
G75*
G02*
X159488000Y-114958000I0J150000D01*
G01*
G37*
G36*
G01*
X159488000Y-113688000D02*
X159488000Y-113388000D01*
G75*
G02*
X159638000Y-113238000I150000J0D01*
G01*
X161288000Y-113238000D01*
G75*
G02*
X161438000Y-113388000I0J-150000D01*
G01*
X161438000Y-113688000D01*
G75*
G02*
X161288000Y-113838000I-150000J0D01*
G01*
X159638000Y-113838000D01*
G75*
G02*
X159488000Y-113688000I0J150000D01*
G01*
G37*
%TD*%
D18*
%TO.C,J4*%
X152400000Y-112395000D03*
D19*
X152400000Y-114935000D03*
X152400000Y-117475000D03*
X152400000Y-120015000D03*
%TD*%
D18*
%TO.C,J6*%
X159385000Y-124460000D03*
D19*
X161925000Y-124460000D03*
%TD*%
M02*
