%TF.GenerationSoftware,KiCad,Pcbnew,(5.1.9)-1*%
%TF.CreationDate,2021-11-14T21:39:45-06:00*%
%TF.ProjectId,BLDC_Cont,424c4443-5f43-46f6-9e74-2e6b69636164,rev?*%
%TF.SameCoordinates,Original*%
%TF.FileFunction,Legend,Bot*%
%TF.FilePolarity,Positive*%
%FSLAX46Y46*%
G04 Gerber Fmt 4.6, Leading zero omitted, Abs format (unit mm)*
G04 Created by KiCad (PCBNEW (5.1.9)-1) date 2021-11-14 21:39:45*
%MOMM*%
%LPD*%
G01*
G04 APERTURE LIST*
%ADD10C,0.200000*%
%ADD11C,0.150000*%
%ADD12C,0.120000*%
G04 APERTURE END LIST*
D10*
X162686904Y-122055000D02*
X162782142Y-122007380D01*
X162925000Y-122007380D01*
X163067857Y-122055000D01*
X163163095Y-122150238D01*
X163210714Y-122245476D01*
X163258333Y-122435952D01*
X163258333Y-122578809D01*
X163210714Y-122769285D01*
X163163095Y-122864523D01*
X163067857Y-122959761D01*
X162925000Y-123007380D01*
X162829761Y-123007380D01*
X162686904Y-122959761D01*
X162639285Y-122912142D01*
X162639285Y-122578809D01*
X162829761Y-122578809D01*
X162210714Y-123007380D02*
X162210714Y-122007380D01*
X161639285Y-123007380D01*
X161639285Y-122007380D01*
X161163095Y-123007380D02*
X161163095Y-122007380D01*
X160925000Y-122007380D01*
X160782142Y-122055000D01*
X160686904Y-122150238D01*
X160639285Y-122245476D01*
X160591666Y-122435952D01*
X160591666Y-122578809D01*
X160639285Y-122769285D01*
X160686904Y-122864523D01*
X160782142Y-122959761D01*
X160925000Y-123007380D01*
X161163095Y-123007380D01*
D11*
X188721904Y-124658333D02*
X188769523Y-124610714D01*
X188864761Y-124467857D01*
X188912380Y-124372619D01*
X188960000Y-124229761D01*
X189007619Y-123991666D01*
X189007619Y-123801190D01*
X188960000Y-123563095D01*
X188912380Y-123420238D01*
X188864761Y-123325000D01*
X188769523Y-123182142D01*
X188721904Y-123134523D01*
X188340952Y-123896428D02*
X187579047Y-123896428D01*
X187198095Y-124658333D02*
X187150476Y-124610714D01*
X187055238Y-124467857D01*
X187007619Y-124372619D01*
X186960000Y-124229761D01*
X186912380Y-123991666D01*
X186912380Y-123801190D01*
X186960000Y-123563095D01*
X187007619Y-123420238D01*
X187055238Y-123325000D01*
X187150476Y-123182142D01*
X187198095Y-123134523D01*
X188721904Y-107513333D02*
X188769523Y-107465714D01*
X188864761Y-107322857D01*
X188912380Y-107227619D01*
X188960000Y-107084761D01*
X189007619Y-106846666D01*
X189007619Y-106656190D01*
X188960000Y-106418095D01*
X188912380Y-106275238D01*
X188864761Y-106180000D01*
X188769523Y-106037142D01*
X188721904Y-105989523D01*
X188340952Y-106751428D02*
X187579047Y-106751428D01*
X187960000Y-107132380D02*
X187960000Y-106370476D01*
X187198095Y-107513333D02*
X187150476Y-107465714D01*
X187055238Y-107322857D01*
X187007619Y-107227619D01*
X186960000Y-107084761D01*
X186912380Y-106846666D01*
X186912380Y-106656190D01*
X186960000Y-106418095D01*
X187007619Y-106275238D01*
X187055238Y-106180000D01*
X187150476Y-106037142D01*
X187198095Y-105989523D01*
X156860714Y-112466428D02*
X156098809Y-112466428D01*
X156479761Y-112847380D02*
X156479761Y-112085476D01*
X155146428Y-111847380D02*
X155622619Y-111847380D01*
X155670238Y-112323571D01*
X155622619Y-112275952D01*
X155527380Y-112228333D01*
X155289285Y-112228333D01*
X155194047Y-112275952D01*
X155146428Y-112323571D01*
X155098809Y-112418809D01*
X155098809Y-112656904D01*
X155146428Y-112752142D01*
X155194047Y-112799761D01*
X155289285Y-112847380D01*
X155527380Y-112847380D01*
X155622619Y-112799761D01*
X155670238Y-112752142D01*
X154813095Y-111847380D02*
X154479761Y-112847380D01*
X154146428Y-111847380D01*
X158495714Y-117927380D02*
X158495714Y-116927380D01*
X158114761Y-116927380D01*
X158019523Y-116975000D01*
X157971904Y-117022619D01*
X157924285Y-117117857D01*
X157924285Y-117260714D01*
X157971904Y-117355952D01*
X158019523Y-117403571D01*
X158114761Y-117451190D01*
X158495714Y-117451190D01*
X157590952Y-116927380D02*
X157352857Y-117927380D01*
X157162380Y-117213095D01*
X156971904Y-117927380D01*
X156733809Y-116927380D01*
X156352857Y-117927380D02*
X156352857Y-116927380D01*
X156019523Y-117641666D01*
X155686190Y-116927380D01*
X155686190Y-117927380D01*
X155448095Y-118022619D02*
X154686190Y-118022619D01*
X154114761Y-117403571D02*
X153971904Y-117451190D01*
X153924285Y-117498809D01*
X153876666Y-117594047D01*
X153876666Y-117736904D01*
X153924285Y-117832142D01*
X153971904Y-117879761D01*
X154067142Y-117927380D01*
X154448095Y-117927380D01*
X154448095Y-116927380D01*
X154114761Y-116927380D01*
X154019523Y-116975000D01*
X153971904Y-117022619D01*
X153924285Y-117117857D01*
X153924285Y-117213095D01*
X153971904Y-117308333D01*
X154019523Y-117355952D01*
X154114761Y-117403571D01*
X154448095Y-117403571D01*
X158424285Y-115387380D02*
X158424285Y-114387380D01*
X158043333Y-114387380D01*
X157948095Y-114435000D01*
X157900476Y-114482619D01*
X157852857Y-114577857D01*
X157852857Y-114720714D01*
X157900476Y-114815952D01*
X157948095Y-114863571D01*
X158043333Y-114911190D01*
X158424285Y-114911190D01*
X157519523Y-114387380D02*
X157281428Y-115387380D01*
X157090952Y-114673095D01*
X156900476Y-115387380D01*
X156662380Y-114387380D01*
X156281428Y-115387380D02*
X156281428Y-114387380D01*
X155948095Y-115101666D01*
X155614761Y-114387380D01*
X155614761Y-115387380D01*
X155376666Y-115482619D02*
X154614761Y-115482619D01*
X154424285Y-115101666D02*
X153948095Y-115101666D01*
X154519523Y-115387380D02*
X154186190Y-114387380D01*
X153852857Y-115387380D01*
X157971904Y-124531428D02*
X157210000Y-124531428D01*
X157590952Y-124912380D02*
X157590952Y-124150476D01*
X156210000Y-124912380D02*
X156781428Y-124912380D01*
X156495714Y-124912380D02*
X156495714Y-123912380D01*
X156590952Y-124055238D01*
X156686190Y-124150476D01*
X156781428Y-124198095D01*
X155829047Y-124007619D02*
X155781428Y-123960000D01*
X155686190Y-123912380D01*
X155448095Y-123912380D01*
X155352857Y-123960000D01*
X155305238Y-124007619D01*
X155257619Y-124102857D01*
X155257619Y-124198095D01*
X155305238Y-124340952D01*
X155876666Y-124912380D01*
X155257619Y-124912380D01*
X154971904Y-123912380D02*
X154638571Y-124912380D01*
X154305238Y-123912380D01*
D10*
X185515000Y-116022380D02*
X185515000Y-115022380D01*
X185134047Y-115022380D01*
X185038809Y-115070000D01*
X184991190Y-115117619D01*
X184943571Y-115212857D01*
X184943571Y-115355714D01*
X184991190Y-115450952D01*
X185038809Y-115498571D01*
X185134047Y-115546190D01*
X185515000Y-115546190D01*
X184515000Y-116022380D02*
X184515000Y-115022380D01*
X184086428Y-116022380D02*
X184086428Y-115498571D01*
X184134047Y-115403333D01*
X184229285Y-115355714D01*
X184372142Y-115355714D01*
X184467380Y-115403333D01*
X184515000Y-115450952D01*
X183181666Y-116022380D02*
X183181666Y-115498571D01*
X183229285Y-115403333D01*
X183324523Y-115355714D01*
X183515000Y-115355714D01*
X183610238Y-115403333D01*
X183181666Y-115974761D02*
X183276904Y-116022380D01*
X183515000Y-116022380D01*
X183610238Y-115974761D01*
X183657857Y-115879523D01*
X183657857Y-115784285D01*
X183610238Y-115689047D01*
X183515000Y-115641428D01*
X183276904Y-115641428D01*
X183181666Y-115593809D01*
X182753095Y-115974761D02*
X182657857Y-116022380D01*
X182467380Y-116022380D01*
X182372142Y-115974761D01*
X182324523Y-115879523D01*
X182324523Y-115831904D01*
X182372142Y-115736666D01*
X182467380Y-115689047D01*
X182610238Y-115689047D01*
X182705476Y-115641428D01*
X182753095Y-115546190D01*
X182753095Y-115498571D01*
X182705476Y-115403333D01*
X182610238Y-115355714D01*
X182467380Y-115355714D01*
X182372142Y-115403333D01*
X181515000Y-115974761D02*
X181610238Y-116022380D01*
X181800714Y-116022380D01*
X181895952Y-115974761D01*
X181943571Y-115879523D01*
X181943571Y-115498571D01*
X181895952Y-115403333D01*
X181800714Y-115355714D01*
X181610238Y-115355714D01*
X181515000Y-115403333D01*
X181467380Y-115498571D01*
X181467380Y-115593809D01*
X181943571Y-115689047D01*
X156336904Y-119515000D02*
X156432142Y-119467380D01*
X156575000Y-119467380D01*
X156717857Y-119515000D01*
X156813095Y-119610238D01*
X156860714Y-119705476D01*
X156908333Y-119895952D01*
X156908333Y-120038809D01*
X156860714Y-120229285D01*
X156813095Y-120324523D01*
X156717857Y-120419761D01*
X156575000Y-120467380D01*
X156479761Y-120467380D01*
X156336904Y-120419761D01*
X156289285Y-120372142D01*
X156289285Y-120038809D01*
X156479761Y-120038809D01*
X155860714Y-120467380D02*
X155860714Y-119467380D01*
X155289285Y-120467380D01*
X155289285Y-119467380D01*
X154813095Y-120467380D02*
X154813095Y-119467380D01*
X154575000Y-119467380D01*
X154432142Y-119515000D01*
X154336904Y-119610238D01*
X154289285Y-119705476D01*
X154241666Y-119895952D01*
X154241666Y-120038809D01*
X154289285Y-120229285D01*
X154336904Y-120324523D01*
X154432142Y-120419761D01*
X154575000Y-120467380D01*
X154813095Y-120467380D01*
X162623333Y-106767380D02*
X162290000Y-107767380D01*
X161956666Y-106767380D01*
X161623333Y-107767380D02*
X161623333Y-106767380D01*
X161385238Y-106767380D01*
X161242380Y-106815000D01*
X161147142Y-106910238D01*
X161099523Y-107005476D01*
X161051904Y-107195952D01*
X161051904Y-107338809D01*
X161099523Y-107529285D01*
X161147142Y-107624523D01*
X161242380Y-107719761D01*
X161385238Y-107767380D01*
X161623333Y-107767380D01*
X160051904Y-107672142D02*
X160099523Y-107719761D01*
X160242380Y-107767380D01*
X160337619Y-107767380D01*
X160480476Y-107719761D01*
X160575714Y-107624523D01*
X160623333Y-107529285D01*
X160670952Y-107338809D01*
X160670952Y-107195952D01*
X160623333Y-107005476D01*
X160575714Y-106910238D01*
X160480476Y-106815000D01*
X160337619Y-106767380D01*
X160242380Y-106767380D01*
X160099523Y-106815000D01*
X160051904Y-106862619D01*
D12*
%TO.C,J2*%
X163535000Y-105115000D02*
X163535000Y-109515000D01*
X163535000Y-109515000D02*
X167935000Y-109515000D01*
X167935000Y-109515000D02*
X167935000Y-105115000D01*
X167935000Y-105115000D02*
X163535000Y-105115000D01*
%TO.C,Q1*%
X174765000Y-113875000D02*
X174565000Y-113875000D01*
X174565000Y-113875000D02*
X174565000Y-109575000D01*
X174565000Y-109575000D02*
X174715000Y-109575000D01*
X179615000Y-109575000D02*
X179765000Y-109575000D01*
X179765000Y-109575000D02*
X179765000Y-113875000D01*
X179765000Y-113875000D02*
X179565000Y-113875000D01*
%TO.C,D1*%
X184990000Y-114395000D02*
X184580000Y-114395000D01*
X181180000Y-114395000D02*
X180770000Y-114395000D01*
X180770000Y-114395000D02*
X180770000Y-108775000D01*
X184990000Y-108775000D02*
X184990000Y-114395000D01*
X181180000Y-114395000D02*
X181180000Y-115185000D01*
X184990000Y-108775000D02*
X184730000Y-108775000D01*
X181030000Y-108775000D02*
X180770000Y-108775000D01*
%TO.C,D2*%
X179760000Y-117135000D02*
X179500000Y-117135000D01*
X183720000Y-117135000D02*
X183460000Y-117135000D01*
X179910000Y-122755000D02*
X179910000Y-123545000D01*
X183720000Y-117135000D02*
X183720000Y-122755000D01*
X179500000Y-122755000D02*
X179500000Y-117135000D01*
X179910000Y-122755000D02*
X179500000Y-122755000D01*
X183720000Y-122755000D02*
X183310000Y-122755000D01*
%TO.C,Q2*%
X178495000Y-122130000D02*
X178295000Y-122130000D01*
X178495000Y-117830000D02*
X178495000Y-122130000D01*
X178345000Y-117830000D02*
X178495000Y-117830000D01*
X173295000Y-117830000D02*
X173445000Y-117830000D01*
X173295000Y-122130000D02*
X173295000Y-117830000D01*
X173495000Y-122130000D02*
X173295000Y-122130000D01*
%TO.C,R1*%
X170540000Y-115027064D02*
X170540000Y-113572936D01*
X172360000Y-115027064D02*
X172360000Y-113572936D01*
%TO.C,R2*%
X172360000Y-122012064D02*
X172360000Y-120557936D01*
X170540000Y-122012064D02*
X170540000Y-120557936D01*
%TO.C,J1*%
X185760000Y-113370000D02*
X185760000Y-117770000D01*
X185760000Y-117770000D02*
X190160000Y-117770000D01*
X190160000Y-117770000D02*
X190160000Y-113370000D01*
X190160000Y-113370000D02*
X185760000Y-113370000D01*
%TO.C,J3*%
X163535000Y-121625000D02*
X163535000Y-126025000D01*
X167935000Y-121625000D02*
X163535000Y-121625000D01*
X167935000Y-126025000D02*
X167935000Y-121625000D01*
X163535000Y-126025000D02*
X167935000Y-126025000D01*
%TO.C,Q1*%
D11*
X173301428Y-108135000D02*
X173337142Y-108242142D01*
X173372857Y-108277857D01*
X173444285Y-108313571D01*
X173551428Y-108313571D01*
X173622857Y-108277857D01*
X173658571Y-108242142D01*
X173694285Y-108170714D01*
X173694285Y-107885000D01*
X172944285Y-107885000D01*
X172944285Y-108135000D01*
X172980000Y-108206428D01*
X173015714Y-108242142D01*
X173087142Y-108277857D01*
X173158571Y-108277857D01*
X173230000Y-108242142D01*
X173265714Y-108206428D01*
X173301428Y-108135000D01*
X173301428Y-107885000D01*
X172944285Y-108635000D02*
X173551428Y-108635000D01*
X173622857Y-108670714D01*
X173658571Y-108706428D01*
X173694285Y-108777857D01*
X173694285Y-108920714D01*
X173658571Y-108992142D01*
X173622857Y-109027857D01*
X173551428Y-109063571D01*
X172944285Y-109063571D01*
X173694285Y-109420714D02*
X172944285Y-109420714D01*
X173694285Y-109849285D02*
X173265714Y-109527857D01*
X172944285Y-109849285D02*
X173372857Y-109420714D01*
X173694285Y-110206428D02*
X173694285Y-110349285D01*
X173658571Y-110420714D01*
X173622857Y-110456428D01*
X173515714Y-110527857D01*
X173372857Y-110563571D01*
X173087142Y-110563571D01*
X173015714Y-110527857D01*
X172980000Y-110492142D01*
X172944285Y-110420714D01*
X172944285Y-110277857D01*
X172980000Y-110206428D01*
X173015714Y-110170714D01*
X173087142Y-110135000D01*
X173265714Y-110135000D01*
X173337142Y-110170714D01*
X173372857Y-110206428D01*
X173408571Y-110277857D01*
X173408571Y-110420714D01*
X173372857Y-110492142D01*
X173337142Y-110527857D01*
X173265714Y-110563571D01*
X173337142Y-111027857D02*
X173694285Y-111027857D01*
X172944285Y-110777857D02*
X173337142Y-111027857D01*
X172944285Y-111277857D01*
X173694285Y-111920714D02*
X173694285Y-111492142D01*
X173694285Y-111706428D02*
X172944285Y-111706428D01*
X173051428Y-111635000D01*
X173122857Y-111563571D01*
X173158571Y-111492142D01*
X173194285Y-112563571D02*
X173694285Y-112563571D01*
X172908571Y-112385000D02*
X173444285Y-112206428D01*
X173444285Y-112670714D01*
X173408571Y-112956428D02*
X173408571Y-113527857D01*
X173265714Y-113992142D02*
X173230000Y-113920714D01*
X173194285Y-113885000D01*
X173122857Y-113849285D01*
X173087142Y-113849285D01*
X173015714Y-113885000D01*
X172980000Y-113920714D01*
X172944285Y-113992142D01*
X172944285Y-114135000D01*
X172980000Y-114206428D01*
X173015714Y-114242142D01*
X173087142Y-114277857D01*
X173122857Y-114277857D01*
X173194285Y-114242142D01*
X173230000Y-114206428D01*
X173265714Y-114135000D01*
X173265714Y-113992142D01*
X173301428Y-113920714D01*
X173337142Y-113885000D01*
X173408571Y-113849285D01*
X173551428Y-113849285D01*
X173622857Y-113885000D01*
X173658571Y-113920714D01*
X173694285Y-113992142D01*
X173694285Y-114135000D01*
X173658571Y-114206428D01*
X173622857Y-114242142D01*
X173551428Y-114277857D01*
X173408571Y-114277857D01*
X173337142Y-114242142D01*
X173301428Y-114206428D01*
X173265714Y-114135000D01*
X172944285Y-114742142D02*
X172944285Y-114813571D01*
X172980000Y-114885000D01*
X173015714Y-114920714D01*
X173087142Y-114956428D01*
X173230000Y-114992142D01*
X173408571Y-114992142D01*
X173551428Y-114956428D01*
X173622857Y-114920714D01*
X173658571Y-114885000D01*
X173694285Y-114813571D01*
X173694285Y-114742142D01*
X173658571Y-114670714D01*
X173622857Y-114635000D01*
X173551428Y-114599285D01*
X173408571Y-114563571D01*
X173230000Y-114563571D01*
X173087142Y-114599285D01*
X173015714Y-114635000D01*
X172980000Y-114670714D01*
X172944285Y-114742142D01*
X173301428Y-115313571D02*
X173301428Y-115563571D01*
X173694285Y-115670714D02*
X173694285Y-115313571D01*
X172944285Y-115313571D01*
X172944285Y-115670714D01*
%TO.C,D1*%
X185124285Y-116568571D02*
X184374285Y-116568571D01*
X184910000Y-116818571D01*
X184374285Y-117068571D01*
X185124285Y-117068571D01*
X184731428Y-117675714D02*
X184767142Y-117782857D01*
X184802857Y-117818571D01*
X184874285Y-117854285D01*
X184981428Y-117854285D01*
X185052857Y-117818571D01*
X185088571Y-117782857D01*
X185124285Y-117711428D01*
X185124285Y-117425714D01*
X184374285Y-117425714D01*
X184374285Y-117675714D01*
X184410000Y-117747142D01*
X184445714Y-117782857D01*
X184517142Y-117818571D01*
X184588571Y-117818571D01*
X184660000Y-117782857D01*
X184695714Y-117747142D01*
X184731428Y-117675714D01*
X184731428Y-117425714D01*
X185124285Y-118604285D02*
X184767142Y-118354285D01*
X185124285Y-118175714D02*
X184374285Y-118175714D01*
X184374285Y-118461428D01*
X184410000Y-118532857D01*
X184445714Y-118568571D01*
X184517142Y-118604285D01*
X184624285Y-118604285D01*
X184695714Y-118568571D01*
X184731428Y-118532857D01*
X184767142Y-118461428D01*
X184767142Y-118175714D01*
X185124285Y-119318571D02*
X185124285Y-118890000D01*
X185124285Y-119104285D02*
X184374285Y-119104285D01*
X184481428Y-119032857D01*
X184552857Y-118961428D01*
X184588571Y-118890000D01*
X184374285Y-119997142D02*
X184374285Y-119640000D01*
X184731428Y-119604285D01*
X184695714Y-119640000D01*
X184660000Y-119711428D01*
X184660000Y-119890000D01*
X184695714Y-119961428D01*
X184731428Y-119997142D01*
X184802857Y-120032857D01*
X184981428Y-120032857D01*
X185052857Y-119997142D01*
X185088571Y-119961428D01*
X185124285Y-119890000D01*
X185124285Y-119711428D01*
X185088571Y-119640000D01*
X185052857Y-119604285D01*
X184374285Y-120675714D02*
X184374285Y-120532857D01*
X184410000Y-120461428D01*
X184445714Y-120425714D01*
X184552857Y-120354285D01*
X184695714Y-120318571D01*
X184981428Y-120318571D01*
X185052857Y-120354285D01*
X185088571Y-120390000D01*
X185124285Y-120461428D01*
X185124285Y-120604285D01*
X185088571Y-120675714D01*
X185052857Y-120711428D01*
X184981428Y-120747142D01*
X184802857Y-120747142D01*
X184731428Y-120711428D01*
X184695714Y-120675714D01*
X184660000Y-120604285D01*
X184660000Y-120461428D01*
X184695714Y-120390000D01*
X184731428Y-120354285D01*
X184802857Y-120318571D01*
X184374285Y-121211428D02*
X184374285Y-121282857D01*
X184410000Y-121354285D01*
X184445714Y-121390000D01*
X184517142Y-121425714D01*
X184660000Y-121461428D01*
X184838571Y-121461428D01*
X184981428Y-121425714D01*
X185052857Y-121390000D01*
X185088571Y-121354285D01*
X185124285Y-121282857D01*
X185124285Y-121211428D01*
X185088571Y-121140000D01*
X185052857Y-121104285D01*
X184981428Y-121068571D01*
X184838571Y-121032857D01*
X184660000Y-121032857D01*
X184517142Y-121068571D01*
X184445714Y-121104285D01*
X184410000Y-121140000D01*
X184374285Y-121211428D01*
X185088571Y-121747142D02*
X185124285Y-121854285D01*
X185124285Y-122032857D01*
X185088571Y-122104285D01*
X185052857Y-122140000D01*
X184981428Y-122175714D01*
X184910000Y-122175714D01*
X184838571Y-122140000D01*
X184802857Y-122104285D01*
X184767142Y-122032857D01*
X184731428Y-121890000D01*
X184695714Y-121818571D01*
X184660000Y-121782857D01*
X184588571Y-121747142D01*
X184517142Y-121747142D01*
X184445714Y-121782857D01*
X184410000Y-121818571D01*
X184374285Y-121890000D01*
X184374285Y-122068571D01*
X184410000Y-122175714D01*
X184374285Y-122390000D02*
X184374285Y-122818571D01*
X185124285Y-122604285D02*
X184374285Y-122604285D01*
X185124285Y-123497142D02*
X184767142Y-123247142D01*
X185124285Y-123068571D02*
X184374285Y-123068571D01*
X184374285Y-123354285D01*
X184410000Y-123425714D01*
X184445714Y-123461428D01*
X184517142Y-123497142D01*
X184624285Y-123497142D01*
X184695714Y-123461428D01*
X184731428Y-123425714D01*
X184767142Y-123354285D01*
X184767142Y-123068571D01*
%TO.C,R1*%
X171575000Y-114639285D02*
X171825000Y-114282142D01*
X172003571Y-114639285D02*
X172003571Y-113889285D01*
X171717857Y-113889285D01*
X171646428Y-113925000D01*
X171610714Y-113960714D01*
X171575000Y-114032142D01*
X171575000Y-114139285D01*
X171610714Y-114210714D01*
X171646428Y-114246428D01*
X171717857Y-114282142D01*
X172003571Y-114282142D01*
X170860714Y-114639285D02*
X171289285Y-114639285D01*
X171075000Y-114639285D02*
X171075000Y-113889285D01*
X171146428Y-113996428D01*
X171217857Y-114067857D01*
X171289285Y-114103571D01*
X169884285Y-113782142D02*
X169884285Y-113353571D01*
X169884285Y-113567857D02*
X169134285Y-113567857D01*
X169241428Y-113496428D01*
X169312857Y-113425000D01*
X169348571Y-113353571D01*
X169134285Y-114246428D02*
X169134285Y-114317857D01*
X169170000Y-114389285D01*
X169205714Y-114425000D01*
X169277142Y-114460714D01*
X169420000Y-114496428D01*
X169598571Y-114496428D01*
X169741428Y-114460714D01*
X169812857Y-114425000D01*
X169848571Y-114389285D01*
X169884285Y-114317857D01*
X169884285Y-114246428D01*
X169848571Y-114175000D01*
X169812857Y-114139285D01*
X169741428Y-114103571D01*
X169598571Y-114067857D01*
X169420000Y-114067857D01*
X169277142Y-114103571D01*
X169205714Y-114139285D01*
X169170000Y-114175000D01*
X169134285Y-114246428D01*
X169884285Y-115246428D02*
X169527142Y-114996428D01*
X169884285Y-114817857D02*
X169134285Y-114817857D01*
X169134285Y-115103571D01*
X169170000Y-115175000D01*
X169205714Y-115210714D01*
X169277142Y-115246428D01*
X169384285Y-115246428D01*
X169455714Y-115210714D01*
X169491428Y-115175000D01*
X169527142Y-115103571D01*
X169527142Y-114817857D01*
%TO.C,R2*%
X171575000Y-121624285D02*
X171825000Y-121267142D01*
X172003571Y-121624285D02*
X172003571Y-120874285D01*
X171717857Y-120874285D01*
X171646428Y-120910000D01*
X171610714Y-120945714D01*
X171575000Y-121017142D01*
X171575000Y-121124285D01*
X171610714Y-121195714D01*
X171646428Y-121231428D01*
X171717857Y-121267142D01*
X172003571Y-121267142D01*
X171289285Y-120945714D02*
X171253571Y-120910000D01*
X171182142Y-120874285D01*
X171003571Y-120874285D01*
X170932142Y-120910000D01*
X170896428Y-120945714D01*
X170860714Y-121017142D01*
X170860714Y-121088571D01*
X170896428Y-121195714D01*
X171325000Y-121624285D01*
X170860714Y-121624285D01*
D12*
X169906904Y-120732619D02*
X169906904Y-120275476D01*
X169906904Y-120504047D02*
X169106904Y-120504047D01*
X169221190Y-120427857D01*
X169297380Y-120351666D01*
X169335476Y-120275476D01*
X169106904Y-121227857D02*
X169106904Y-121304047D01*
X169145000Y-121380238D01*
X169183095Y-121418333D01*
X169259285Y-121456428D01*
X169411666Y-121494523D01*
X169602142Y-121494523D01*
X169754523Y-121456428D01*
X169830714Y-121418333D01*
X169868809Y-121380238D01*
X169906904Y-121304047D01*
X169906904Y-121227857D01*
X169868809Y-121151666D01*
X169830714Y-121113571D01*
X169754523Y-121075476D01*
X169602142Y-121037380D01*
X169411666Y-121037380D01*
X169259285Y-121075476D01*
X169183095Y-121113571D01*
X169145000Y-121151666D01*
X169106904Y-121227857D01*
X169906904Y-122294523D02*
X169525952Y-122027857D01*
X169906904Y-121837380D02*
X169106904Y-121837380D01*
X169106904Y-122142142D01*
X169145000Y-122218333D01*
X169183095Y-122256428D01*
X169259285Y-122294523D01*
X169373571Y-122294523D01*
X169449761Y-122256428D01*
X169487857Y-122218333D01*
X169525952Y-122142142D01*
X169525952Y-121837380D01*
%TD*%
M02*
