%TF.GenerationSoftware,KiCad,Pcbnew,(5.1.9)-1*%
%TF.CreationDate,2021-11-14T21:39:45-06:00*%
%TF.ProjectId,BLDC_Cont,424c4443-5f43-46f6-9e74-2e6b69636164,rev?*%
%TF.SameCoordinates,Original*%
%TF.FileFunction,Copper,L3,Inr*%
%TF.FilePolarity,Positive*%
%FSLAX46Y46*%
G04 Gerber Fmt 4.6, Leading zero omitted, Abs format (unit mm)*
G04 Created by KiCad (PCBNEW (5.1.9)-1) date 2021-11-14 21:39:45*
%MOMM*%
%LPD*%
G01*
G04 APERTURE LIST*
%TA.AperFunction,ComponentPad*%
%ADD10C,4.000000*%
%TD*%
%TA.AperFunction,ComponentPad*%
%ADD11R,4.000000X4.000000*%
%TD*%
%TA.AperFunction,ComponentPad*%
%ADD12R,1.600000X1.600000*%
%TD*%
%TA.AperFunction,ComponentPad*%
%ADD13C,1.600000*%
%TD*%
%TA.AperFunction,ComponentPad*%
%ADD14R,1.700000X1.700000*%
%TD*%
%TA.AperFunction,ComponentPad*%
%ADD15O,1.700000X1.700000*%
%TD*%
%TA.AperFunction,ViaPad*%
%ADD16C,0.800000*%
%TD*%
%TA.AperFunction,Conductor*%
%ADD17C,1.000000*%
%TD*%
%TA.AperFunction,Conductor*%
%ADD18C,0.500000*%
%TD*%
%TA.AperFunction,Conductor*%
%ADD19C,0.254000*%
%TD*%
%TA.AperFunction,Conductor*%
%ADD20C,0.100000*%
%TD*%
G04 APERTURE END LIST*
D10*
%TO.N,GNDPWR*%
%TO.C,C7*%
X187960000Y-120490000D03*
D11*
%TO.N,+VDC*%
X187960000Y-110490000D03*
%TD*%
D12*
%TO.N,/VDD*%
%TO.C,C6*%
X173990000Y-106045000D03*
D13*
%TO.N,/PHASE*%
X176490000Y-106045000D03*
%TD*%
D14*
%TO.N,+5VD*%
%TO.C,J4*%
X152400000Y-112395000D03*
D15*
%TO.N,/PWM_A*%
X152400000Y-114935000D03*
%TO.N,/PWM_B*%
X152400000Y-117475000D03*
%TO.N,GNDD*%
X152400000Y-120015000D03*
%TD*%
D14*
%TO.N,+12V*%
%TO.C,J6*%
X159385000Y-124460000D03*
D15*
%TO.N,GNDPWR*%
X161925000Y-124460000D03*
%TD*%
D16*
%TO.N,GNDD*%
X155575000Y-121285000D03*
X155575000Y-114935000D03*
%TO.N,+12V*%
X160655000Y-109220000D03*
X161925000Y-109855000D03*
X169545000Y-120015000D03*
X169545000Y-118745000D03*
X169545000Y-117475000D03*
X169545000Y-121285000D03*
%TO.N,+5VD*%
X164465000Y-117182500D03*
X165735000Y-116840000D03*
X167005000Y-116840000D03*
X160305000Y-113380000D03*
X159352500Y-112427500D03*
X158407500Y-111482500D03*
%TO.N,GNDD*%
X155282500Y-111125000D03*
X155282500Y-109512500D03*
X155282500Y-107950000D03*
X156845000Y-114935000D03*
X155575000Y-118745000D03*
X156845000Y-118745000D03*
X156845000Y-121285000D03*
X165100000Y-119843750D03*
X165881250Y-118891250D03*
X167005000Y-118110000D03*
%TO.N,GNDPWR*%
X167005000Y-125095000D03*
X165735000Y-125095000D03*
X164465000Y-125095000D03*
X168275000Y-125095000D03*
X169545000Y-125095000D03*
X170815000Y-125095000D03*
X172085000Y-125095000D03*
X173355000Y-125095000D03*
X174625000Y-125095000D03*
X175895000Y-125095000D03*
X177165000Y-125095000D03*
X178435000Y-125095000D03*
X179705000Y-125095000D03*
X180975000Y-125095000D03*
X182245000Y-125095000D03*
X183515000Y-125095000D03*
X184785000Y-125095000D03*
X186055000Y-125095000D03*
X187325000Y-125095000D03*
%TO.N,/PHASE*%
X176525000Y-114395000D03*
X177805000Y-114395000D03*
X179075000Y-114395000D03*
X181610000Y-114395000D03*
X184055000Y-114395000D03*
%TO.N,/V_OH*%
X173990000Y-114300000D03*
X172655000Y-114300000D03*
X171450000Y-114300000D03*
%TO.N,/V_OL*%
X172720000Y-120650000D03*
X171450000Y-120650000D03*
%TO.N,/PWM_A*%
X158750000Y-118745000D03*
X157480000Y-113665000D03*
%TO.N,+5VD*%
X168275000Y-120650000D03*
X167005000Y-120650000D03*
X158407500Y-107950000D03*
X158407500Y-109562500D03*
%TD*%
D17*
%TO.N,/PHASE*%
X176490000Y-114360000D02*
X176525000Y-114395000D01*
X176490000Y-106045000D02*
X176490000Y-114360000D01*
X176525000Y-114395000D02*
X177805000Y-114395000D01*
X177805000Y-114395000D02*
X179075000Y-114395000D01*
X179075000Y-114395000D02*
X180245000Y-114395000D01*
X180245000Y-114395000D02*
X181515000Y-114395000D01*
X181515000Y-114395000D02*
X181755000Y-114395000D01*
X181515000Y-114395000D02*
X182785000Y-114395000D01*
X182785000Y-114395000D02*
X184055000Y-114395000D01*
X184055000Y-114395000D02*
X184055000Y-114395000D01*
D18*
%TO.N,/PWM_A*%
X157480000Y-113665000D02*
X158750000Y-114935000D01*
X158750000Y-114935000D02*
X158750000Y-118745000D01*
%TD*%
D19*
%TO.N,+5VD*%
X164338000Y-110490000D02*
X164340440Y-110514776D01*
X164347667Y-110538601D01*
X164359403Y-110560557D01*
X164375197Y-110579803D01*
X164394443Y-110595597D01*
X164416399Y-110607333D01*
X164440224Y-110614560D01*
X164465000Y-110617000D01*
X167587394Y-110617000D01*
X170053000Y-113082606D01*
X170053000Y-116569651D01*
X170035256Y-116557795D01*
X169846898Y-116479774D01*
X169646939Y-116440000D01*
X169443061Y-116440000D01*
X169243102Y-116479774D01*
X169054744Y-116557795D01*
X168885226Y-116671063D01*
X168741063Y-116815226D01*
X168627795Y-116984744D01*
X168549774Y-117173102D01*
X168510000Y-117373061D01*
X168510000Y-117576939D01*
X168549774Y-117776898D01*
X168627795Y-117965256D01*
X168724510Y-118110000D01*
X168627795Y-118254744D01*
X168549774Y-118443102D01*
X168510000Y-118643061D01*
X168510000Y-118846939D01*
X168549774Y-119046898D01*
X168627795Y-119235256D01*
X168724510Y-119380000D01*
X168627795Y-119524744D01*
X168549774Y-119713102D01*
X168510000Y-119913061D01*
X168510000Y-120116939D01*
X168549774Y-120316898D01*
X168627795Y-120505256D01*
X168724510Y-120650000D01*
X168627795Y-120794744D01*
X168549774Y-120983102D01*
X168510000Y-121183061D01*
X168510000Y-121386939D01*
X168549774Y-121586898D01*
X168627795Y-121775256D01*
X168639651Y-121793000D01*
X162560000Y-121793000D01*
X162535224Y-121795440D01*
X162511399Y-121802667D01*
X162489443Y-121814403D01*
X162470197Y-121830197D01*
X162454403Y-121849443D01*
X162442667Y-121871399D01*
X162435440Y-121895224D01*
X162433000Y-121920000D01*
X162433000Y-123063068D01*
X162358158Y-123032068D01*
X162071260Y-122975000D01*
X161778740Y-122975000D01*
X161491842Y-123032068D01*
X161221589Y-123144010D01*
X160978368Y-123306525D01*
X160846513Y-123438380D01*
X160824502Y-123365820D01*
X160765537Y-123255506D01*
X160686185Y-123158815D01*
X160589494Y-123079463D01*
X160479180Y-123020498D01*
X160359482Y-122984188D01*
X160235000Y-122971928D01*
X158535000Y-122971928D01*
X158410518Y-122984188D01*
X158290820Y-123020498D01*
X158180506Y-123079463D01*
X158083815Y-123158815D01*
X158004463Y-123255506D01*
X157945498Y-123365820D01*
X157909188Y-123485518D01*
X157896928Y-123610000D01*
X157896928Y-125310000D01*
X157909188Y-125434482D01*
X157945498Y-125554180D01*
X157971593Y-125603000D01*
X151257000Y-125603000D01*
X151257000Y-120972107D01*
X151453368Y-121168475D01*
X151696589Y-121330990D01*
X151966842Y-121442932D01*
X152253740Y-121500000D01*
X152546260Y-121500000D01*
X152833158Y-121442932D01*
X153103411Y-121330990D01*
X153324802Y-121183061D01*
X154540000Y-121183061D01*
X154540000Y-121386939D01*
X154579774Y-121586898D01*
X154657795Y-121775256D01*
X154771063Y-121944774D01*
X154915226Y-122088937D01*
X155084744Y-122202205D01*
X155273102Y-122280226D01*
X155473061Y-122320000D01*
X155676939Y-122320000D01*
X155876898Y-122280226D01*
X156065256Y-122202205D01*
X156210000Y-122105490D01*
X156354744Y-122202205D01*
X156543102Y-122280226D01*
X156743061Y-122320000D01*
X156946939Y-122320000D01*
X157146898Y-122280226D01*
X157335256Y-122202205D01*
X157504774Y-122088937D01*
X157648937Y-121944774D01*
X157762205Y-121775256D01*
X157840226Y-121586898D01*
X157880000Y-121386939D01*
X157880000Y-121183061D01*
X157840226Y-120983102D01*
X157762205Y-120794744D01*
X157648937Y-120625226D01*
X157504774Y-120481063D01*
X157335256Y-120367795D01*
X157146898Y-120289774D01*
X156946939Y-120250000D01*
X156743061Y-120250000D01*
X156543102Y-120289774D01*
X156354744Y-120367795D01*
X156210000Y-120464510D01*
X156065256Y-120367795D01*
X155876898Y-120289774D01*
X155676939Y-120250000D01*
X155473061Y-120250000D01*
X155273102Y-120289774D01*
X155084744Y-120367795D01*
X154915226Y-120481063D01*
X154771063Y-120625226D01*
X154657795Y-120794744D01*
X154579774Y-120983102D01*
X154540000Y-121183061D01*
X153324802Y-121183061D01*
X153346632Y-121168475D01*
X153553475Y-120961632D01*
X153715990Y-120718411D01*
X153827932Y-120448158D01*
X153885000Y-120161260D01*
X153885000Y-119868740D01*
X153827932Y-119581842D01*
X153715990Y-119311589D01*
X153553475Y-119068368D01*
X153346632Y-118861525D01*
X153172240Y-118745000D01*
X153346632Y-118628475D01*
X153553475Y-118421632D01*
X153715990Y-118178411D01*
X153827932Y-117908158D01*
X153885000Y-117621260D01*
X153885000Y-117328740D01*
X153827932Y-117041842D01*
X153715990Y-116771589D01*
X153553475Y-116528368D01*
X153346632Y-116321525D01*
X153172240Y-116205000D01*
X153346632Y-116088475D01*
X153553475Y-115881632D01*
X153715990Y-115638411D01*
X153827932Y-115368158D01*
X153885000Y-115081260D01*
X153885000Y-114833061D01*
X154540000Y-114833061D01*
X154540000Y-115036939D01*
X154579774Y-115236898D01*
X154657795Y-115425256D01*
X154771063Y-115594774D01*
X154915226Y-115738937D01*
X155084744Y-115852205D01*
X155273102Y-115930226D01*
X155473061Y-115970000D01*
X155676939Y-115970000D01*
X155876898Y-115930226D01*
X156065256Y-115852205D01*
X156210000Y-115755490D01*
X156354744Y-115852205D01*
X156543102Y-115930226D01*
X156743061Y-115970000D01*
X156946939Y-115970000D01*
X157146898Y-115930226D01*
X157335256Y-115852205D01*
X157504774Y-115738937D01*
X157648937Y-115594774D01*
X157762205Y-115425256D01*
X157828538Y-115265116D01*
X157865000Y-115301579D01*
X157865001Y-118206544D01*
X157832795Y-118254744D01*
X157797500Y-118339953D01*
X157762205Y-118254744D01*
X157648937Y-118085226D01*
X157504774Y-117941063D01*
X157335256Y-117827795D01*
X157146898Y-117749774D01*
X156946939Y-117710000D01*
X156743061Y-117710000D01*
X156543102Y-117749774D01*
X156354744Y-117827795D01*
X156210000Y-117924510D01*
X156065256Y-117827795D01*
X155876898Y-117749774D01*
X155676939Y-117710000D01*
X155473061Y-117710000D01*
X155273102Y-117749774D01*
X155084744Y-117827795D01*
X154915226Y-117941063D01*
X154771063Y-118085226D01*
X154657795Y-118254744D01*
X154579774Y-118443102D01*
X154540000Y-118643061D01*
X154540000Y-118846939D01*
X154579774Y-119046898D01*
X154657795Y-119235256D01*
X154771063Y-119404774D01*
X154915226Y-119548937D01*
X155084744Y-119662205D01*
X155273102Y-119740226D01*
X155473061Y-119780000D01*
X155676939Y-119780000D01*
X155876898Y-119740226D01*
X156065256Y-119662205D01*
X156210000Y-119565490D01*
X156354744Y-119662205D01*
X156543102Y-119740226D01*
X156743061Y-119780000D01*
X156946939Y-119780000D01*
X157146898Y-119740226D01*
X157335256Y-119662205D01*
X157504774Y-119548937D01*
X157648937Y-119404774D01*
X157762205Y-119235256D01*
X157797500Y-119150047D01*
X157832795Y-119235256D01*
X157946063Y-119404774D01*
X158090226Y-119548937D01*
X158259744Y-119662205D01*
X158448102Y-119740226D01*
X158648061Y-119780000D01*
X158851939Y-119780000D01*
X159043929Y-119741811D01*
X164065000Y-119741811D01*
X164065000Y-119945689D01*
X164104774Y-120145648D01*
X164182795Y-120334006D01*
X164296063Y-120503524D01*
X164440226Y-120647687D01*
X164609744Y-120760955D01*
X164798102Y-120838976D01*
X164998061Y-120878750D01*
X165201939Y-120878750D01*
X165401898Y-120838976D01*
X165590256Y-120760955D01*
X165759774Y-120647687D01*
X165903937Y-120503524D01*
X166017205Y-120334006D01*
X166095226Y-120145648D01*
X166135000Y-119945689D01*
X166135000Y-119896053D01*
X166183148Y-119886476D01*
X166371506Y-119808455D01*
X166541024Y-119695187D01*
X166685187Y-119551024D01*
X166798455Y-119381506D01*
X166876476Y-119193148D01*
X166886700Y-119141746D01*
X166903061Y-119145000D01*
X167106939Y-119145000D01*
X167306898Y-119105226D01*
X167495256Y-119027205D01*
X167664774Y-118913937D01*
X167808937Y-118769774D01*
X167922205Y-118600256D01*
X168000226Y-118411898D01*
X168040000Y-118211939D01*
X168040000Y-118008061D01*
X168000226Y-117808102D01*
X167922205Y-117619744D01*
X167808937Y-117450226D01*
X167664774Y-117306063D01*
X167495256Y-117192795D01*
X167306898Y-117114774D01*
X167106939Y-117075000D01*
X166903061Y-117075000D01*
X166703102Y-117114774D01*
X166514744Y-117192795D01*
X166345226Y-117306063D01*
X166201063Y-117450226D01*
X166087795Y-117619744D01*
X166009774Y-117808102D01*
X165999550Y-117859504D01*
X165983189Y-117856250D01*
X165779311Y-117856250D01*
X165579352Y-117896024D01*
X165390994Y-117974045D01*
X165221476Y-118087313D01*
X165077313Y-118231476D01*
X164964045Y-118400994D01*
X164886024Y-118589352D01*
X164846250Y-118789311D01*
X164846250Y-118838947D01*
X164798102Y-118848524D01*
X164609744Y-118926545D01*
X164440226Y-119039813D01*
X164296063Y-119183976D01*
X164182795Y-119353494D01*
X164104774Y-119541852D01*
X164065000Y-119741811D01*
X159043929Y-119741811D01*
X159051898Y-119740226D01*
X159240256Y-119662205D01*
X159409774Y-119548937D01*
X159553937Y-119404774D01*
X159667205Y-119235256D01*
X159745226Y-119046898D01*
X159785000Y-118846939D01*
X159785000Y-118643061D01*
X159745226Y-118443102D01*
X159667205Y-118254744D01*
X159635000Y-118206546D01*
X159635000Y-114978465D01*
X159639281Y-114934999D01*
X159635000Y-114891533D01*
X159635000Y-114891523D01*
X159622195Y-114761510D01*
X159571589Y-114594687D01*
X159489411Y-114440941D01*
X159378817Y-114306183D01*
X159345050Y-114278471D01*
X158486535Y-113419957D01*
X158475226Y-113363102D01*
X158397205Y-113174744D01*
X158283937Y-113005226D01*
X158139774Y-112861063D01*
X157970256Y-112747795D01*
X157781898Y-112669774D01*
X157581939Y-112630000D01*
X157378061Y-112630000D01*
X157178102Y-112669774D01*
X156989744Y-112747795D01*
X156820226Y-112861063D01*
X156676063Y-113005226D01*
X156562795Y-113174744D01*
X156484774Y-113363102D01*
X156445000Y-113563061D01*
X156445000Y-113766939D01*
X156484229Y-113964160D01*
X156354744Y-114017795D01*
X156210000Y-114114510D01*
X156065256Y-114017795D01*
X155876898Y-113939774D01*
X155676939Y-113900000D01*
X155473061Y-113900000D01*
X155273102Y-113939774D01*
X155084744Y-114017795D01*
X154915226Y-114131063D01*
X154771063Y-114275226D01*
X154657795Y-114444744D01*
X154579774Y-114633102D01*
X154540000Y-114833061D01*
X153885000Y-114833061D01*
X153885000Y-114788740D01*
X153827932Y-114501842D01*
X153715990Y-114231589D01*
X153553475Y-113988368D01*
X153346632Y-113781525D01*
X153103411Y-113619010D01*
X152833158Y-113507068D01*
X152546260Y-113450000D01*
X152253740Y-113450000D01*
X151966842Y-113507068D01*
X151696589Y-113619010D01*
X151453368Y-113781525D01*
X151257000Y-113977893D01*
X151257000Y-107848061D01*
X154247500Y-107848061D01*
X154247500Y-108051939D01*
X154287274Y-108251898D01*
X154365295Y-108440256D01*
X154478563Y-108609774D01*
X154600039Y-108731250D01*
X154478563Y-108852726D01*
X154365295Y-109022244D01*
X154287274Y-109210602D01*
X154247500Y-109410561D01*
X154247500Y-109614439D01*
X154287274Y-109814398D01*
X154365295Y-110002756D01*
X154478563Y-110172274D01*
X154622726Y-110316437D01*
X154626188Y-110318750D01*
X154622726Y-110321063D01*
X154478563Y-110465226D01*
X154365295Y-110634744D01*
X154287274Y-110823102D01*
X154247500Y-111023061D01*
X154247500Y-111226939D01*
X154287274Y-111426898D01*
X154365295Y-111615256D01*
X154478563Y-111784774D01*
X154622726Y-111928937D01*
X154792244Y-112042205D01*
X154980602Y-112120226D01*
X155180561Y-112160000D01*
X155384439Y-112160000D01*
X155584398Y-112120226D01*
X155772756Y-112042205D01*
X155942274Y-111928937D01*
X156086437Y-111784774D01*
X156199705Y-111615256D01*
X156277726Y-111426898D01*
X156317500Y-111226939D01*
X156317500Y-111023061D01*
X156277726Y-110823102D01*
X156199705Y-110634744D01*
X156086437Y-110465226D01*
X155942274Y-110321063D01*
X155938812Y-110318750D01*
X155942274Y-110316437D01*
X156086437Y-110172274D01*
X156199705Y-110002756D01*
X156277726Y-109814398D01*
X156317500Y-109614439D01*
X156317500Y-109410561D01*
X156277726Y-109210602D01*
X156239394Y-109118061D01*
X159620000Y-109118061D01*
X159620000Y-109321939D01*
X159659774Y-109521898D01*
X159737795Y-109710256D01*
X159851063Y-109879774D01*
X159995226Y-110023937D01*
X160164744Y-110137205D01*
X160353102Y-110215226D01*
X160553061Y-110255000D01*
X160756939Y-110255000D01*
X160954160Y-110215771D01*
X161007795Y-110345256D01*
X161121063Y-110514774D01*
X161265226Y-110658937D01*
X161434744Y-110772205D01*
X161623102Y-110850226D01*
X161823061Y-110890000D01*
X162026939Y-110890000D01*
X162226898Y-110850226D01*
X162415256Y-110772205D01*
X162584774Y-110658937D01*
X162728937Y-110514774D01*
X162842205Y-110345256D01*
X162920226Y-110156898D01*
X162960000Y-109956939D01*
X162960000Y-109753061D01*
X162920226Y-109553102D01*
X162842205Y-109364744D01*
X162728937Y-109195226D01*
X162584774Y-109051063D01*
X162415256Y-108937795D01*
X162226898Y-108859774D01*
X162026939Y-108820000D01*
X161823061Y-108820000D01*
X161625840Y-108859229D01*
X161572205Y-108729744D01*
X161458937Y-108560226D01*
X161314774Y-108416063D01*
X161145256Y-108302795D01*
X160956898Y-108224774D01*
X160756939Y-108185000D01*
X160553061Y-108185000D01*
X160353102Y-108224774D01*
X160164744Y-108302795D01*
X159995226Y-108416063D01*
X159851063Y-108560226D01*
X159737795Y-108729744D01*
X159659774Y-108918102D01*
X159620000Y-109118061D01*
X156239394Y-109118061D01*
X156199705Y-109022244D01*
X156086437Y-108852726D01*
X155964961Y-108731250D01*
X156086437Y-108609774D01*
X156199705Y-108440256D01*
X156277726Y-108251898D01*
X156317500Y-108051939D01*
X156317500Y-107848061D01*
X156277726Y-107648102D01*
X156199705Y-107459744D01*
X156086437Y-107290226D01*
X155942274Y-107146063D01*
X155772756Y-107032795D01*
X155584398Y-106954774D01*
X155384439Y-106915000D01*
X155180561Y-106915000D01*
X154980602Y-106954774D01*
X154792244Y-107032795D01*
X154622726Y-107146063D01*
X154478563Y-107290226D01*
X154365295Y-107459744D01*
X154287274Y-107648102D01*
X154247500Y-107848061D01*
X151257000Y-107848061D01*
X151257000Y-105537000D01*
X164338000Y-105537000D01*
X164338000Y-110490000D01*
%TA.AperFunction,Conductor*%
D20*
G36*
X164338000Y-110490000D02*
G01*
X164340440Y-110514776D01*
X164347667Y-110538601D01*
X164359403Y-110560557D01*
X164375197Y-110579803D01*
X164394443Y-110595597D01*
X164416399Y-110607333D01*
X164440224Y-110614560D01*
X164465000Y-110617000D01*
X167587394Y-110617000D01*
X170053000Y-113082606D01*
X170053000Y-116569651D01*
X170035256Y-116557795D01*
X169846898Y-116479774D01*
X169646939Y-116440000D01*
X169443061Y-116440000D01*
X169243102Y-116479774D01*
X169054744Y-116557795D01*
X168885226Y-116671063D01*
X168741063Y-116815226D01*
X168627795Y-116984744D01*
X168549774Y-117173102D01*
X168510000Y-117373061D01*
X168510000Y-117576939D01*
X168549774Y-117776898D01*
X168627795Y-117965256D01*
X168724510Y-118110000D01*
X168627795Y-118254744D01*
X168549774Y-118443102D01*
X168510000Y-118643061D01*
X168510000Y-118846939D01*
X168549774Y-119046898D01*
X168627795Y-119235256D01*
X168724510Y-119380000D01*
X168627795Y-119524744D01*
X168549774Y-119713102D01*
X168510000Y-119913061D01*
X168510000Y-120116939D01*
X168549774Y-120316898D01*
X168627795Y-120505256D01*
X168724510Y-120650000D01*
X168627795Y-120794744D01*
X168549774Y-120983102D01*
X168510000Y-121183061D01*
X168510000Y-121386939D01*
X168549774Y-121586898D01*
X168627795Y-121775256D01*
X168639651Y-121793000D01*
X162560000Y-121793000D01*
X162535224Y-121795440D01*
X162511399Y-121802667D01*
X162489443Y-121814403D01*
X162470197Y-121830197D01*
X162454403Y-121849443D01*
X162442667Y-121871399D01*
X162435440Y-121895224D01*
X162433000Y-121920000D01*
X162433000Y-123063068D01*
X162358158Y-123032068D01*
X162071260Y-122975000D01*
X161778740Y-122975000D01*
X161491842Y-123032068D01*
X161221589Y-123144010D01*
X160978368Y-123306525D01*
X160846513Y-123438380D01*
X160824502Y-123365820D01*
X160765537Y-123255506D01*
X160686185Y-123158815D01*
X160589494Y-123079463D01*
X160479180Y-123020498D01*
X160359482Y-122984188D01*
X160235000Y-122971928D01*
X158535000Y-122971928D01*
X158410518Y-122984188D01*
X158290820Y-123020498D01*
X158180506Y-123079463D01*
X158083815Y-123158815D01*
X158004463Y-123255506D01*
X157945498Y-123365820D01*
X157909188Y-123485518D01*
X157896928Y-123610000D01*
X157896928Y-125310000D01*
X157909188Y-125434482D01*
X157945498Y-125554180D01*
X157971593Y-125603000D01*
X151257000Y-125603000D01*
X151257000Y-120972107D01*
X151453368Y-121168475D01*
X151696589Y-121330990D01*
X151966842Y-121442932D01*
X152253740Y-121500000D01*
X152546260Y-121500000D01*
X152833158Y-121442932D01*
X153103411Y-121330990D01*
X153324802Y-121183061D01*
X154540000Y-121183061D01*
X154540000Y-121386939D01*
X154579774Y-121586898D01*
X154657795Y-121775256D01*
X154771063Y-121944774D01*
X154915226Y-122088937D01*
X155084744Y-122202205D01*
X155273102Y-122280226D01*
X155473061Y-122320000D01*
X155676939Y-122320000D01*
X155876898Y-122280226D01*
X156065256Y-122202205D01*
X156210000Y-122105490D01*
X156354744Y-122202205D01*
X156543102Y-122280226D01*
X156743061Y-122320000D01*
X156946939Y-122320000D01*
X157146898Y-122280226D01*
X157335256Y-122202205D01*
X157504774Y-122088937D01*
X157648937Y-121944774D01*
X157762205Y-121775256D01*
X157840226Y-121586898D01*
X157880000Y-121386939D01*
X157880000Y-121183061D01*
X157840226Y-120983102D01*
X157762205Y-120794744D01*
X157648937Y-120625226D01*
X157504774Y-120481063D01*
X157335256Y-120367795D01*
X157146898Y-120289774D01*
X156946939Y-120250000D01*
X156743061Y-120250000D01*
X156543102Y-120289774D01*
X156354744Y-120367795D01*
X156210000Y-120464510D01*
X156065256Y-120367795D01*
X155876898Y-120289774D01*
X155676939Y-120250000D01*
X155473061Y-120250000D01*
X155273102Y-120289774D01*
X155084744Y-120367795D01*
X154915226Y-120481063D01*
X154771063Y-120625226D01*
X154657795Y-120794744D01*
X154579774Y-120983102D01*
X154540000Y-121183061D01*
X153324802Y-121183061D01*
X153346632Y-121168475D01*
X153553475Y-120961632D01*
X153715990Y-120718411D01*
X153827932Y-120448158D01*
X153885000Y-120161260D01*
X153885000Y-119868740D01*
X153827932Y-119581842D01*
X153715990Y-119311589D01*
X153553475Y-119068368D01*
X153346632Y-118861525D01*
X153172240Y-118745000D01*
X153346632Y-118628475D01*
X153553475Y-118421632D01*
X153715990Y-118178411D01*
X153827932Y-117908158D01*
X153885000Y-117621260D01*
X153885000Y-117328740D01*
X153827932Y-117041842D01*
X153715990Y-116771589D01*
X153553475Y-116528368D01*
X153346632Y-116321525D01*
X153172240Y-116205000D01*
X153346632Y-116088475D01*
X153553475Y-115881632D01*
X153715990Y-115638411D01*
X153827932Y-115368158D01*
X153885000Y-115081260D01*
X153885000Y-114833061D01*
X154540000Y-114833061D01*
X154540000Y-115036939D01*
X154579774Y-115236898D01*
X154657795Y-115425256D01*
X154771063Y-115594774D01*
X154915226Y-115738937D01*
X155084744Y-115852205D01*
X155273102Y-115930226D01*
X155473061Y-115970000D01*
X155676939Y-115970000D01*
X155876898Y-115930226D01*
X156065256Y-115852205D01*
X156210000Y-115755490D01*
X156354744Y-115852205D01*
X156543102Y-115930226D01*
X156743061Y-115970000D01*
X156946939Y-115970000D01*
X157146898Y-115930226D01*
X157335256Y-115852205D01*
X157504774Y-115738937D01*
X157648937Y-115594774D01*
X157762205Y-115425256D01*
X157828538Y-115265116D01*
X157865000Y-115301579D01*
X157865001Y-118206544D01*
X157832795Y-118254744D01*
X157797500Y-118339953D01*
X157762205Y-118254744D01*
X157648937Y-118085226D01*
X157504774Y-117941063D01*
X157335256Y-117827795D01*
X157146898Y-117749774D01*
X156946939Y-117710000D01*
X156743061Y-117710000D01*
X156543102Y-117749774D01*
X156354744Y-117827795D01*
X156210000Y-117924510D01*
X156065256Y-117827795D01*
X155876898Y-117749774D01*
X155676939Y-117710000D01*
X155473061Y-117710000D01*
X155273102Y-117749774D01*
X155084744Y-117827795D01*
X154915226Y-117941063D01*
X154771063Y-118085226D01*
X154657795Y-118254744D01*
X154579774Y-118443102D01*
X154540000Y-118643061D01*
X154540000Y-118846939D01*
X154579774Y-119046898D01*
X154657795Y-119235256D01*
X154771063Y-119404774D01*
X154915226Y-119548937D01*
X155084744Y-119662205D01*
X155273102Y-119740226D01*
X155473061Y-119780000D01*
X155676939Y-119780000D01*
X155876898Y-119740226D01*
X156065256Y-119662205D01*
X156210000Y-119565490D01*
X156354744Y-119662205D01*
X156543102Y-119740226D01*
X156743061Y-119780000D01*
X156946939Y-119780000D01*
X157146898Y-119740226D01*
X157335256Y-119662205D01*
X157504774Y-119548937D01*
X157648937Y-119404774D01*
X157762205Y-119235256D01*
X157797500Y-119150047D01*
X157832795Y-119235256D01*
X157946063Y-119404774D01*
X158090226Y-119548937D01*
X158259744Y-119662205D01*
X158448102Y-119740226D01*
X158648061Y-119780000D01*
X158851939Y-119780000D01*
X159043929Y-119741811D01*
X164065000Y-119741811D01*
X164065000Y-119945689D01*
X164104774Y-120145648D01*
X164182795Y-120334006D01*
X164296063Y-120503524D01*
X164440226Y-120647687D01*
X164609744Y-120760955D01*
X164798102Y-120838976D01*
X164998061Y-120878750D01*
X165201939Y-120878750D01*
X165401898Y-120838976D01*
X165590256Y-120760955D01*
X165759774Y-120647687D01*
X165903937Y-120503524D01*
X166017205Y-120334006D01*
X166095226Y-120145648D01*
X166135000Y-119945689D01*
X166135000Y-119896053D01*
X166183148Y-119886476D01*
X166371506Y-119808455D01*
X166541024Y-119695187D01*
X166685187Y-119551024D01*
X166798455Y-119381506D01*
X166876476Y-119193148D01*
X166886700Y-119141746D01*
X166903061Y-119145000D01*
X167106939Y-119145000D01*
X167306898Y-119105226D01*
X167495256Y-119027205D01*
X167664774Y-118913937D01*
X167808937Y-118769774D01*
X167922205Y-118600256D01*
X168000226Y-118411898D01*
X168040000Y-118211939D01*
X168040000Y-118008061D01*
X168000226Y-117808102D01*
X167922205Y-117619744D01*
X167808937Y-117450226D01*
X167664774Y-117306063D01*
X167495256Y-117192795D01*
X167306898Y-117114774D01*
X167106939Y-117075000D01*
X166903061Y-117075000D01*
X166703102Y-117114774D01*
X166514744Y-117192795D01*
X166345226Y-117306063D01*
X166201063Y-117450226D01*
X166087795Y-117619744D01*
X166009774Y-117808102D01*
X165999550Y-117859504D01*
X165983189Y-117856250D01*
X165779311Y-117856250D01*
X165579352Y-117896024D01*
X165390994Y-117974045D01*
X165221476Y-118087313D01*
X165077313Y-118231476D01*
X164964045Y-118400994D01*
X164886024Y-118589352D01*
X164846250Y-118789311D01*
X164846250Y-118838947D01*
X164798102Y-118848524D01*
X164609744Y-118926545D01*
X164440226Y-119039813D01*
X164296063Y-119183976D01*
X164182795Y-119353494D01*
X164104774Y-119541852D01*
X164065000Y-119741811D01*
X159043929Y-119741811D01*
X159051898Y-119740226D01*
X159240256Y-119662205D01*
X159409774Y-119548937D01*
X159553937Y-119404774D01*
X159667205Y-119235256D01*
X159745226Y-119046898D01*
X159785000Y-118846939D01*
X159785000Y-118643061D01*
X159745226Y-118443102D01*
X159667205Y-118254744D01*
X159635000Y-118206546D01*
X159635000Y-114978465D01*
X159639281Y-114934999D01*
X159635000Y-114891533D01*
X159635000Y-114891523D01*
X159622195Y-114761510D01*
X159571589Y-114594687D01*
X159489411Y-114440941D01*
X159378817Y-114306183D01*
X159345050Y-114278471D01*
X158486535Y-113419957D01*
X158475226Y-113363102D01*
X158397205Y-113174744D01*
X158283937Y-113005226D01*
X158139774Y-112861063D01*
X157970256Y-112747795D01*
X157781898Y-112669774D01*
X157581939Y-112630000D01*
X157378061Y-112630000D01*
X157178102Y-112669774D01*
X156989744Y-112747795D01*
X156820226Y-112861063D01*
X156676063Y-113005226D01*
X156562795Y-113174744D01*
X156484774Y-113363102D01*
X156445000Y-113563061D01*
X156445000Y-113766939D01*
X156484229Y-113964160D01*
X156354744Y-114017795D01*
X156210000Y-114114510D01*
X156065256Y-114017795D01*
X155876898Y-113939774D01*
X155676939Y-113900000D01*
X155473061Y-113900000D01*
X155273102Y-113939774D01*
X155084744Y-114017795D01*
X154915226Y-114131063D01*
X154771063Y-114275226D01*
X154657795Y-114444744D01*
X154579774Y-114633102D01*
X154540000Y-114833061D01*
X153885000Y-114833061D01*
X153885000Y-114788740D01*
X153827932Y-114501842D01*
X153715990Y-114231589D01*
X153553475Y-113988368D01*
X153346632Y-113781525D01*
X153103411Y-113619010D01*
X152833158Y-113507068D01*
X152546260Y-113450000D01*
X152253740Y-113450000D01*
X151966842Y-113507068D01*
X151696589Y-113619010D01*
X151453368Y-113781525D01*
X151257000Y-113977893D01*
X151257000Y-107848061D01*
X154247500Y-107848061D01*
X154247500Y-108051939D01*
X154287274Y-108251898D01*
X154365295Y-108440256D01*
X154478563Y-108609774D01*
X154600039Y-108731250D01*
X154478563Y-108852726D01*
X154365295Y-109022244D01*
X154287274Y-109210602D01*
X154247500Y-109410561D01*
X154247500Y-109614439D01*
X154287274Y-109814398D01*
X154365295Y-110002756D01*
X154478563Y-110172274D01*
X154622726Y-110316437D01*
X154626188Y-110318750D01*
X154622726Y-110321063D01*
X154478563Y-110465226D01*
X154365295Y-110634744D01*
X154287274Y-110823102D01*
X154247500Y-111023061D01*
X154247500Y-111226939D01*
X154287274Y-111426898D01*
X154365295Y-111615256D01*
X154478563Y-111784774D01*
X154622726Y-111928937D01*
X154792244Y-112042205D01*
X154980602Y-112120226D01*
X155180561Y-112160000D01*
X155384439Y-112160000D01*
X155584398Y-112120226D01*
X155772756Y-112042205D01*
X155942274Y-111928937D01*
X156086437Y-111784774D01*
X156199705Y-111615256D01*
X156277726Y-111426898D01*
X156317500Y-111226939D01*
X156317500Y-111023061D01*
X156277726Y-110823102D01*
X156199705Y-110634744D01*
X156086437Y-110465226D01*
X155942274Y-110321063D01*
X155938812Y-110318750D01*
X155942274Y-110316437D01*
X156086437Y-110172274D01*
X156199705Y-110002756D01*
X156277726Y-109814398D01*
X156317500Y-109614439D01*
X156317500Y-109410561D01*
X156277726Y-109210602D01*
X156239394Y-109118061D01*
X159620000Y-109118061D01*
X159620000Y-109321939D01*
X159659774Y-109521898D01*
X159737795Y-109710256D01*
X159851063Y-109879774D01*
X159995226Y-110023937D01*
X160164744Y-110137205D01*
X160353102Y-110215226D01*
X160553061Y-110255000D01*
X160756939Y-110255000D01*
X160954160Y-110215771D01*
X161007795Y-110345256D01*
X161121063Y-110514774D01*
X161265226Y-110658937D01*
X161434744Y-110772205D01*
X161623102Y-110850226D01*
X161823061Y-110890000D01*
X162026939Y-110890000D01*
X162226898Y-110850226D01*
X162415256Y-110772205D01*
X162584774Y-110658937D01*
X162728937Y-110514774D01*
X162842205Y-110345256D01*
X162920226Y-110156898D01*
X162960000Y-109956939D01*
X162960000Y-109753061D01*
X162920226Y-109553102D01*
X162842205Y-109364744D01*
X162728937Y-109195226D01*
X162584774Y-109051063D01*
X162415256Y-108937795D01*
X162226898Y-108859774D01*
X162026939Y-108820000D01*
X161823061Y-108820000D01*
X161625840Y-108859229D01*
X161572205Y-108729744D01*
X161458937Y-108560226D01*
X161314774Y-108416063D01*
X161145256Y-108302795D01*
X160956898Y-108224774D01*
X160756939Y-108185000D01*
X160553061Y-108185000D01*
X160353102Y-108224774D01*
X160164744Y-108302795D01*
X159995226Y-108416063D01*
X159851063Y-108560226D01*
X159737795Y-108729744D01*
X159659774Y-108918102D01*
X159620000Y-109118061D01*
X156239394Y-109118061D01*
X156199705Y-109022244D01*
X156086437Y-108852726D01*
X155964961Y-108731250D01*
X156086437Y-108609774D01*
X156199705Y-108440256D01*
X156277726Y-108251898D01*
X156317500Y-108051939D01*
X156317500Y-107848061D01*
X156277726Y-107648102D01*
X156199705Y-107459744D01*
X156086437Y-107290226D01*
X155942274Y-107146063D01*
X155772756Y-107032795D01*
X155584398Y-106954774D01*
X155384439Y-106915000D01*
X155180561Y-106915000D01*
X154980602Y-106954774D01*
X154792244Y-107032795D01*
X154622726Y-107146063D01*
X154478563Y-107290226D01*
X154365295Y-107459744D01*
X154287274Y-107648102D01*
X154247500Y-107848061D01*
X151257000Y-107848061D01*
X151257000Y-105537000D01*
X164338000Y-105537000D01*
X164338000Y-110490000D01*
G37*
%TD.AperFunction*%
%TD*%
M02*
