%TF.GenerationSoftware,KiCad,Pcbnew,(5.1.9)-1*%
%TF.CreationDate,2021-10-27T02:20:14-05:00*%
%TF.ProjectId,BLDC_Cont,424c4443-5f43-46f6-9e74-2e6b69636164,rev?*%
%TF.SameCoordinates,Original*%
%TF.FileFunction,Paste,Top*%
%TF.FilePolarity,Positive*%
%FSLAX46Y46*%
G04 Gerber Fmt 4.6, Leading zero omitted, Abs format (unit mm)*
G04 Created by KiCad (PCBNEW (5.1.9)-1) date 2021-10-27 02:20:14*
%MOMM*%
%LPD*%
G01*
G04 APERTURE LIST*
%ADD10R,1.000000X0.950000*%
%ADD11R,1.200000X1.300000*%
%ADD12R,1.200000X0.900000*%
G04 APERTURE END LIST*
D10*
%TO.C,D3*%
X163855000Y-108920000D03*
X163855000Y-106980000D03*
D11*
X166405000Y-108850000D03*
X168205000Y-108850000D03*
X166405000Y-107050000D03*
X168205000Y-107050000D03*
X170005000Y-108850000D03*
X170005000Y-107050000D03*
%TD*%
%TO.C,C1*%
G36*
G01*
X163814998Y-116520000D02*
X165115002Y-116520000D01*
G75*
G02*
X165365000Y-116769998I0J-249998D01*
G01*
X165365000Y-117595002D01*
G75*
G02*
X165115002Y-117845000I-249998J0D01*
G01*
X163814998Y-117845000D01*
G75*
G02*
X163565000Y-117595002I0J249998D01*
G01*
X163565000Y-116769998D01*
G75*
G02*
X163814998Y-116520000I249998J0D01*
G01*
G37*
G36*
G01*
X163814998Y-119645000D02*
X165115002Y-119645000D01*
G75*
G02*
X165365000Y-119894998I0J-249998D01*
G01*
X165365000Y-120720002D01*
G75*
G02*
X165115002Y-120970000I-249998J0D01*
G01*
X163814998Y-120970000D01*
G75*
G02*
X163565000Y-120720002I0J249998D01*
G01*
X163565000Y-119894998D01*
G75*
G02*
X163814998Y-119645000I249998J0D01*
G01*
G37*
%TD*%
%TO.C,C2*%
G36*
G01*
X175244998Y-119302500D02*
X176545002Y-119302500D01*
G75*
G02*
X176795000Y-119552498I0J-249998D01*
G01*
X176795000Y-120377502D01*
G75*
G02*
X176545002Y-120627500I-249998J0D01*
G01*
X175244998Y-120627500D01*
G75*
G02*
X174995000Y-120377502I0J249998D01*
G01*
X174995000Y-119552498D01*
G75*
G02*
X175244998Y-119302500I249998J0D01*
G01*
G37*
G36*
G01*
X175244998Y-116177500D02*
X176545002Y-116177500D01*
G75*
G02*
X176795000Y-116427498I0J-249998D01*
G01*
X176795000Y-117252502D01*
G75*
G02*
X176545002Y-117502500I-249998J0D01*
G01*
X175244998Y-117502500D01*
G75*
G02*
X174995000Y-117252502I0J249998D01*
G01*
X174995000Y-116427498D01*
G75*
G02*
X175244998Y-116177500I249998J0D01*
G01*
G37*
%TD*%
%TO.C,C3*%
G36*
G01*
X177784998Y-116177500D02*
X179085002Y-116177500D01*
G75*
G02*
X179335000Y-116427498I0J-249998D01*
G01*
X179335000Y-117252502D01*
G75*
G02*
X179085002Y-117502500I-249998J0D01*
G01*
X177784998Y-117502500D01*
G75*
G02*
X177535000Y-117252502I0J249998D01*
G01*
X177535000Y-116427498D01*
G75*
G02*
X177784998Y-116177500I249998J0D01*
G01*
G37*
G36*
G01*
X177784998Y-119302500D02*
X179085002Y-119302500D01*
G75*
G02*
X179335000Y-119552498I0J-249998D01*
G01*
X179335000Y-120377502D01*
G75*
G02*
X179085002Y-120627500I-249998J0D01*
G01*
X177784998Y-120627500D01*
G75*
G02*
X177535000Y-120377502I0J249998D01*
G01*
X177535000Y-119552498D01*
G75*
G02*
X177784998Y-119302500I249998J0D01*
G01*
G37*
%TD*%
%TO.C,C4*%
G36*
G01*
X175244998Y-113930000D02*
X176545002Y-113930000D01*
G75*
G02*
X176795000Y-114179998I0J-249998D01*
G01*
X176795000Y-115005002D01*
G75*
G02*
X176545002Y-115255000I-249998J0D01*
G01*
X175244998Y-115255000D01*
G75*
G02*
X174995000Y-115005002I0J249998D01*
G01*
X174995000Y-114179998D01*
G75*
G02*
X175244998Y-113930000I249998J0D01*
G01*
G37*
G36*
G01*
X175244998Y-110805000D02*
X176545002Y-110805000D01*
G75*
G02*
X176795000Y-111054998I0J-249998D01*
G01*
X176795000Y-111880002D01*
G75*
G02*
X176545002Y-112130000I-249998J0D01*
G01*
X175244998Y-112130000D01*
G75*
G02*
X174995000Y-111880002I0J249998D01*
G01*
X174995000Y-111054998D01*
G75*
G02*
X175244998Y-110805000I249998J0D01*
G01*
G37*
%TD*%
%TO.C,C5*%
G36*
G01*
X177784998Y-110805000D02*
X179085002Y-110805000D01*
G75*
G02*
X179335000Y-111054998I0J-249998D01*
G01*
X179335000Y-111880002D01*
G75*
G02*
X179085002Y-112130000I-249998J0D01*
G01*
X177784998Y-112130000D01*
G75*
G02*
X177535000Y-111880002I0J249998D01*
G01*
X177535000Y-111054998D01*
G75*
G02*
X177784998Y-110805000I249998J0D01*
G01*
G37*
G36*
G01*
X177784998Y-113930000D02*
X179085002Y-113930000D01*
G75*
G02*
X179335000Y-114179998I0J-249998D01*
G01*
X179335000Y-115005002D01*
G75*
G02*
X179085002Y-115255000I-249998J0D01*
G01*
X177784998Y-115255000D01*
G75*
G02*
X177535000Y-115005002I0J249998D01*
G01*
X177535000Y-114179998D01*
G75*
G02*
X177784998Y-113930000I249998J0D01*
G01*
G37*
%TD*%
D12*
%TO.C,D4*%
X180975000Y-111380000D03*
X180975000Y-114680000D03*
%TD*%
%TO.C,R3*%
G36*
G01*
X160664999Y-108850000D02*
X161915001Y-108850000D01*
G75*
G02*
X162165000Y-109099999I0J-249999D01*
G01*
X162165000Y-109900001D01*
G75*
G02*
X161915001Y-110150000I-249999J0D01*
G01*
X160664999Y-110150000D01*
G75*
G02*
X160415000Y-109900001I0J249999D01*
G01*
X160415000Y-109099999D01*
G75*
G02*
X160664999Y-108850000I249999J0D01*
G01*
G37*
G36*
G01*
X160664999Y-105750000D02*
X161915001Y-105750000D01*
G75*
G02*
X162165000Y-105999999I0J-249999D01*
G01*
X162165000Y-106800001D01*
G75*
G02*
X161915001Y-107050000I-249999J0D01*
G01*
X160664999Y-107050000D01*
G75*
G02*
X160415000Y-106800001I0J249999D01*
G01*
X160415000Y-105999999D01*
G75*
G02*
X160664999Y-105750000I249999J0D01*
G01*
G37*
%TD*%
%TO.C,R4*%
G36*
G01*
X182889999Y-110830000D02*
X184140001Y-110830000D01*
G75*
G02*
X184390000Y-111079999I0J-249999D01*
G01*
X184390000Y-111880001D01*
G75*
G02*
X184140001Y-112130000I-249999J0D01*
G01*
X182889999Y-112130000D01*
G75*
G02*
X182640000Y-111880001I0J249999D01*
G01*
X182640000Y-111079999D01*
G75*
G02*
X182889999Y-110830000I249999J0D01*
G01*
G37*
G36*
G01*
X182889999Y-113930000D02*
X184140001Y-113930000D01*
G75*
G02*
X184390000Y-114179999I0J-249999D01*
G01*
X184390000Y-114980001D01*
G75*
G02*
X184140001Y-115230000I-249999J0D01*
G01*
X182889999Y-115230000D01*
G75*
G02*
X182640000Y-114980001I0J249999D01*
G01*
X182640000Y-114179999D01*
G75*
G02*
X182889999Y-113930000I249999J0D01*
G01*
G37*
%TD*%
%TO.C,R5*%
G36*
G01*
X180349999Y-116265000D02*
X181600001Y-116265000D01*
G75*
G02*
X181850000Y-116514999I0J-249999D01*
G01*
X181850000Y-117315001D01*
G75*
G02*
X181600001Y-117565000I-249999J0D01*
G01*
X180349999Y-117565000D01*
G75*
G02*
X180100000Y-117315001I0J249999D01*
G01*
X180100000Y-116514999D01*
G75*
G02*
X180349999Y-116265000I249999J0D01*
G01*
G37*
G36*
G01*
X180349999Y-119365000D02*
X181600001Y-119365000D01*
G75*
G02*
X181850000Y-119614999I0J-249999D01*
G01*
X181850000Y-120415001D01*
G75*
G02*
X181600001Y-120665000I-249999J0D01*
G01*
X180349999Y-120665000D01*
G75*
G02*
X180100000Y-120415001I0J249999D01*
G01*
X180100000Y-119614999D01*
G75*
G02*
X180349999Y-119365000I249999J0D01*
G01*
G37*
%TD*%
%TO.C,U1*%
G36*
G01*
X166730000Y-113180000D02*
X166730000Y-112880000D01*
G75*
G02*
X166880000Y-112730000I150000J0D01*
G01*
X168530000Y-112730000D01*
G75*
G02*
X168680000Y-112880000I0J-150000D01*
G01*
X168680000Y-113180000D01*
G75*
G02*
X168530000Y-113330000I-150000J0D01*
G01*
X166880000Y-113330000D01*
G75*
G02*
X166730000Y-113180000I0J150000D01*
G01*
G37*
G36*
G01*
X166730000Y-114450000D02*
X166730000Y-114150000D01*
G75*
G02*
X166880000Y-114000000I150000J0D01*
G01*
X168530000Y-114000000D01*
G75*
G02*
X168680000Y-114150000I0J-150000D01*
G01*
X168680000Y-114450000D01*
G75*
G02*
X168530000Y-114600000I-150000J0D01*
G01*
X166880000Y-114600000D01*
G75*
G02*
X166730000Y-114450000I0J150000D01*
G01*
G37*
G36*
G01*
X166730000Y-115720000D02*
X166730000Y-115420000D01*
G75*
G02*
X166880000Y-115270000I150000J0D01*
G01*
X168530000Y-115270000D01*
G75*
G02*
X168680000Y-115420000I0J-150000D01*
G01*
X168680000Y-115720000D01*
G75*
G02*
X168530000Y-115870000I-150000J0D01*
G01*
X166880000Y-115870000D01*
G75*
G02*
X166730000Y-115720000I0J150000D01*
G01*
G37*
G36*
G01*
X166730000Y-116990000D02*
X166730000Y-116690000D01*
G75*
G02*
X166880000Y-116540000I150000J0D01*
G01*
X168530000Y-116540000D01*
G75*
G02*
X168680000Y-116690000I0J-150000D01*
G01*
X168680000Y-116990000D01*
G75*
G02*
X168530000Y-117140000I-150000J0D01*
G01*
X166880000Y-117140000D01*
G75*
G02*
X166730000Y-116990000I0J150000D01*
G01*
G37*
G36*
G01*
X166730000Y-118260000D02*
X166730000Y-117960000D01*
G75*
G02*
X166880000Y-117810000I150000J0D01*
G01*
X168530000Y-117810000D01*
G75*
G02*
X168680000Y-117960000I0J-150000D01*
G01*
X168680000Y-118260000D01*
G75*
G02*
X168530000Y-118410000I-150000J0D01*
G01*
X166880000Y-118410000D01*
G75*
G02*
X166730000Y-118260000I0J150000D01*
G01*
G37*
G36*
G01*
X166730000Y-119530000D02*
X166730000Y-119230000D01*
G75*
G02*
X166880000Y-119080000I150000J0D01*
G01*
X168530000Y-119080000D01*
G75*
G02*
X168680000Y-119230000I0J-150000D01*
G01*
X168680000Y-119530000D01*
G75*
G02*
X168530000Y-119680000I-150000J0D01*
G01*
X166880000Y-119680000D01*
G75*
G02*
X166730000Y-119530000I0J150000D01*
G01*
G37*
G36*
G01*
X166730000Y-120800000D02*
X166730000Y-120500000D01*
G75*
G02*
X166880000Y-120350000I150000J0D01*
G01*
X168530000Y-120350000D01*
G75*
G02*
X168680000Y-120500000I0J-150000D01*
G01*
X168680000Y-120800000D01*
G75*
G02*
X168530000Y-120950000I-150000J0D01*
G01*
X166880000Y-120950000D01*
G75*
G02*
X166730000Y-120800000I0J150000D01*
G01*
G37*
G36*
G01*
X166730000Y-122070000D02*
X166730000Y-121770000D01*
G75*
G02*
X166880000Y-121620000I150000J0D01*
G01*
X168530000Y-121620000D01*
G75*
G02*
X168680000Y-121770000I0J-150000D01*
G01*
X168680000Y-122070000D01*
G75*
G02*
X168530000Y-122220000I-150000J0D01*
G01*
X166880000Y-122220000D01*
G75*
G02*
X166730000Y-122070000I0J150000D01*
G01*
G37*
G36*
G01*
X171680000Y-122070000D02*
X171680000Y-121770000D01*
G75*
G02*
X171830000Y-121620000I150000J0D01*
G01*
X173480000Y-121620000D01*
G75*
G02*
X173630000Y-121770000I0J-150000D01*
G01*
X173630000Y-122070000D01*
G75*
G02*
X173480000Y-122220000I-150000J0D01*
G01*
X171830000Y-122220000D01*
G75*
G02*
X171680000Y-122070000I0J150000D01*
G01*
G37*
G36*
G01*
X171680000Y-120800000D02*
X171680000Y-120500000D01*
G75*
G02*
X171830000Y-120350000I150000J0D01*
G01*
X173480000Y-120350000D01*
G75*
G02*
X173630000Y-120500000I0J-150000D01*
G01*
X173630000Y-120800000D01*
G75*
G02*
X173480000Y-120950000I-150000J0D01*
G01*
X171830000Y-120950000D01*
G75*
G02*
X171680000Y-120800000I0J150000D01*
G01*
G37*
G36*
G01*
X171680000Y-119530000D02*
X171680000Y-119230000D01*
G75*
G02*
X171830000Y-119080000I150000J0D01*
G01*
X173480000Y-119080000D01*
G75*
G02*
X173630000Y-119230000I0J-150000D01*
G01*
X173630000Y-119530000D01*
G75*
G02*
X173480000Y-119680000I-150000J0D01*
G01*
X171830000Y-119680000D01*
G75*
G02*
X171680000Y-119530000I0J150000D01*
G01*
G37*
G36*
G01*
X171680000Y-118260000D02*
X171680000Y-117960000D01*
G75*
G02*
X171830000Y-117810000I150000J0D01*
G01*
X173480000Y-117810000D01*
G75*
G02*
X173630000Y-117960000I0J-150000D01*
G01*
X173630000Y-118260000D01*
G75*
G02*
X173480000Y-118410000I-150000J0D01*
G01*
X171830000Y-118410000D01*
G75*
G02*
X171680000Y-118260000I0J150000D01*
G01*
G37*
G36*
G01*
X171680000Y-116990000D02*
X171680000Y-116690000D01*
G75*
G02*
X171830000Y-116540000I150000J0D01*
G01*
X173480000Y-116540000D01*
G75*
G02*
X173630000Y-116690000I0J-150000D01*
G01*
X173630000Y-116990000D01*
G75*
G02*
X173480000Y-117140000I-150000J0D01*
G01*
X171830000Y-117140000D01*
G75*
G02*
X171680000Y-116990000I0J150000D01*
G01*
G37*
G36*
G01*
X171680000Y-115720000D02*
X171680000Y-115420000D01*
G75*
G02*
X171830000Y-115270000I150000J0D01*
G01*
X173480000Y-115270000D01*
G75*
G02*
X173630000Y-115420000I0J-150000D01*
G01*
X173630000Y-115720000D01*
G75*
G02*
X173480000Y-115870000I-150000J0D01*
G01*
X171830000Y-115870000D01*
G75*
G02*
X171680000Y-115720000I0J150000D01*
G01*
G37*
G36*
G01*
X171680000Y-114450000D02*
X171680000Y-114150000D01*
G75*
G02*
X171830000Y-114000000I150000J0D01*
G01*
X173480000Y-114000000D01*
G75*
G02*
X173630000Y-114150000I0J-150000D01*
G01*
X173630000Y-114450000D01*
G75*
G02*
X173480000Y-114600000I-150000J0D01*
G01*
X171830000Y-114600000D01*
G75*
G02*
X171680000Y-114450000I0J150000D01*
G01*
G37*
G36*
G01*
X171680000Y-113180000D02*
X171680000Y-112880000D01*
G75*
G02*
X171830000Y-112730000I150000J0D01*
G01*
X173480000Y-112730000D01*
G75*
G02*
X173630000Y-112880000I0J-150000D01*
G01*
X173630000Y-113180000D01*
G75*
G02*
X173480000Y-113330000I-150000J0D01*
G01*
X171830000Y-113330000D01*
G75*
G02*
X171680000Y-113180000I0J150000D01*
G01*
G37*
%TD*%
M02*
