%TF.GenerationSoftware,KiCad,Pcbnew,(5.1.9)-1*%
%TF.CreationDate,2021-11-14T21:39:45-06:00*%
%TF.ProjectId,BLDC_Cont,424c4443-5f43-46f6-9e74-2e6b69636164,rev?*%
%TF.SameCoordinates,Original*%
%TF.FileFunction,Legend,Top*%
%TF.FilePolarity,Positive*%
%FSLAX46Y46*%
G04 Gerber Fmt 4.6, Leading zero omitted, Abs format (unit mm)*
G04 Created by KiCad (PCBNEW (5.1.9)-1) date 2021-11-14 21:39:45*
%MOMM*%
%LPD*%
G01*
G04 APERTURE LIST*
%ADD10C,0.150000*%
%ADD11C,0.120000*%
G04 APERTURE END LIST*
D10*
X151828571Y-122180000D02*
X151757142Y-122144285D01*
X151650000Y-122144285D01*
X151542857Y-122180000D01*
X151471428Y-122251428D01*
X151435714Y-122322857D01*
X151400000Y-122465714D01*
X151400000Y-122572857D01*
X151435714Y-122715714D01*
X151471428Y-122787142D01*
X151542857Y-122858571D01*
X151650000Y-122894285D01*
X151721428Y-122894285D01*
X151828571Y-122858571D01*
X151864285Y-122822857D01*
X151864285Y-122572857D01*
X151721428Y-122572857D01*
X152185714Y-122894285D02*
X152185714Y-122144285D01*
X152614285Y-122894285D01*
X152614285Y-122144285D01*
X152971428Y-122894285D02*
X152971428Y-122144285D01*
X153150000Y-122144285D01*
X153257142Y-122180000D01*
X153328571Y-122251428D01*
X153364285Y-122322857D01*
X153400000Y-122465714D01*
X153400000Y-122572857D01*
X153364285Y-122715714D01*
X153328571Y-122787142D01*
X153257142Y-122858571D01*
X153150000Y-122894285D01*
X152971428Y-122894285D01*
X151435714Y-110543571D02*
X152007142Y-110543571D01*
X151721428Y-110829285D02*
X151721428Y-110257857D01*
X152721428Y-110079285D02*
X152364285Y-110079285D01*
X152328571Y-110436428D01*
X152364285Y-110400714D01*
X152435714Y-110365000D01*
X152614285Y-110365000D01*
X152685714Y-110400714D01*
X152721428Y-110436428D01*
X152757142Y-110507857D01*
X152757142Y-110686428D01*
X152721428Y-110757857D01*
X152685714Y-110793571D01*
X152614285Y-110829285D01*
X152435714Y-110829285D01*
X152364285Y-110793571D01*
X152328571Y-110757857D01*
X152971428Y-110079285D02*
X153221428Y-110829285D01*
X153471428Y-110079285D01*
X154888571Y-124513571D02*
X155460000Y-124513571D01*
X155174285Y-124799285D02*
X155174285Y-124227857D01*
X156210000Y-124799285D02*
X155781428Y-124799285D01*
X155995714Y-124799285D02*
X155995714Y-124049285D01*
X155924285Y-124156428D01*
X155852857Y-124227857D01*
X155781428Y-124263571D01*
X156495714Y-124120714D02*
X156531428Y-124085000D01*
X156602857Y-124049285D01*
X156781428Y-124049285D01*
X156852857Y-124085000D01*
X156888571Y-124120714D01*
X156924285Y-124192142D01*
X156924285Y-124263571D01*
X156888571Y-124370714D01*
X156460000Y-124799285D01*
X156924285Y-124799285D01*
X157138571Y-124049285D02*
X157388571Y-124799285D01*
X157638571Y-124049285D01*
D11*
%TO.C,D3*%
X169815000Y-109800000D02*
X169815000Y-110060000D01*
X169815000Y-105840000D02*
X169815000Y-106100000D01*
X164195000Y-109650000D02*
X163405000Y-109650000D01*
X169815000Y-105840000D02*
X164195000Y-105840000D01*
X164195000Y-110060000D02*
X169815000Y-110060000D01*
X164195000Y-109650000D02*
X164195000Y-110060000D01*
X164195000Y-105840000D02*
X164195000Y-106250000D01*
%TO.C,C1*%
X163555000Y-118033748D02*
X163555000Y-119456252D01*
X165375000Y-118033748D02*
X165375000Y-119456252D01*
%TO.C,C2*%
X176805000Y-117691248D02*
X176805000Y-119113752D01*
X174985000Y-117691248D02*
X174985000Y-119113752D01*
%TO.C,C3*%
X177525000Y-117691248D02*
X177525000Y-119113752D01*
X179345000Y-117691248D02*
X179345000Y-119113752D01*
%TO.C,C4*%
X176805000Y-112318748D02*
X176805000Y-113741252D01*
X174985000Y-112318748D02*
X174985000Y-113741252D01*
%TO.C,C5*%
X177525000Y-112318748D02*
X177525000Y-113741252D01*
X179345000Y-112318748D02*
X179345000Y-113741252D01*
%TO.C,C6*%
X172054759Y-103891000D02*
X172054759Y-104521000D01*
X171739759Y-104206000D02*
X172369759Y-104206000D01*
X178481000Y-105643000D02*
X178481000Y-106447000D01*
X178441000Y-105412000D02*
X178441000Y-106678000D01*
X178401000Y-105243000D02*
X178401000Y-106847000D01*
X178361000Y-105105000D02*
X178361000Y-106985000D01*
X178321000Y-104986000D02*
X178321000Y-107104000D01*
X178281000Y-104880000D02*
X178281000Y-107210000D01*
X178241000Y-104783000D02*
X178241000Y-107307000D01*
X178201000Y-104695000D02*
X178201000Y-107395000D01*
X178161000Y-104613000D02*
X178161000Y-107477000D01*
X178121000Y-104536000D02*
X178121000Y-107554000D01*
X178081000Y-104464000D02*
X178081000Y-107626000D01*
X178041000Y-104395000D02*
X178041000Y-107695000D01*
X178001000Y-104331000D02*
X178001000Y-107759000D01*
X177961000Y-104269000D02*
X177961000Y-107821000D01*
X177921000Y-104211000D02*
X177921000Y-107879000D01*
X177881000Y-104155000D02*
X177881000Y-107935000D01*
X177841000Y-104101000D02*
X177841000Y-107989000D01*
X177801000Y-104050000D02*
X177801000Y-108040000D01*
X177761000Y-104001000D02*
X177761000Y-108089000D01*
X177721000Y-103953000D02*
X177721000Y-108137000D01*
X177681000Y-103908000D02*
X177681000Y-108182000D01*
X177641000Y-103863000D02*
X177641000Y-108227000D01*
X177601000Y-103821000D02*
X177601000Y-108269000D01*
X177561000Y-103780000D02*
X177561000Y-108310000D01*
X177521000Y-107085000D02*
X177521000Y-108350000D01*
X177521000Y-103740000D02*
X177521000Y-105005000D01*
X177481000Y-107085000D02*
X177481000Y-108388000D01*
X177481000Y-103702000D02*
X177481000Y-105005000D01*
X177441000Y-107085000D02*
X177441000Y-108425000D01*
X177441000Y-103665000D02*
X177441000Y-105005000D01*
X177401000Y-107085000D02*
X177401000Y-108461000D01*
X177401000Y-103629000D02*
X177401000Y-105005000D01*
X177361000Y-107085000D02*
X177361000Y-108495000D01*
X177361000Y-103595000D02*
X177361000Y-105005000D01*
X177321000Y-107085000D02*
X177321000Y-108529000D01*
X177321000Y-103561000D02*
X177321000Y-105005000D01*
X177281000Y-107085000D02*
X177281000Y-108561000D01*
X177281000Y-103529000D02*
X177281000Y-105005000D01*
X177241000Y-107085000D02*
X177241000Y-108593000D01*
X177241000Y-103497000D02*
X177241000Y-105005000D01*
X177201000Y-107085000D02*
X177201000Y-108623000D01*
X177201000Y-103467000D02*
X177201000Y-105005000D01*
X177161000Y-107085000D02*
X177161000Y-108652000D01*
X177161000Y-103438000D02*
X177161000Y-105005000D01*
X177121000Y-107085000D02*
X177121000Y-108681000D01*
X177121000Y-103409000D02*
X177121000Y-105005000D01*
X177081000Y-107085000D02*
X177081000Y-108709000D01*
X177081000Y-103381000D02*
X177081000Y-105005000D01*
X177041000Y-107085000D02*
X177041000Y-108735000D01*
X177041000Y-103355000D02*
X177041000Y-105005000D01*
X177001000Y-107085000D02*
X177001000Y-108761000D01*
X177001000Y-103329000D02*
X177001000Y-105005000D01*
X176961000Y-107085000D02*
X176961000Y-108787000D01*
X176961000Y-103303000D02*
X176961000Y-105005000D01*
X176921000Y-107085000D02*
X176921000Y-108811000D01*
X176921000Y-103279000D02*
X176921000Y-105005000D01*
X176881000Y-107085000D02*
X176881000Y-108835000D01*
X176881000Y-103255000D02*
X176881000Y-105005000D01*
X176841000Y-107085000D02*
X176841000Y-108857000D01*
X176841000Y-103233000D02*
X176841000Y-105005000D01*
X176801000Y-107085000D02*
X176801000Y-108879000D01*
X176801000Y-103211000D02*
X176801000Y-105005000D01*
X176761000Y-107085000D02*
X176761000Y-108901000D01*
X176761000Y-103189000D02*
X176761000Y-105005000D01*
X176721000Y-107085000D02*
X176721000Y-108921000D01*
X176721000Y-103169000D02*
X176721000Y-105005000D01*
X176681000Y-107085000D02*
X176681000Y-108941000D01*
X176681000Y-103149000D02*
X176681000Y-105005000D01*
X176641000Y-107085000D02*
X176641000Y-108961000D01*
X176641000Y-103129000D02*
X176641000Y-105005000D01*
X176601000Y-107085000D02*
X176601000Y-108979000D01*
X176601000Y-103111000D02*
X176601000Y-105005000D01*
X176561000Y-107085000D02*
X176561000Y-108997000D01*
X176561000Y-103093000D02*
X176561000Y-105005000D01*
X176521000Y-107085000D02*
X176521000Y-109015000D01*
X176521000Y-103075000D02*
X176521000Y-105005000D01*
X176481000Y-107085000D02*
X176481000Y-109031000D01*
X176481000Y-103059000D02*
X176481000Y-105005000D01*
X176441000Y-107085000D02*
X176441000Y-109047000D01*
X176441000Y-103043000D02*
X176441000Y-105005000D01*
X176401000Y-107085000D02*
X176401000Y-109063000D01*
X176401000Y-103027000D02*
X176401000Y-105005000D01*
X176361000Y-107085000D02*
X176361000Y-109078000D01*
X176361000Y-103012000D02*
X176361000Y-105005000D01*
X176321000Y-107085000D02*
X176321000Y-109092000D01*
X176321000Y-102998000D02*
X176321000Y-105005000D01*
X176281000Y-107085000D02*
X176281000Y-109106000D01*
X176281000Y-102984000D02*
X176281000Y-105005000D01*
X176241000Y-107085000D02*
X176241000Y-109119000D01*
X176241000Y-102971000D02*
X176241000Y-105005000D01*
X176201000Y-107085000D02*
X176201000Y-109131000D01*
X176201000Y-102959000D02*
X176201000Y-105005000D01*
X176161000Y-107085000D02*
X176161000Y-109143000D01*
X176161000Y-102947000D02*
X176161000Y-105005000D01*
X176121000Y-107085000D02*
X176121000Y-109155000D01*
X176121000Y-102935000D02*
X176121000Y-105005000D01*
X176081000Y-107085000D02*
X176081000Y-109166000D01*
X176081000Y-102924000D02*
X176081000Y-105005000D01*
X176041000Y-107085000D02*
X176041000Y-109176000D01*
X176041000Y-102914000D02*
X176041000Y-105005000D01*
X176001000Y-107085000D02*
X176001000Y-109186000D01*
X176001000Y-102904000D02*
X176001000Y-105005000D01*
X175961000Y-107085000D02*
X175961000Y-109195000D01*
X175961000Y-102895000D02*
X175961000Y-105005000D01*
X175920000Y-107085000D02*
X175920000Y-109204000D01*
X175920000Y-102886000D02*
X175920000Y-105005000D01*
X175880000Y-107085000D02*
X175880000Y-109212000D01*
X175880000Y-102878000D02*
X175880000Y-105005000D01*
X175840000Y-107085000D02*
X175840000Y-109220000D01*
X175840000Y-102870000D02*
X175840000Y-105005000D01*
X175800000Y-107085000D02*
X175800000Y-109227000D01*
X175800000Y-102863000D02*
X175800000Y-105005000D01*
X175760000Y-107085000D02*
X175760000Y-109234000D01*
X175760000Y-102856000D02*
X175760000Y-105005000D01*
X175720000Y-107085000D02*
X175720000Y-109240000D01*
X175720000Y-102850000D02*
X175720000Y-105005000D01*
X175680000Y-107085000D02*
X175680000Y-109246000D01*
X175680000Y-102844000D02*
X175680000Y-105005000D01*
X175640000Y-107085000D02*
X175640000Y-109251000D01*
X175640000Y-102839000D02*
X175640000Y-105005000D01*
X175600000Y-107085000D02*
X175600000Y-109256000D01*
X175600000Y-102834000D02*
X175600000Y-105005000D01*
X175560000Y-107085000D02*
X175560000Y-109260000D01*
X175560000Y-102830000D02*
X175560000Y-105005000D01*
X175520000Y-107085000D02*
X175520000Y-109263000D01*
X175520000Y-102827000D02*
X175520000Y-105005000D01*
X175480000Y-107085000D02*
X175480000Y-109267000D01*
X175480000Y-102823000D02*
X175480000Y-105005000D01*
X175440000Y-102821000D02*
X175440000Y-109269000D01*
X175400000Y-102818000D02*
X175400000Y-109272000D01*
X175360000Y-102817000D02*
X175360000Y-109273000D01*
X175320000Y-102815000D02*
X175320000Y-109275000D01*
X175280000Y-102815000D02*
X175280000Y-109275000D01*
X175240000Y-102815000D02*
X175240000Y-109275000D01*
X178510000Y-106045000D02*
G75*
G03*
X178510000Y-106045000I-3270000J0D01*
G01*
%TO.C,D4*%
X181975000Y-110780000D02*
X181975000Y-114680000D01*
X179975000Y-110780000D02*
X179975000Y-114680000D01*
X181975000Y-110780000D02*
X179975000Y-110780000D01*
%TO.C,R3*%
X162200000Y-107222936D02*
X162200000Y-108677064D01*
X160380000Y-107222936D02*
X160380000Y-108677064D01*
%TO.C,R4*%
X182605000Y-112302936D02*
X182605000Y-113757064D01*
X184425000Y-112302936D02*
X184425000Y-113757064D01*
%TO.C,R5*%
X180065000Y-117737936D02*
X180065000Y-119192064D01*
X181885000Y-117737936D02*
X181885000Y-119192064D01*
%TO.C,U1*%
X170180000Y-112415000D02*
X166730000Y-112415000D01*
X170180000Y-112415000D02*
X172130000Y-112415000D01*
X170180000Y-122535000D02*
X168230000Y-122535000D01*
X170180000Y-122535000D02*
X172130000Y-122535000D01*
%TO.C,J5*%
X165465000Y-121790000D02*
X165465000Y-124590000D01*
X165465000Y-124590000D02*
X163465000Y-124590000D01*
X163465000Y-124590000D02*
X163465000Y-121790000D01*
X163465000Y-121790000D02*
X165465000Y-121790000D01*
%TO.C,C8*%
X157556252Y-108860000D02*
X156133748Y-108860000D01*
X157556252Y-107040000D02*
X156133748Y-107040000D01*
%TO.C,C9*%
X157556252Y-110215000D02*
X156133748Y-110215000D01*
X157556252Y-112035000D02*
X156133748Y-112035000D01*
%TO.C,U2*%
X157988000Y-112913000D02*
X154538000Y-112913000D01*
X157988000Y-112913000D02*
X159938000Y-112913000D01*
X157988000Y-121783000D02*
X156038000Y-121783000D01*
X157988000Y-121783000D02*
X159938000Y-121783000D01*
%TO.C,J4*%
X151070000Y-111065000D02*
X152400000Y-111065000D01*
X151070000Y-112395000D02*
X151070000Y-111065000D01*
X151070000Y-113665000D02*
X153730000Y-113665000D01*
X153730000Y-113665000D02*
X153730000Y-121345000D01*
X151070000Y-113665000D02*
X151070000Y-121345000D01*
X151070000Y-121345000D02*
X153730000Y-121345000D01*
%TO.C,J6*%
X158055000Y-125790000D02*
X158055000Y-124460000D01*
X159385000Y-125790000D02*
X158055000Y-125790000D01*
X160655000Y-125790000D02*
X160655000Y-123130000D01*
X160655000Y-123130000D02*
X163255000Y-123130000D01*
X160655000Y-125790000D02*
X163255000Y-125790000D01*
X163255000Y-125790000D02*
X163255000Y-123130000D01*
%TO.C,D3*%
D10*
X164193571Y-111464285D02*
X164193571Y-110714285D01*
X164443571Y-111250000D01*
X164693571Y-110714285D01*
X164693571Y-111464285D01*
X165300714Y-111071428D02*
X165407857Y-111107142D01*
X165443571Y-111142857D01*
X165479285Y-111214285D01*
X165479285Y-111321428D01*
X165443571Y-111392857D01*
X165407857Y-111428571D01*
X165336428Y-111464285D01*
X165050714Y-111464285D01*
X165050714Y-110714285D01*
X165300714Y-110714285D01*
X165372142Y-110750000D01*
X165407857Y-110785714D01*
X165443571Y-110857142D01*
X165443571Y-110928571D01*
X165407857Y-111000000D01*
X165372142Y-111035714D01*
X165300714Y-111071428D01*
X165050714Y-111071428D01*
X166229285Y-111464285D02*
X165979285Y-111107142D01*
X165800714Y-111464285D02*
X165800714Y-110714285D01*
X166086428Y-110714285D01*
X166157857Y-110750000D01*
X166193571Y-110785714D01*
X166229285Y-110857142D01*
X166229285Y-110964285D01*
X166193571Y-111035714D01*
X166157857Y-111071428D01*
X166086428Y-111107142D01*
X165800714Y-111107142D01*
X166943571Y-111464285D02*
X166515000Y-111464285D01*
X166729285Y-111464285D02*
X166729285Y-110714285D01*
X166657857Y-110821428D01*
X166586428Y-110892857D01*
X166515000Y-110928571D01*
X167622142Y-110714285D02*
X167265000Y-110714285D01*
X167229285Y-111071428D01*
X167265000Y-111035714D01*
X167336428Y-111000000D01*
X167515000Y-111000000D01*
X167586428Y-111035714D01*
X167622142Y-111071428D01*
X167657857Y-111142857D01*
X167657857Y-111321428D01*
X167622142Y-111392857D01*
X167586428Y-111428571D01*
X167515000Y-111464285D01*
X167336428Y-111464285D01*
X167265000Y-111428571D01*
X167229285Y-111392857D01*
X168300714Y-110714285D02*
X168157857Y-110714285D01*
X168086428Y-110750000D01*
X168050714Y-110785714D01*
X167979285Y-110892857D01*
X167943571Y-111035714D01*
X167943571Y-111321428D01*
X167979285Y-111392857D01*
X168015000Y-111428571D01*
X168086428Y-111464285D01*
X168229285Y-111464285D01*
X168300714Y-111428571D01*
X168336428Y-111392857D01*
X168372142Y-111321428D01*
X168372142Y-111142857D01*
X168336428Y-111071428D01*
X168300714Y-111035714D01*
X168229285Y-111000000D01*
X168086428Y-111000000D01*
X168015000Y-111035714D01*
X167979285Y-111071428D01*
X167943571Y-111142857D01*
X168836428Y-110714285D02*
X168907857Y-110714285D01*
X168979285Y-110750000D01*
X169015000Y-110785714D01*
X169050714Y-110857142D01*
X169086428Y-111000000D01*
X169086428Y-111178571D01*
X169050714Y-111321428D01*
X169015000Y-111392857D01*
X168979285Y-111428571D01*
X168907857Y-111464285D01*
X168836428Y-111464285D01*
X168765000Y-111428571D01*
X168729285Y-111392857D01*
X168693571Y-111321428D01*
X168657857Y-111178571D01*
X168657857Y-111000000D01*
X168693571Y-110857142D01*
X168729285Y-110785714D01*
X168765000Y-110750000D01*
X168836428Y-110714285D01*
X169372142Y-111428571D02*
X169479285Y-111464285D01*
X169657857Y-111464285D01*
X169729285Y-111428571D01*
X169765000Y-111392857D01*
X169800714Y-111321428D01*
X169800714Y-111250000D01*
X169765000Y-111178571D01*
X169729285Y-111142857D01*
X169657857Y-111107142D01*
X169515000Y-111071428D01*
X169443571Y-111035714D01*
X169407857Y-111000000D01*
X169372142Y-110928571D01*
X169372142Y-110857142D01*
X169407857Y-110785714D01*
X169443571Y-110750000D01*
X169515000Y-110714285D01*
X169693571Y-110714285D01*
X169800714Y-110750000D01*
X170015000Y-110714285D02*
X170443571Y-110714285D01*
X170229285Y-111464285D02*
X170229285Y-110714285D01*
X171122142Y-111464285D02*
X170872142Y-111107142D01*
X170693571Y-111464285D02*
X170693571Y-110714285D01*
X170979285Y-110714285D01*
X171050714Y-110750000D01*
X171086428Y-110785714D01*
X171122142Y-110857142D01*
X171122142Y-110964285D01*
X171086428Y-111035714D01*
X171050714Y-111071428D01*
X170979285Y-111107142D01*
X170693571Y-111107142D01*
%TO.C,C7*%
X187835000Y-107582857D02*
X187799285Y-107618571D01*
X187692142Y-107654285D01*
X187620714Y-107654285D01*
X187513571Y-107618571D01*
X187442142Y-107547142D01*
X187406428Y-107475714D01*
X187370714Y-107332857D01*
X187370714Y-107225714D01*
X187406428Y-107082857D01*
X187442142Y-107011428D01*
X187513571Y-106940000D01*
X187620714Y-106904285D01*
X187692142Y-106904285D01*
X187799285Y-106940000D01*
X187835000Y-106975714D01*
X188085000Y-106904285D02*
X188585000Y-106904285D01*
X188263571Y-107654285D01*
%TO.C,C1*%
X162947142Y-115159285D02*
X163018571Y-115159285D01*
X163090000Y-115195000D01*
X163125714Y-115230714D01*
X163161428Y-115302142D01*
X163197142Y-115445000D01*
X163197142Y-115623571D01*
X163161428Y-115766428D01*
X163125714Y-115837857D01*
X163090000Y-115873571D01*
X163018571Y-115909285D01*
X162947142Y-115909285D01*
X162875714Y-115873571D01*
X162840000Y-115837857D01*
X162804285Y-115766428D01*
X162768571Y-115623571D01*
X162768571Y-115445000D01*
X162804285Y-115302142D01*
X162840000Y-115230714D01*
X162875714Y-115195000D01*
X162947142Y-115159285D01*
X163518571Y-115837857D02*
X163554285Y-115873571D01*
X163518571Y-115909285D01*
X163482857Y-115873571D01*
X163518571Y-115837857D01*
X163518571Y-115909285D01*
X164268571Y-115909285D02*
X163840000Y-115909285D01*
X164054285Y-115909285D02*
X164054285Y-115159285D01*
X163982857Y-115266428D01*
X163911428Y-115337857D01*
X163840000Y-115373571D01*
X165482857Y-115409285D02*
X165482857Y-115909285D01*
X165161428Y-115409285D02*
X165161428Y-115802142D01*
X165197142Y-115873571D01*
X165268571Y-115909285D01*
X165375714Y-115909285D01*
X165447142Y-115873571D01*
X165482857Y-115837857D01*
X166090000Y-115516428D02*
X165840000Y-115516428D01*
X165840000Y-115909285D02*
X165840000Y-115159285D01*
X166197142Y-115159285D01*
%TO.C,C2*%
X175770000Y-119012857D02*
X175734285Y-119048571D01*
X175627142Y-119084285D01*
X175555714Y-119084285D01*
X175448571Y-119048571D01*
X175377142Y-118977142D01*
X175341428Y-118905714D01*
X175305714Y-118762857D01*
X175305714Y-118655714D01*
X175341428Y-118512857D01*
X175377142Y-118441428D01*
X175448571Y-118370000D01*
X175555714Y-118334285D01*
X175627142Y-118334285D01*
X175734285Y-118370000D01*
X175770000Y-118405714D01*
X176055714Y-118405714D02*
X176091428Y-118370000D01*
X176162857Y-118334285D01*
X176341428Y-118334285D01*
X176412857Y-118370000D01*
X176448571Y-118405714D01*
X176484285Y-118477142D01*
X176484285Y-118548571D01*
X176448571Y-118655714D01*
X176020000Y-119084285D01*
X176484285Y-119084285D01*
X175484285Y-124072857D02*
X175484285Y-124001428D01*
X175520000Y-123930000D01*
X175555714Y-123894285D01*
X175627142Y-123858571D01*
X175770000Y-123822857D01*
X175948571Y-123822857D01*
X176091428Y-123858571D01*
X176162857Y-123894285D01*
X176198571Y-123930000D01*
X176234285Y-124001428D01*
X176234285Y-124072857D01*
X176198571Y-124144285D01*
X176162857Y-124180000D01*
X176091428Y-124215714D01*
X175948571Y-124251428D01*
X175770000Y-124251428D01*
X175627142Y-124215714D01*
X175555714Y-124180000D01*
X175520000Y-124144285D01*
X175484285Y-124072857D01*
X176162857Y-123501428D02*
X176198571Y-123465714D01*
X176234285Y-123501428D01*
X176198571Y-123537142D01*
X176162857Y-123501428D01*
X176234285Y-123501428D01*
X176234285Y-122751428D02*
X176234285Y-123180000D01*
X176234285Y-122965714D02*
X175484285Y-122965714D01*
X175591428Y-123037142D01*
X175662857Y-123108571D01*
X175698571Y-123180000D01*
X175734285Y-121537142D02*
X176234285Y-121537142D01*
X175734285Y-121858571D02*
X176127142Y-121858571D01*
X176198571Y-121822857D01*
X176234285Y-121751428D01*
X176234285Y-121644285D01*
X176198571Y-121572857D01*
X176162857Y-121537142D01*
X175841428Y-120930000D02*
X175841428Y-121180000D01*
X176234285Y-121180000D02*
X175484285Y-121180000D01*
X175484285Y-120822857D01*
%TO.C,C3*%
X178310000Y-119012857D02*
X178274285Y-119048571D01*
X178167142Y-119084285D01*
X178095714Y-119084285D01*
X177988571Y-119048571D01*
X177917142Y-118977142D01*
X177881428Y-118905714D01*
X177845714Y-118762857D01*
X177845714Y-118655714D01*
X177881428Y-118512857D01*
X177917142Y-118441428D01*
X177988571Y-118370000D01*
X178095714Y-118334285D01*
X178167142Y-118334285D01*
X178274285Y-118370000D01*
X178310000Y-118405714D01*
X178560000Y-118334285D02*
X179024285Y-118334285D01*
X178774285Y-118620000D01*
X178881428Y-118620000D01*
X178952857Y-118655714D01*
X178988571Y-118691428D01*
X179024285Y-118762857D01*
X179024285Y-118941428D01*
X178988571Y-119012857D01*
X178952857Y-119048571D01*
X178881428Y-119084285D01*
X178667142Y-119084285D01*
X178595714Y-119048571D01*
X178560000Y-119012857D01*
X178774285Y-122652142D02*
X178774285Y-123080714D01*
X178774285Y-122866428D02*
X178024285Y-122866428D01*
X178131428Y-122937857D01*
X178202857Y-123009285D01*
X178238571Y-123080714D01*
X178274285Y-121437857D02*
X178774285Y-121437857D01*
X178274285Y-121759285D02*
X178667142Y-121759285D01*
X178738571Y-121723571D01*
X178774285Y-121652142D01*
X178774285Y-121545000D01*
X178738571Y-121473571D01*
X178702857Y-121437857D01*
X178381428Y-120830714D02*
X178381428Y-121080714D01*
X178774285Y-121080714D02*
X178024285Y-121080714D01*
X178024285Y-120723571D01*
%TO.C,C4*%
X175770000Y-113297857D02*
X175734285Y-113333571D01*
X175627142Y-113369285D01*
X175555714Y-113369285D01*
X175448571Y-113333571D01*
X175377142Y-113262142D01*
X175341428Y-113190714D01*
X175305714Y-113047857D01*
X175305714Y-112940714D01*
X175341428Y-112797857D01*
X175377142Y-112726428D01*
X175448571Y-112655000D01*
X175555714Y-112619285D01*
X175627142Y-112619285D01*
X175734285Y-112655000D01*
X175770000Y-112690714D01*
X176412857Y-112869285D02*
X176412857Y-113369285D01*
X176234285Y-112583571D02*
X176055714Y-113119285D01*
X176520000Y-113119285D01*
%TO.C,C5*%
X178310000Y-113297857D02*
X178274285Y-113333571D01*
X178167142Y-113369285D01*
X178095714Y-113369285D01*
X177988571Y-113333571D01*
X177917142Y-113262142D01*
X177881428Y-113190714D01*
X177845714Y-113047857D01*
X177845714Y-112940714D01*
X177881428Y-112797857D01*
X177917142Y-112726428D01*
X177988571Y-112655000D01*
X178095714Y-112619285D01*
X178167142Y-112619285D01*
X178274285Y-112655000D01*
X178310000Y-112690714D01*
X178988571Y-112619285D02*
X178631428Y-112619285D01*
X178595714Y-112976428D01*
X178631428Y-112940714D01*
X178702857Y-112905000D01*
X178881428Y-112905000D01*
X178952857Y-112940714D01*
X178988571Y-112976428D01*
X179024285Y-113047857D01*
X179024285Y-113226428D01*
X178988571Y-113297857D01*
X178952857Y-113333571D01*
X178881428Y-113369285D01*
X178702857Y-113369285D01*
X178631428Y-113333571D01*
X178595714Y-113297857D01*
%TO.C,C6*%
X173865000Y-108217857D02*
X173829285Y-108253571D01*
X173722142Y-108289285D01*
X173650714Y-108289285D01*
X173543571Y-108253571D01*
X173472142Y-108182142D01*
X173436428Y-108110714D01*
X173400714Y-107967857D01*
X173400714Y-107860714D01*
X173436428Y-107717857D01*
X173472142Y-107646428D01*
X173543571Y-107575000D01*
X173650714Y-107539285D01*
X173722142Y-107539285D01*
X173829285Y-107575000D01*
X173865000Y-107610714D01*
X174507857Y-107539285D02*
X174365000Y-107539285D01*
X174293571Y-107575000D01*
X174257857Y-107610714D01*
X174186428Y-107717857D01*
X174150714Y-107860714D01*
X174150714Y-108146428D01*
X174186428Y-108217857D01*
X174222142Y-108253571D01*
X174293571Y-108289285D01*
X174436428Y-108289285D01*
X174507857Y-108253571D01*
X174543571Y-108217857D01*
X174579285Y-108146428D01*
X174579285Y-107967857D01*
X174543571Y-107896428D01*
X174507857Y-107860714D01*
X174436428Y-107825000D01*
X174293571Y-107825000D01*
X174222142Y-107860714D01*
X174186428Y-107896428D01*
X174150714Y-107967857D01*
X179350000Y-105634285D02*
X179814285Y-105634285D01*
X179564285Y-105920000D01*
X179671428Y-105920000D01*
X179742857Y-105955714D01*
X179778571Y-105991428D01*
X179814285Y-106062857D01*
X179814285Y-106241428D01*
X179778571Y-106312857D01*
X179742857Y-106348571D01*
X179671428Y-106384285D01*
X179457142Y-106384285D01*
X179385714Y-106348571D01*
X179350000Y-106312857D01*
X180064285Y-105634285D02*
X180528571Y-105634285D01*
X180278571Y-105920000D01*
X180385714Y-105920000D01*
X180457142Y-105955714D01*
X180492857Y-105991428D01*
X180528571Y-106062857D01*
X180528571Y-106241428D01*
X180492857Y-106312857D01*
X180457142Y-106348571D01*
X180385714Y-106384285D01*
X180171428Y-106384285D01*
X180100000Y-106348571D01*
X180064285Y-106312857D01*
X180992857Y-105634285D02*
X181064285Y-105634285D01*
X181135714Y-105670000D01*
X181171428Y-105705714D01*
X181207142Y-105777142D01*
X181242857Y-105920000D01*
X181242857Y-106098571D01*
X181207142Y-106241428D01*
X181171428Y-106312857D01*
X181135714Y-106348571D01*
X181064285Y-106384285D01*
X180992857Y-106384285D01*
X180921428Y-106348571D01*
X180885714Y-106312857D01*
X180850000Y-106241428D01*
X180814285Y-106098571D01*
X180814285Y-105920000D01*
X180850000Y-105777142D01*
X180885714Y-105705714D01*
X180921428Y-105670000D01*
X180992857Y-105634285D01*
X181885714Y-105884285D02*
X181885714Y-106384285D01*
X181564285Y-105884285D02*
X181564285Y-106277142D01*
X181600000Y-106348571D01*
X181671428Y-106384285D01*
X181778571Y-106384285D01*
X181850000Y-106348571D01*
X181885714Y-106312857D01*
X182492857Y-105991428D02*
X182242857Y-105991428D01*
X182242857Y-106384285D02*
X182242857Y-105634285D01*
X182600000Y-105634285D01*
%TO.C,D4*%
X180421428Y-113369285D02*
X180421428Y-112619285D01*
X180600000Y-112619285D01*
X180707142Y-112655000D01*
X180778571Y-112726428D01*
X180814285Y-112797857D01*
X180850000Y-112940714D01*
X180850000Y-113047857D01*
X180814285Y-113190714D01*
X180778571Y-113262142D01*
X180707142Y-113333571D01*
X180600000Y-113369285D01*
X180421428Y-113369285D01*
X181492857Y-112869285D02*
X181492857Y-113369285D01*
X181314285Y-112583571D02*
X181135714Y-113119285D01*
X181600000Y-113119285D01*
X181314285Y-109684285D02*
X181314285Y-110112857D01*
X181314285Y-109898571D02*
X180564285Y-109898571D01*
X180671428Y-109970000D01*
X180742857Y-110041428D01*
X180778571Y-110112857D01*
X180564285Y-109434285D02*
X180564285Y-108970000D01*
X180850000Y-109220000D01*
X180850000Y-109112857D01*
X180885714Y-109041428D01*
X180921428Y-109005714D01*
X180992857Y-108970000D01*
X181171428Y-108970000D01*
X181242857Y-109005714D01*
X181278571Y-109041428D01*
X181314285Y-109112857D01*
X181314285Y-109327142D01*
X181278571Y-109398571D01*
X181242857Y-109434285D01*
X180564285Y-108755714D02*
X181314285Y-108505714D01*
X180564285Y-108255714D01*
%TO.C,R3*%
X163052142Y-106384285D02*
X162623571Y-106384285D01*
X162837857Y-106384285D02*
X162837857Y-105634285D01*
X162766428Y-105741428D01*
X162695000Y-105812857D01*
X162623571Y-105848571D01*
X163516428Y-105634285D02*
X163587857Y-105634285D01*
X163659285Y-105670000D01*
X163695000Y-105705714D01*
X163730714Y-105777142D01*
X163766428Y-105920000D01*
X163766428Y-106098571D01*
X163730714Y-106241428D01*
X163695000Y-106312857D01*
X163659285Y-106348571D01*
X163587857Y-106384285D01*
X163516428Y-106384285D01*
X163445000Y-106348571D01*
X163409285Y-106312857D01*
X163373571Y-106241428D01*
X163337857Y-106098571D01*
X163337857Y-105920000D01*
X163373571Y-105777142D01*
X163409285Y-105705714D01*
X163445000Y-105670000D01*
X163516428Y-105634285D01*
%TO.C,R4*%
X183390000Y-113369285D02*
X183140000Y-113012142D01*
X182961428Y-113369285D02*
X182961428Y-112619285D01*
X183247142Y-112619285D01*
X183318571Y-112655000D01*
X183354285Y-112690714D01*
X183390000Y-112762142D01*
X183390000Y-112869285D01*
X183354285Y-112940714D01*
X183318571Y-112976428D01*
X183247142Y-113012142D01*
X182961428Y-113012142D01*
X184032857Y-112869285D02*
X184032857Y-113369285D01*
X183854285Y-112583571D02*
X183675714Y-113119285D01*
X184140000Y-113119285D01*
X183854285Y-110023571D02*
X183854285Y-110452142D01*
X183854285Y-110237857D02*
X183104285Y-110237857D01*
X183211428Y-110309285D01*
X183282857Y-110380714D01*
X183318571Y-110452142D01*
X183104285Y-109559285D02*
X183104285Y-109487857D01*
X183140000Y-109416428D01*
X183175714Y-109380714D01*
X183247142Y-109345000D01*
X183390000Y-109309285D01*
X183568571Y-109309285D01*
X183711428Y-109345000D01*
X183782857Y-109380714D01*
X183818571Y-109416428D01*
X183854285Y-109487857D01*
X183854285Y-109559285D01*
X183818571Y-109630714D01*
X183782857Y-109666428D01*
X183711428Y-109702142D01*
X183568571Y-109737857D01*
X183390000Y-109737857D01*
X183247142Y-109702142D01*
X183175714Y-109666428D01*
X183140000Y-109630714D01*
X183104285Y-109559285D01*
X183104285Y-108845000D02*
X183104285Y-108773571D01*
X183140000Y-108702142D01*
X183175714Y-108666428D01*
X183247142Y-108630714D01*
X183390000Y-108595000D01*
X183568571Y-108595000D01*
X183711428Y-108630714D01*
X183782857Y-108666428D01*
X183818571Y-108702142D01*
X183854285Y-108773571D01*
X183854285Y-108845000D01*
X183818571Y-108916428D01*
X183782857Y-108952142D01*
X183711428Y-108987857D01*
X183568571Y-109023571D01*
X183390000Y-109023571D01*
X183247142Y-108987857D01*
X183175714Y-108952142D01*
X183140000Y-108916428D01*
X183104285Y-108845000D01*
X183854285Y-108273571D02*
X183104285Y-108273571D01*
X183568571Y-108202142D02*
X183854285Y-107987857D01*
X183354285Y-107987857D02*
X183640000Y-108273571D01*
%TO.C,R5*%
X180850000Y-119084285D02*
X180600000Y-118727142D01*
X180421428Y-119084285D02*
X180421428Y-118334285D01*
X180707142Y-118334285D01*
X180778571Y-118370000D01*
X180814285Y-118405714D01*
X180850000Y-118477142D01*
X180850000Y-118584285D01*
X180814285Y-118655714D01*
X180778571Y-118691428D01*
X180707142Y-118727142D01*
X180421428Y-118727142D01*
X181528571Y-118334285D02*
X181171428Y-118334285D01*
X181135714Y-118691428D01*
X181171428Y-118655714D01*
X181242857Y-118620000D01*
X181421428Y-118620000D01*
X181492857Y-118655714D01*
X181528571Y-118691428D01*
X181564285Y-118762857D01*
X181564285Y-118941428D01*
X181528571Y-119012857D01*
X181492857Y-119048571D01*
X181421428Y-119084285D01*
X181242857Y-119084285D01*
X181171428Y-119048571D01*
X181135714Y-119012857D01*
X181314285Y-122009285D02*
X181314285Y-122437857D01*
X181314285Y-122223571D02*
X180564285Y-122223571D01*
X180671428Y-122295000D01*
X180742857Y-122366428D01*
X180778571Y-122437857D01*
X181314285Y-121687857D02*
X180564285Y-121687857D01*
X181028571Y-121616428D02*
X181314285Y-121402142D01*
X180814285Y-121402142D02*
X181100000Y-121687857D01*
%TO.C,U1*%
X169418095Y-113752380D02*
X169418095Y-114561904D01*
X169465714Y-114657142D01*
X169513333Y-114704761D01*
X169608571Y-114752380D01*
X169799047Y-114752380D01*
X169894285Y-114704761D01*
X169941904Y-114657142D01*
X169989523Y-114561904D01*
X169989523Y-113752380D01*
X170989523Y-114752380D02*
X170418095Y-114752380D01*
X170703809Y-114752380D02*
X170703809Y-113752380D01*
X170608571Y-113895238D01*
X170513333Y-113990476D01*
X170418095Y-114038095D01*
X167376428Y-123950000D02*
X167733571Y-123950000D01*
X167305000Y-124164285D02*
X167555000Y-123414285D01*
X167805000Y-124164285D01*
X168055000Y-124164285D02*
X168055000Y-123414285D01*
X168233571Y-123414285D01*
X168340714Y-123450000D01*
X168412142Y-123521428D01*
X168447857Y-123592857D01*
X168483571Y-123735714D01*
X168483571Y-123842857D01*
X168447857Y-123985714D01*
X168412142Y-124057142D01*
X168340714Y-124128571D01*
X168233571Y-124164285D01*
X168055000Y-124164285D01*
X168805000Y-123414285D02*
X168805000Y-124021428D01*
X168840714Y-124092857D01*
X168876428Y-124128571D01*
X168947857Y-124164285D01*
X169090714Y-124164285D01*
X169162142Y-124128571D01*
X169197857Y-124092857D01*
X169233571Y-124021428D01*
X169233571Y-123414285D01*
X169590714Y-124164285D02*
X169590714Y-123414285D01*
X169840714Y-123950000D01*
X170090714Y-123414285D01*
X170090714Y-124164285D01*
X170376428Y-123414285D02*
X170876428Y-123414285D01*
X170555000Y-124164285D01*
X171126428Y-123485714D02*
X171162142Y-123450000D01*
X171233571Y-123414285D01*
X171412142Y-123414285D01*
X171483571Y-123450000D01*
X171519285Y-123485714D01*
X171555000Y-123557142D01*
X171555000Y-123628571D01*
X171519285Y-123735714D01*
X171090714Y-124164285D01*
X171555000Y-124164285D01*
X171805000Y-123414285D02*
X172269285Y-123414285D01*
X172019285Y-123700000D01*
X172126428Y-123700000D01*
X172197857Y-123735714D01*
X172233571Y-123771428D01*
X172269285Y-123842857D01*
X172269285Y-124021428D01*
X172233571Y-124092857D01*
X172197857Y-124128571D01*
X172126428Y-124164285D01*
X171912142Y-124164285D01*
X171840714Y-124128571D01*
X171805000Y-124092857D01*
X172912142Y-123664285D02*
X172912142Y-124164285D01*
X172733571Y-123378571D02*
X172555000Y-123914285D01*
X173019285Y-123914285D01*
%TO.C,J5*%
X162310000Y-121509285D02*
X162310000Y-122045000D01*
X162274285Y-122152142D01*
X162202857Y-122223571D01*
X162095714Y-122259285D01*
X162024285Y-122259285D01*
X163024285Y-121509285D02*
X162667142Y-121509285D01*
X162631428Y-121866428D01*
X162667142Y-121830714D01*
X162738571Y-121795000D01*
X162917142Y-121795000D01*
X162988571Y-121830714D01*
X163024285Y-121866428D01*
X163060000Y-121937857D01*
X163060000Y-122116428D01*
X163024285Y-122187857D01*
X162988571Y-122223571D01*
X162917142Y-122259285D01*
X162738571Y-122259285D01*
X162667142Y-122223571D01*
X162631428Y-122187857D01*
%TO.C,C8*%
X156112857Y-106384285D02*
X155684285Y-106384285D01*
X155898571Y-106384285D02*
X155898571Y-105634285D01*
X155827142Y-105741428D01*
X155755714Y-105812857D01*
X155684285Y-105848571D01*
X157327142Y-105884285D02*
X157327142Y-106384285D01*
X157005714Y-105884285D02*
X157005714Y-106277142D01*
X157041428Y-106348571D01*
X157112857Y-106384285D01*
X157220000Y-106384285D01*
X157291428Y-106348571D01*
X157327142Y-106312857D01*
X157934285Y-105991428D02*
X157684285Y-105991428D01*
X157684285Y-106384285D02*
X157684285Y-105634285D01*
X158041428Y-105634285D01*
%TO.C,C9*%
X159843571Y-112099285D02*
X159415000Y-112099285D01*
X159629285Y-112099285D02*
X159629285Y-111349285D01*
X159557857Y-111456428D01*
X159486428Y-111527857D01*
X159415000Y-111563571D01*
X160307857Y-111349285D02*
X160379285Y-111349285D01*
X160450714Y-111385000D01*
X160486428Y-111420714D01*
X160522142Y-111492142D01*
X160557857Y-111635000D01*
X160557857Y-111813571D01*
X160522142Y-111956428D01*
X160486428Y-112027857D01*
X160450714Y-112063571D01*
X160379285Y-112099285D01*
X160307857Y-112099285D01*
X160236428Y-112063571D01*
X160200714Y-112027857D01*
X160165000Y-111956428D01*
X160129285Y-111813571D01*
X160129285Y-111635000D01*
X160165000Y-111492142D01*
X160200714Y-111420714D01*
X160236428Y-111385000D01*
X160307857Y-111349285D01*
X161022142Y-111349285D02*
X161093571Y-111349285D01*
X161165000Y-111385000D01*
X161200714Y-111420714D01*
X161236428Y-111492142D01*
X161272142Y-111635000D01*
X161272142Y-111813571D01*
X161236428Y-111956428D01*
X161200714Y-112027857D01*
X161165000Y-112063571D01*
X161093571Y-112099285D01*
X161022142Y-112099285D01*
X160950714Y-112063571D01*
X160915000Y-112027857D01*
X160879285Y-111956428D01*
X160843571Y-111813571D01*
X160843571Y-111635000D01*
X160879285Y-111492142D01*
X160915000Y-111420714D01*
X160950714Y-111385000D01*
X161022142Y-111349285D01*
X162165000Y-111599285D02*
X162165000Y-112099285D01*
X162165000Y-111670714D02*
X162200714Y-111635000D01*
X162272142Y-111599285D01*
X162379285Y-111599285D01*
X162450714Y-111635000D01*
X162486428Y-111706428D01*
X162486428Y-112099285D01*
X163093571Y-111706428D02*
X162843571Y-111706428D01*
X162843571Y-112099285D02*
X162843571Y-111349285D01*
X163200714Y-111349285D01*
%TO.C,U2*%
X155184428Y-122217285D02*
X155684428Y-122217285D01*
X155363000Y-122967285D01*
X156291571Y-122467285D02*
X156291571Y-122967285D01*
X156113000Y-122181571D02*
X155934428Y-122717285D01*
X156398714Y-122717285D01*
X156684428Y-122967285D02*
X156684428Y-122217285D01*
X156684428Y-122574428D02*
X157113000Y-122574428D01*
X157113000Y-122967285D02*
X157113000Y-122217285D01*
X157898714Y-122895857D02*
X157863000Y-122931571D01*
X157755857Y-122967285D01*
X157684428Y-122967285D01*
X157577285Y-122931571D01*
X157505857Y-122860142D01*
X157470142Y-122788714D01*
X157434428Y-122645857D01*
X157434428Y-122538714D01*
X157470142Y-122395857D01*
X157505857Y-122324428D01*
X157577285Y-122253000D01*
X157684428Y-122217285D01*
X157755857Y-122217285D01*
X157863000Y-122253000D01*
X157898714Y-122288714D01*
X158148714Y-122217285D02*
X158648714Y-122217285D01*
X158327285Y-122967285D01*
X159077285Y-122217285D02*
X159148714Y-122217285D01*
X159220142Y-122253000D01*
X159255857Y-122288714D01*
X159291571Y-122360142D01*
X159327285Y-122503000D01*
X159327285Y-122681571D01*
X159291571Y-122824428D01*
X159255857Y-122895857D01*
X159220142Y-122931571D01*
X159148714Y-122967285D01*
X159077285Y-122967285D01*
X159005857Y-122931571D01*
X158970142Y-122895857D01*
X158934428Y-122824428D01*
X158898714Y-122681571D01*
X158898714Y-122503000D01*
X158934428Y-122360142D01*
X158970142Y-122288714D01*
X159005857Y-122253000D01*
X159077285Y-122217285D01*
X159791571Y-122217285D02*
X159863000Y-122217285D01*
X159934428Y-122253000D01*
X159970142Y-122288714D01*
X160005857Y-122360142D01*
X160041571Y-122503000D01*
X160041571Y-122681571D01*
X160005857Y-122824428D01*
X159970142Y-122895857D01*
X159934428Y-122931571D01*
X159863000Y-122967285D01*
X159791571Y-122967285D01*
X159720142Y-122931571D01*
X159684428Y-122895857D01*
X159648714Y-122824428D01*
X159613000Y-122681571D01*
X159613000Y-122503000D01*
X159648714Y-122360142D01*
X159684428Y-122288714D01*
X159720142Y-122253000D01*
X159791571Y-122217285D01*
X160327285Y-122288714D02*
X160363000Y-122253000D01*
X160434428Y-122217285D01*
X160613000Y-122217285D01*
X160684428Y-122253000D01*
X160720142Y-122288714D01*
X160755857Y-122360142D01*
X160755857Y-122431571D01*
X160720142Y-122538714D01*
X160291571Y-122967285D01*
X160755857Y-122967285D01*
%TD*%
M02*
