%TF.GenerationSoftware,KiCad,Pcbnew,(5.1.9)-1*%
%TF.CreationDate,2021-11-14T21:39:45-06:00*%
%TF.ProjectId,BLDC_Cont,424c4443-5f43-46f6-9e74-2e6b69636164,rev?*%
%TF.SameCoordinates,Original*%
%TF.FileFunction,Copper,L4,Bot*%
%TF.FilePolarity,Positive*%
%FSLAX46Y46*%
G04 Gerber Fmt 4.6, Leading zero omitted, Abs format (unit mm)*
G04 Created by KiCad (PCBNEW (5.1.9)-1) date 2021-11-14 21:39:45*
%MOMM*%
%LPD*%
G01*
G04 APERTURE LIST*
%TA.AperFunction,SMDPad,CuDef*%
%ADD10R,4.000000X4.000000*%
%TD*%
%TA.AperFunction,SMDPad,CuDef*%
%ADD11C,0.100000*%
%TD*%
%TA.AperFunction,SMDPad,CuDef*%
%ADD12R,0.700000X1.150000*%
%TD*%
%TA.AperFunction,ComponentPad*%
%ADD13C,4.000000*%
%TD*%
%TA.AperFunction,ComponentPad*%
%ADD14R,4.000000X4.000000*%
%TD*%
%TA.AperFunction,ComponentPad*%
%ADD15R,1.600000X1.600000*%
%TD*%
%TA.AperFunction,ComponentPad*%
%ADD16C,1.600000*%
%TD*%
%TA.AperFunction,SMDPad,CuDef*%
%ADD17R,0.950000X1.000000*%
%TD*%
%TA.AperFunction,SMDPad,CuDef*%
%ADD18R,3.200000X4.900000*%
%TD*%
%TA.AperFunction,ComponentPad*%
%ADD19R,1.700000X1.700000*%
%TD*%
%TA.AperFunction,ComponentPad*%
%ADD20O,1.700000X1.700000*%
%TD*%
%TA.AperFunction,ViaPad*%
%ADD21C,0.800000*%
%TD*%
%TA.AperFunction,Conductor*%
%ADD22C,1.000000*%
%TD*%
%TA.AperFunction,Conductor*%
%ADD23C,0.500000*%
%TD*%
%TA.AperFunction,Conductor*%
%ADD24C,0.254000*%
%TD*%
%TA.AperFunction,Conductor*%
%ADD25C,0.100000*%
%TD*%
G04 APERTURE END LIST*
D10*
%TO.P,J2,1*%
%TO.N,+VDC*%
X165735000Y-107315000D03*
%TD*%
%TA.AperFunction,SMDPad,CuDef*%
D11*
%TO.P,Q1,5*%
%TO.N,+VDC*%
G36*
X179515000Y-108150000D02*
G01*
X179515000Y-109700000D01*
X179265000Y-109700000D01*
X179265000Y-112775000D01*
X175065000Y-112775000D01*
X175065000Y-109700000D01*
X174815000Y-109700000D01*
X174815000Y-108150000D01*
X179515000Y-108150000D01*
G37*
%TD.AperFunction*%
D12*
%TO.P,Q1,4*%
%TO.N,Net-(Q1-Pad4)*%
X175255000Y-114395000D03*
%TO.P,Q1,3*%
%TO.N,/PHASE*%
X176525000Y-114395000D03*
%TO.P,Q1,1*%
X179075000Y-114395000D03*
%TO.P,Q1,2*%
X177805000Y-114395000D03*
%TD*%
D13*
%TO.P,C7,2*%
%TO.N,GNDPWR*%
X187960000Y-120490000D03*
D14*
%TO.P,C7,1*%
%TO.N,+VDC*%
X187960000Y-110490000D03*
%TD*%
D15*
%TO.P,C6,1*%
%TO.N,/VDD*%
X173990000Y-106045000D03*
D16*
%TO.P,C6,2*%
%TO.N,/PHASE*%
X176490000Y-106045000D03*
%TD*%
D17*
%TO.P,D1,2*%
%TO.N,/PHASE*%
X183850000Y-114735000D03*
D18*
%TO.P,D1,3*%
%TO.N,+VDC*%
X182880000Y-110385000D03*
D17*
%TO.P,D1,1*%
%TO.N,/PHASE*%
X181910000Y-114735000D03*
%TD*%
%TO.P,D2,1*%
%TO.N,GNDPWR*%
X180640000Y-123095000D03*
D18*
%TO.P,D2,3*%
%TO.N,/PHASE*%
X181610000Y-118745000D03*
D17*
%TO.P,D2,2*%
%TO.N,GNDPWR*%
X182580000Y-123095000D03*
%TD*%
D12*
%TO.P,Q2,2*%
%TO.N,GNDPWR*%
X176535000Y-122650000D03*
%TO.P,Q2,1*%
X177805000Y-122650000D03*
%TO.P,Q2,3*%
X175255000Y-122650000D03*
%TO.P,Q2,4*%
%TO.N,Net-(Q2-Pad4)*%
X173985000Y-122650000D03*
%TA.AperFunction,SMDPad,CuDef*%
D11*
%TO.P,Q2,5*%
%TO.N,/PHASE*%
G36*
X178245000Y-116405000D02*
G01*
X178245000Y-117955000D01*
X177995000Y-117955000D01*
X177995000Y-121030000D01*
X173795000Y-121030000D01*
X173795000Y-117955000D01*
X173545000Y-117955000D01*
X173545000Y-116405000D01*
X178245000Y-116405000D01*
G37*
%TD.AperFunction*%
%TD*%
%TO.P,R1,1*%
%TO.N,Net-(Q1-Pad4)*%
%TA.AperFunction,SMDPad,CuDef*%
G36*
G01*
X172075001Y-116500000D02*
X170824999Y-116500000D01*
G75*
G02*
X170575000Y-116250001I0J249999D01*
G01*
X170575000Y-115449999D01*
G75*
G02*
X170824999Y-115200000I249999J0D01*
G01*
X172075001Y-115200000D01*
G75*
G02*
X172325000Y-115449999I0J-249999D01*
G01*
X172325000Y-116250001D01*
G75*
G02*
X172075001Y-116500000I-249999J0D01*
G01*
G37*
%TD.AperFunction*%
%TO.P,R1,2*%
%TO.N,/V_OH*%
%TA.AperFunction,SMDPad,CuDef*%
G36*
G01*
X172075001Y-113400000D02*
X170824999Y-113400000D01*
G75*
G02*
X170575000Y-113150001I0J249999D01*
G01*
X170575000Y-112349999D01*
G75*
G02*
X170824999Y-112100000I249999J0D01*
G01*
X172075001Y-112100000D01*
G75*
G02*
X172325000Y-112349999I0J-249999D01*
G01*
X172325000Y-113150001D01*
G75*
G02*
X172075001Y-113400000I-249999J0D01*
G01*
G37*
%TD.AperFunction*%
%TD*%
%TO.P,R2,2*%
%TO.N,/V_OL*%
%TA.AperFunction,SMDPad,CuDef*%
G36*
G01*
X172075001Y-120385000D02*
X170824999Y-120385000D01*
G75*
G02*
X170575000Y-120135001I0J249999D01*
G01*
X170575000Y-119334999D01*
G75*
G02*
X170824999Y-119085000I249999J0D01*
G01*
X172075001Y-119085000D01*
G75*
G02*
X172325000Y-119334999I0J-249999D01*
G01*
X172325000Y-120135001D01*
G75*
G02*
X172075001Y-120385000I-249999J0D01*
G01*
G37*
%TD.AperFunction*%
%TO.P,R2,1*%
%TO.N,Net-(Q2-Pad4)*%
%TA.AperFunction,SMDPad,CuDef*%
G36*
G01*
X172075001Y-123485000D02*
X170824999Y-123485000D01*
G75*
G02*
X170575000Y-123235001I0J249999D01*
G01*
X170575000Y-122434999D01*
G75*
G02*
X170824999Y-122185000I249999J0D01*
G01*
X172075001Y-122185000D01*
G75*
G02*
X172325000Y-122434999I0J-249999D01*
G01*
X172325000Y-123235001D01*
G75*
G02*
X172075001Y-123485000I-249999J0D01*
G01*
G37*
%TD.AperFunction*%
%TD*%
D10*
%TO.P,J1,1*%
%TO.N,/PHASE*%
X187960000Y-115570000D03*
%TD*%
%TO.P,J3,1*%
%TO.N,GNDPWR*%
X165735000Y-123825000D03*
%TD*%
D19*
%TO.P,J4,1*%
%TO.N,+5VD*%
X152400000Y-112395000D03*
D20*
%TO.P,J4,2*%
%TO.N,/PWM_A*%
X152400000Y-114935000D03*
%TO.P,J4,3*%
%TO.N,/PWM_B*%
X152400000Y-117475000D03*
%TO.P,J4,4*%
%TO.N,GNDD*%
X152400000Y-120015000D03*
%TD*%
D19*
%TO.P,J6,1*%
%TO.N,+12V*%
X159385000Y-124460000D03*
D20*
%TO.P,J6,2*%
%TO.N,GNDPWR*%
X161925000Y-124460000D03*
%TD*%
D21*
%TO.N,GNDD*%
X155575000Y-121285000D03*
X155575000Y-114935000D03*
%TO.N,+12V*%
X160655000Y-109220000D03*
X161925000Y-109855000D03*
X169545000Y-120015000D03*
X169545000Y-118745000D03*
X169545000Y-117475000D03*
X169545000Y-121285000D03*
%TO.N,+5VD*%
X164465000Y-117182500D03*
X165735000Y-116840000D03*
X167005000Y-116840000D03*
X160305000Y-113380000D03*
X159352500Y-112427500D03*
X158407500Y-111482500D03*
%TO.N,GNDD*%
X155282500Y-111125000D03*
X155282500Y-109512500D03*
X155282500Y-107950000D03*
X156845000Y-114935000D03*
X155575000Y-118745000D03*
X156845000Y-118745000D03*
X156845000Y-121285000D03*
X165100000Y-119843750D03*
X165881250Y-118891250D03*
X167005000Y-118110000D03*
%TO.N,GNDPWR*%
X167005000Y-125095000D03*
X165735000Y-125095000D03*
X164465000Y-125095000D03*
X168275000Y-125095000D03*
X169545000Y-125095000D03*
X170815000Y-125095000D03*
X172085000Y-125095000D03*
X173355000Y-125095000D03*
X174625000Y-125095000D03*
X175895000Y-125095000D03*
X177165000Y-125095000D03*
X178435000Y-125095000D03*
X179705000Y-125095000D03*
X180975000Y-125095000D03*
X182245000Y-125095000D03*
X183515000Y-125095000D03*
X184785000Y-125095000D03*
X186055000Y-125095000D03*
X187325000Y-125095000D03*
%TO.N,/PHASE*%
X176525000Y-114395000D03*
X177805000Y-114395000D03*
X179075000Y-114395000D03*
X181610000Y-114395000D03*
X184055000Y-114395000D03*
%TO.N,/V_OH*%
X173990000Y-114300000D03*
X172655000Y-114300000D03*
X171450000Y-114300000D03*
%TO.N,/V_OL*%
X172720000Y-120650000D03*
X171450000Y-120650000D03*
%TO.N,/PWM_A*%
X158750000Y-118745000D03*
X157480000Y-113665000D03*
%TO.N,+5VD*%
X168275000Y-120650000D03*
X167005000Y-120650000D03*
X158407500Y-107950000D03*
X158407500Y-109562500D03*
%TD*%
D22*
%TO.N,+VDC*%
X176660000Y-108655000D02*
X175895000Y-109420000D01*
%TO.N,Net-(Q1-Pad4)*%
X171595010Y-115704990D02*
X174490010Y-115704990D01*
X171450000Y-115850000D02*
X171595010Y-115704990D01*
X175255000Y-114940000D02*
X175255000Y-114395000D01*
X174490010Y-115704990D02*
X175255000Y-114940000D01*
%TO.N,Net-(Q2-Pad4)*%
X171635000Y-122650000D02*
X171450000Y-122835000D01*
X173985000Y-122650000D02*
X171635000Y-122650000D01*
%TO.N,+5VD*%
X164807500Y-116840000D02*
X164465000Y-117182500D01*
X167005000Y-116840000D02*
X164807500Y-116840000D01*
%TO.N,GNDPWR*%
X175255000Y-122650000D02*
X175255000Y-124455000D01*
X175255000Y-124455000D02*
X175260000Y-124460000D01*
X182580000Y-124160000D02*
X182880000Y-124460000D01*
X182580000Y-123095000D02*
X182580000Y-124160000D01*
X180640000Y-124125000D02*
X180975000Y-124460000D01*
X180640000Y-123095000D02*
X180640000Y-124125000D01*
X180975000Y-124460000D02*
X182880000Y-124460000D01*
X176535000Y-122650000D02*
X176535000Y-124455000D01*
X176535000Y-124455000D02*
X176530000Y-124460000D01*
X175260000Y-124460000D02*
X176530000Y-124460000D01*
X177805000Y-124455000D02*
X177800000Y-124460000D01*
X177805000Y-122650000D02*
X177805000Y-124455000D01*
X177800000Y-124460000D02*
X180975000Y-124460000D01*
X176530000Y-124460000D02*
X177800000Y-124460000D01*
%TO.N,/PHASE*%
X175890000Y-118105000D02*
X176530000Y-118745000D01*
X181910000Y-116575000D02*
X182880000Y-117545000D01*
X176525000Y-118750000D02*
X175895000Y-119380000D01*
X176525000Y-114395000D02*
X176525000Y-114395000D01*
X177805000Y-117470000D02*
X175895000Y-119380000D01*
X177805000Y-114395000D02*
X177805000Y-114395000D01*
X179075000Y-116200000D02*
X175895000Y-119380000D01*
X179075000Y-114395000D02*
X179075000Y-114395000D01*
X181910000Y-118445000D02*
X181610000Y-118745000D01*
X181910000Y-114735000D02*
X181910000Y-118445000D01*
X176525000Y-114395000D02*
X176525000Y-118750000D01*
X177805000Y-114395000D02*
X177805000Y-117470000D01*
X179075000Y-114395000D02*
X179075000Y-116200000D01*
X180975000Y-119380000D02*
X181610000Y-118745000D01*
X175895000Y-119380000D02*
X180975000Y-119380000D01*
X183850000Y-114735000D02*
X183850000Y-116505000D01*
X183850000Y-116505000D02*
X181610000Y-118745000D01*
%TO.N,/V_OH*%
X173990000Y-114300000D02*
X172655000Y-114300000D01*
X171450000Y-114300000D02*
X171450000Y-112750000D01*
X172655000Y-114300000D02*
X171450000Y-114300000D01*
%TO.N,/V_OL*%
X171450000Y-119735000D02*
X171450000Y-120015000D01*
X172720000Y-120650000D02*
X170815000Y-120650000D01*
D23*
%TO.N,GNDD*%
X157480000Y-122555000D02*
X156845000Y-121920000D01*
X156845000Y-118110000D02*
X156210000Y-117475000D01*
X156845000Y-121920000D02*
X156845000Y-118110000D01*
D22*
%TO.N,/V_OL*%
X171450000Y-120650000D02*
X171450000Y-119735000D01*
%TD*%
D24*
%TO.N,+VDC*%
X172551928Y-106845000D02*
X172564188Y-106969482D01*
X172600498Y-107089180D01*
X172659463Y-107199494D01*
X172738815Y-107296185D01*
X172835506Y-107375537D01*
X172945820Y-107434502D01*
X173065518Y-107470812D01*
X173190000Y-107483072D01*
X174790000Y-107483072D01*
X174914482Y-107470812D01*
X175034180Y-107434502D01*
X175144494Y-107375537D01*
X175241185Y-107296185D01*
X175320537Y-107199494D01*
X175379502Y-107089180D01*
X175408661Y-106993057D01*
X175575241Y-107159637D01*
X175810273Y-107316680D01*
X176071426Y-107424853D01*
X176348665Y-107480000D01*
X176631335Y-107480000D01*
X176908574Y-107424853D01*
X177169727Y-107316680D01*
X177404759Y-107159637D01*
X177604637Y-106959759D01*
X177761680Y-106724727D01*
X177869853Y-106463574D01*
X177925000Y-106186335D01*
X177925000Y-105903665D01*
X177869853Y-105626426D01*
X177832812Y-105537000D01*
X189738000Y-105537000D01*
X189738000Y-112903000D01*
X172963072Y-112903000D01*
X172963072Y-112349999D01*
X172946008Y-112176745D01*
X172895472Y-112010149D01*
X172813405Y-111856613D01*
X172702962Y-111722038D01*
X172568387Y-111611595D01*
X172414851Y-111529528D01*
X172248255Y-111478992D01*
X172075001Y-111461928D01*
X170824999Y-111461928D01*
X170651745Y-111478992D01*
X170485149Y-111529528D01*
X170331613Y-111611595D01*
X170265477Y-111665871D01*
X167729803Y-109130197D01*
X167710557Y-109114403D01*
X167688601Y-109102667D01*
X167664776Y-109095440D01*
X167640000Y-109093000D01*
X163957000Y-109093000D01*
X163957000Y-105537000D01*
X172551928Y-105537000D01*
X172551928Y-106845000D01*
%TA.AperFunction,Conductor*%
D25*
G36*
X172551928Y-106845000D02*
G01*
X172564188Y-106969482D01*
X172600498Y-107089180D01*
X172659463Y-107199494D01*
X172738815Y-107296185D01*
X172835506Y-107375537D01*
X172945820Y-107434502D01*
X173065518Y-107470812D01*
X173190000Y-107483072D01*
X174790000Y-107483072D01*
X174914482Y-107470812D01*
X175034180Y-107434502D01*
X175144494Y-107375537D01*
X175241185Y-107296185D01*
X175320537Y-107199494D01*
X175379502Y-107089180D01*
X175408661Y-106993057D01*
X175575241Y-107159637D01*
X175810273Y-107316680D01*
X176071426Y-107424853D01*
X176348665Y-107480000D01*
X176631335Y-107480000D01*
X176908574Y-107424853D01*
X177169727Y-107316680D01*
X177404759Y-107159637D01*
X177604637Y-106959759D01*
X177761680Y-106724727D01*
X177869853Y-106463574D01*
X177925000Y-106186335D01*
X177925000Y-105903665D01*
X177869853Y-105626426D01*
X177832812Y-105537000D01*
X189738000Y-105537000D01*
X189738000Y-112903000D01*
X172963072Y-112903000D01*
X172963072Y-112349999D01*
X172946008Y-112176745D01*
X172895472Y-112010149D01*
X172813405Y-111856613D01*
X172702962Y-111722038D01*
X172568387Y-111611595D01*
X172414851Y-111529528D01*
X172248255Y-111478992D01*
X172075001Y-111461928D01*
X170824999Y-111461928D01*
X170651745Y-111478992D01*
X170485149Y-111529528D01*
X170331613Y-111611595D01*
X170265477Y-111665871D01*
X167729803Y-109130197D01*
X167710557Y-109114403D01*
X167688601Y-109102667D01*
X167664776Y-109095440D01*
X167640000Y-109093000D01*
X163957000Y-109093000D01*
X163957000Y-105537000D01*
X172551928Y-105537000D01*
X172551928Y-106845000D01*
G37*
%TD.AperFunction*%
%TD*%
D24*
%TO.N,/PHASE*%
X185928000Y-116713000D02*
X176022000Y-116713000D01*
X176022000Y-115778824D01*
X176061449Y-115746449D01*
X176203284Y-115573623D01*
X176308676Y-115376447D01*
X176373577Y-115162499D01*
X176390000Y-114995752D01*
X176390000Y-114995745D01*
X176395490Y-114940001D01*
X176390000Y-114884257D01*
X176390000Y-114339249D01*
X176373577Y-114172502D01*
X176308676Y-113958554D01*
X176243072Y-113835816D01*
X176243072Y-113820000D01*
X176240314Y-113792000D01*
X185928000Y-113792000D01*
X185928000Y-116713000D01*
%TA.AperFunction,Conductor*%
D25*
G36*
X185928000Y-116713000D02*
G01*
X176022000Y-116713000D01*
X176022000Y-115778824D01*
X176061449Y-115746449D01*
X176203284Y-115573623D01*
X176308676Y-115376447D01*
X176373577Y-115162499D01*
X176390000Y-114995752D01*
X176390000Y-114995745D01*
X176395490Y-114940001D01*
X176390000Y-114884257D01*
X176390000Y-114339249D01*
X176373577Y-114172502D01*
X176308676Y-113958554D01*
X176243072Y-113835816D01*
X176243072Y-113820000D01*
X176240314Y-113792000D01*
X185928000Y-113792000D01*
X185928000Y-116713000D01*
G37*
%TD.AperFunction*%
%TD*%
D24*
%TO.N,GNDD*%
X162433000Y-108949651D02*
X162415256Y-108937795D01*
X162226898Y-108859774D01*
X162026939Y-108820000D01*
X161823061Y-108820000D01*
X161625840Y-108859229D01*
X161572205Y-108729744D01*
X161458937Y-108560226D01*
X161314774Y-108416063D01*
X161145256Y-108302795D01*
X160956898Y-108224774D01*
X160756939Y-108185000D01*
X160553061Y-108185000D01*
X160353102Y-108224774D01*
X160164744Y-108302795D01*
X159995226Y-108416063D01*
X159851063Y-108560226D01*
X159737795Y-108729744D01*
X159659774Y-108918102D01*
X159620000Y-109118061D01*
X159620000Y-109321939D01*
X159659774Y-109521898D01*
X159737795Y-109710256D01*
X159851063Y-109879774D01*
X159995226Y-110023937D01*
X160164744Y-110137205D01*
X160353102Y-110215226D01*
X160553061Y-110255000D01*
X160756939Y-110255000D01*
X160954160Y-110215771D01*
X161007795Y-110345256D01*
X161121063Y-110514774D01*
X161265226Y-110658937D01*
X161434744Y-110772205D01*
X161623102Y-110850226D01*
X161823061Y-110890000D01*
X162026939Y-110890000D01*
X162226898Y-110850226D01*
X162415256Y-110772205D01*
X162584774Y-110658937D01*
X162626711Y-110617000D01*
X167587394Y-110617000D01*
X169936928Y-112966534D01*
X169936928Y-113150001D01*
X169953992Y-113323255D01*
X170004528Y-113489851D01*
X170053000Y-113580535D01*
X170053000Y-115019465D01*
X170004528Y-115110149D01*
X169953992Y-115276745D01*
X169936928Y-115449999D01*
X169936928Y-116250001D01*
X169953992Y-116423255D01*
X169988991Y-116538631D01*
X169846898Y-116479774D01*
X169646939Y-116440000D01*
X169443061Y-116440000D01*
X169243102Y-116479774D01*
X169054744Y-116557795D01*
X168885226Y-116671063D01*
X168741063Y-116815226D01*
X168627795Y-116984744D01*
X168549774Y-117173102D01*
X168510000Y-117373061D01*
X168510000Y-117576939D01*
X168549774Y-117776898D01*
X168627795Y-117965256D01*
X168724510Y-118110000D01*
X168627795Y-118254744D01*
X168549774Y-118443102D01*
X168510000Y-118643061D01*
X168510000Y-118846939D01*
X168549774Y-119046898D01*
X168627795Y-119235256D01*
X168724510Y-119380000D01*
X168627795Y-119524744D01*
X168574160Y-119654229D01*
X168376939Y-119615000D01*
X168173061Y-119615000D01*
X167973102Y-119654774D01*
X167784744Y-119732795D01*
X167640000Y-119829510D01*
X167495256Y-119732795D01*
X167306898Y-119654774D01*
X167106939Y-119615000D01*
X166903061Y-119615000D01*
X166703102Y-119654774D01*
X166514744Y-119732795D01*
X166345226Y-119846063D01*
X166201063Y-119990226D01*
X166087795Y-120159744D01*
X166009774Y-120348102D01*
X165970000Y-120548061D01*
X165970000Y-120751939D01*
X166009774Y-120951898D01*
X166087795Y-121140256D01*
X166099651Y-121158000D01*
X158115000Y-121158000D01*
X158090224Y-121160440D01*
X158066399Y-121167667D01*
X158044443Y-121179403D01*
X158025197Y-121195197D01*
X158009403Y-121214443D01*
X157997667Y-121236399D01*
X157990440Y-121260224D01*
X157988000Y-121285000D01*
X157988000Y-123286306D01*
X157945498Y-123365820D01*
X157909188Y-123485518D01*
X157896928Y-123610000D01*
X157896928Y-125310000D01*
X157909188Y-125434482D01*
X157945498Y-125554180D01*
X157971593Y-125603000D01*
X151257000Y-125603000D01*
X151257000Y-118432107D01*
X151453368Y-118628475D01*
X151696589Y-118790990D01*
X151966842Y-118902932D01*
X152253740Y-118960000D01*
X152546260Y-118960000D01*
X152833158Y-118902932D01*
X153103411Y-118790990D01*
X153324802Y-118643061D01*
X157715000Y-118643061D01*
X157715000Y-118846939D01*
X157754774Y-119046898D01*
X157832795Y-119235256D01*
X157946063Y-119404774D01*
X158090226Y-119548937D01*
X158259744Y-119662205D01*
X158448102Y-119740226D01*
X158648061Y-119780000D01*
X158851939Y-119780000D01*
X159051898Y-119740226D01*
X159240256Y-119662205D01*
X159409774Y-119548937D01*
X159553937Y-119404774D01*
X159667205Y-119235256D01*
X159745226Y-119046898D01*
X159785000Y-118846939D01*
X159785000Y-118643061D01*
X159745226Y-118443102D01*
X159667205Y-118254744D01*
X159553937Y-118085226D01*
X159409774Y-117941063D01*
X159240256Y-117827795D01*
X159051898Y-117749774D01*
X158851939Y-117710000D01*
X158648061Y-117710000D01*
X158448102Y-117749774D01*
X158259744Y-117827795D01*
X158090226Y-117941063D01*
X157946063Y-118085226D01*
X157832795Y-118254744D01*
X157754774Y-118443102D01*
X157715000Y-118643061D01*
X153324802Y-118643061D01*
X153346632Y-118628475D01*
X153553475Y-118421632D01*
X153715990Y-118178411D01*
X153827932Y-117908158D01*
X153885000Y-117621260D01*
X153885000Y-117328740D01*
X153855911Y-117182500D01*
X163324509Y-117182500D01*
X163346423Y-117404998D01*
X163411324Y-117618946D01*
X163516717Y-117816122D01*
X163658552Y-117988948D01*
X163831378Y-118130783D01*
X164028554Y-118236176D01*
X164242502Y-118301077D01*
X164465000Y-118322991D01*
X164687498Y-118301077D01*
X164901446Y-118236176D01*
X165098622Y-118130783D01*
X165228143Y-118024488D01*
X165277631Y-117975000D01*
X167060752Y-117975000D01*
X167227499Y-117958577D01*
X167441447Y-117893676D01*
X167638623Y-117788284D01*
X167811449Y-117646449D01*
X167953284Y-117473623D01*
X168058676Y-117276447D01*
X168123577Y-117062499D01*
X168145491Y-116840000D01*
X168123577Y-116617501D01*
X168058676Y-116403553D01*
X167953284Y-116206377D01*
X167811449Y-116033551D01*
X167638623Y-115891716D01*
X167441447Y-115786324D01*
X167227499Y-115721423D01*
X167060752Y-115705000D01*
X164863251Y-115705000D01*
X164807499Y-115699509D01*
X164585000Y-115721423D01*
X164544606Y-115733677D01*
X164371053Y-115786324D01*
X164173877Y-115891716D01*
X164001051Y-116033551D01*
X163965504Y-116076865D01*
X163623012Y-116419357D01*
X163516717Y-116548878D01*
X163411324Y-116746054D01*
X163346423Y-116960002D01*
X163324509Y-117182500D01*
X153855911Y-117182500D01*
X153827932Y-117041842D01*
X153715990Y-116771589D01*
X153553475Y-116528368D01*
X153346632Y-116321525D01*
X153172240Y-116205000D01*
X153346632Y-116088475D01*
X153553475Y-115881632D01*
X153715990Y-115638411D01*
X153827932Y-115368158D01*
X153885000Y-115081260D01*
X153885000Y-114788740D01*
X153827932Y-114501842D01*
X153715990Y-114231589D01*
X153553475Y-113988368D01*
X153421620Y-113856513D01*
X153494180Y-113834502D01*
X153604494Y-113775537D01*
X153701185Y-113696185D01*
X153780537Y-113599494D01*
X153800011Y-113563061D01*
X156445000Y-113563061D01*
X156445000Y-113766939D01*
X156484774Y-113966898D01*
X156562795Y-114155256D01*
X156676063Y-114324774D01*
X156820226Y-114468937D01*
X156989744Y-114582205D01*
X157178102Y-114660226D01*
X157378061Y-114700000D01*
X157581939Y-114700000D01*
X157781898Y-114660226D01*
X157970256Y-114582205D01*
X158139774Y-114468937D01*
X158283937Y-114324774D01*
X158397205Y-114155256D01*
X158475226Y-113966898D01*
X158515000Y-113766939D01*
X158515000Y-113563061D01*
X158475226Y-113363102D01*
X158397205Y-113174744D01*
X158283937Y-113005226D01*
X158139774Y-112861063D01*
X157970256Y-112747795D01*
X157781898Y-112669774D01*
X157581939Y-112630000D01*
X157378061Y-112630000D01*
X157178102Y-112669774D01*
X156989744Y-112747795D01*
X156820226Y-112861063D01*
X156676063Y-113005226D01*
X156562795Y-113174744D01*
X156484774Y-113363102D01*
X156445000Y-113563061D01*
X153800011Y-113563061D01*
X153839502Y-113489180D01*
X153875812Y-113369482D01*
X153888072Y-113245000D01*
X153888072Y-111545000D01*
X153875812Y-111420518D01*
X153839502Y-111300820D01*
X153780537Y-111190506D01*
X153701185Y-111093815D01*
X153604494Y-111014463D01*
X153494180Y-110955498D01*
X153374482Y-110919188D01*
X153250000Y-110906928D01*
X151550000Y-110906928D01*
X151425518Y-110919188D01*
X151305820Y-110955498D01*
X151257000Y-110981593D01*
X151257000Y-107848061D01*
X157372500Y-107848061D01*
X157372500Y-108051939D01*
X157412274Y-108251898D01*
X157490295Y-108440256D01*
X157603563Y-108609774D01*
X157747726Y-108753937D01*
X157751188Y-108756250D01*
X157747726Y-108758563D01*
X157603563Y-108902726D01*
X157490295Y-109072244D01*
X157412274Y-109260602D01*
X157372500Y-109460561D01*
X157372500Y-109664439D01*
X157412274Y-109864398D01*
X157490295Y-110052756D01*
X157603563Y-110222274D01*
X157747726Y-110366437D01*
X157917244Y-110479705D01*
X158020560Y-110522500D01*
X157917244Y-110565295D01*
X157747726Y-110678563D01*
X157603563Y-110822726D01*
X157490295Y-110992244D01*
X157412274Y-111180602D01*
X157372500Y-111380561D01*
X157372500Y-111584439D01*
X157412274Y-111784398D01*
X157490295Y-111972756D01*
X157603563Y-112142274D01*
X157747726Y-112286437D01*
X157917244Y-112399705D01*
X158105602Y-112477726D01*
X158305561Y-112517500D01*
X158317500Y-112517500D01*
X158317500Y-112529439D01*
X158357274Y-112729398D01*
X158435295Y-112917756D01*
X158548563Y-113087274D01*
X158692726Y-113231437D01*
X158862244Y-113344705D01*
X159050602Y-113422726D01*
X159250561Y-113462500D01*
X159270000Y-113462500D01*
X159270000Y-113481939D01*
X159309774Y-113681898D01*
X159387795Y-113870256D01*
X159501063Y-114039774D01*
X159645226Y-114183937D01*
X159814744Y-114297205D01*
X160003102Y-114375226D01*
X160203061Y-114415000D01*
X160406939Y-114415000D01*
X160606898Y-114375226D01*
X160795256Y-114297205D01*
X160964774Y-114183937D01*
X161108937Y-114039774D01*
X161222205Y-113870256D01*
X161300226Y-113681898D01*
X161340000Y-113481939D01*
X161340000Y-113278061D01*
X161300226Y-113078102D01*
X161222205Y-112889744D01*
X161108937Y-112720226D01*
X160964774Y-112576063D01*
X160795256Y-112462795D01*
X160606898Y-112384774D01*
X160406939Y-112345000D01*
X160387500Y-112345000D01*
X160387500Y-112325561D01*
X160347726Y-112125602D01*
X160269705Y-111937244D01*
X160156437Y-111767726D01*
X160012274Y-111623563D01*
X159842756Y-111510295D01*
X159654398Y-111432274D01*
X159454439Y-111392500D01*
X159442500Y-111392500D01*
X159442500Y-111380561D01*
X159402726Y-111180602D01*
X159324705Y-110992244D01*
X159211437Y-110822726D01*
X159067274Y-110678563D01*
X158897756Y-110565295D01*
X158794440Y-110522500D01*
X158897756Y-110479705D01*
X159067274Y-110366437D01*
X159211437Y-110222274D01*
X159324705Y-110052756D01*
X159402726Y-109864398D01*
X159442500Y-109664439D01*
X159442500Y-109460561D01*
X159402726Y-109260602D01*
X159324705Y-109072244D01*
X159211437Y-108902726D01*
X159067274Y-108758563D01*
X159063812Y-108756250D01*
X159067274Y-108753937D01*
X159211437Y-108609774D01*
X159324705Y-108440256D01*
X159402726Y-108251898D01*
X159442500Y-108051939D01*
X159442500Y-107848061D01*
X159402726Y-107648102D01*
X159324705Y-107459744D01*
X159211437Y-107290226D01*
X159067274Y-107146063D01*
X158897756Y-107032795D01*
X158709398Y-106954774D01*
X158509439Y-106915000D01*
X158305561Y-106915000D01*
X158105602Y-106954774D01*
X157917244Y-107032795D01*
X157747726Y-107146063D01*
X157603563Y-107290226D01*
X157490295Y-107459744D01*
X157412274Y-107648102D01*
X157372500Y-107848061D01*
X151257000Y-107848061D01*
X151257000Y-105537000D01*
X162433000Y-105537000D01*
X162433000Y-108949651D01*
%TA.AperFunction,Conductor*%
D25*
G36*
X162433000Y-108949651D02*
G01*
X162415256Y-108937795D01*
X162226898Y-108859774D01*
X162026939Y-108820000D01*
X161823061Y-108820000D01*
X161625840Y-108859229D01*
X161572205Y-108729744D01*
X161458937Y-108560226D01*
X161314774Y-108416063D01*
X161145256Y-108302795D01*
X160956898Y-108224774D01*
X160756939Y-108185000D01*
X160553061Y-108185000D01*
X160353102Y-108224774D01*
X160164744Y-108302795D01*
X159995226Y-108416063D01*
X159851063Y-108560226D01*
X159737795Y-108729744D01*
X159659774Y-108918102D01*
X159620000Y-109118061D01*
X159620000Y-109321939D01*
X159659774Y-109521898D01*
X159737795Y-109710256D01*
X159851063Y-109879774D01*
X159995226Y-110023937D01*
X160164744Y-110137205D01*
X160353102Y-110215226D01*
X160553061Y-110255000D01*
X160756939Y-110255000D01*
X160954160Y-110215771D01*
X161007795Y-110345256D01*
X161121063Y-110514774D01*
X161265226Y-110658937D01*
X161434744Y-110772205D01*
X161623102Y-110850226D01*
X161823061Y-110890000D01*
X162026939Y-110890000D01*
X162226898Y-110850226D01*
X162415256Y-110772205D01*
X162584774Y-110658937D01*
X162626711Y-110617000D01*
X167587394Y-110617000D01*
X169936928Y-112966534D01*
X169936928Y-113150001D01*
X169953992Y-113323255D01*
X170004528Y-113489851D01*
X170053000Y-113580535D01*
X170053000Y-115019465D01*
X170004528Y-115110149D01*
X169953992Y-115276745D01*
X169936928Y-115449999D01*
X169936928Y-116250001D01*
X169953992Y-116423255D01*
X169988991Y-116538631D01*
X169846898Y-116479774D01*
X169646939Y-116440000D01*
X169443061Y-116440000D01*
X169243102Y-116479774D01*
X169054744Y-116557795D01*
X168885226Y-116671063D01*
X168741063Y-116815226D01*
X168627795Y-116984744D01*
X168549774Y-117173102D01*
X168510000Y-117373061D01*
X168510000Y-117576939D01*
X168549774Y-117776898D01*
X168627795Y-117965256D01*
X168724510Y-118110000D01*
X168627795Y-118254744D01*
X168549774Y-118443102D01*
X168510000Y-118643061D01*
X168510000Y-118846939D01*
X168549774Y-119046898D01*
X168627795Y-119235256D01*
X168724510Y-119380000D01*
X168627795Y-119524744D01*
X168574160Y-119654229D01*
X168376939Y-119615000D01*
X168173061Y-119615000D01*
X167973102Y-119654774D01*
X167784744Y-119732795D01*
X167640000Y-119829510D01*
X167495256Y-119732795D01*
X167306898Y-119654774D01*
X167106939Y-119615000D01*
X166903061Y-119615000D01*
X166703102Y-119654774D01*
X166514744Y-119732795D01*
X166345226Y-119846063D01*
X166201063Y-119990226D01*
X166087795Y-120159744D01*
X166009774Y-120348102D01*
X165970000Y-120548061D01*
X165970000Y-120751939D01*
X166009774Y-120951898D01*
X166087795Y-121140256D01*
X166099651Y-121158000D01*
X158115000Y-121158000D01*
X158090224Y-121160440D01*
X158066399Y-121167667D01*
X158044443Y-121179403D01*
X158025197Y-121195197D01*
X158009403Y-121214443D01*
X157997667Y-121236399D01*
X157990440Y-121260224D01*
X157988000Y-121285000D01*
X157988000Y-123286306D01*
X157945498Y-123365820D01*
X157909188Y-123485518D01*
X157896928Y-123610000D01*
X157896928Y-125310000D01*
X157909188Y-125434482D01*
X157945498Y-125554180D01*
X157971593Y-125603000D01*
X151257000Y-125603000D01*
X151257000Y-118432107D01*
X151453368Y-118628475D01*
X151696589Y-118790990D01*
X151966842Y-118902932D01*
X152253740Y-118960000D01*
X152546260Y-118960000D01*
X152833158Y-118902932D01*
X153103411Y-118790990D01*
X153324802Y-118643061D01*
X157715000Y-118643061D01*
X157715000Y-118846939D01*
X157754774Y-119046898D01*
X157832795Y-119235256D01*
X157946063Y-119404774D01*
X158090226Y-119548937D01*
X158259744Y-119662205D01*
X158448102Y-119740226D01*
X158648061Y-119780000D01*
X158851939Y-119780000D01*
X159051898Y-119740226D01*
X159240256Y-119662205D01*
X159409774Y-119548937D01*
X159553937Y-119404774D01*
X159667205Y-119235256D01*
X159745226Y-119046898D01*
X159785000Y-118846939D01*
X159785000Y-118643061D01*
X159745226Y-118443102D01*
X159667205Y-118254744D01*
X159553937Y-118085226D01*
X159409774Y-117941063D01*
X159240256Y-117827795D01*
X159051898Y-117749774D01*
X158851939Y-117710000D01*
X158648061Y-117710000D01*
X158448102Y-117749774D01*
X158259744Y-117827795D01*
X158090226Y-117941063D01*
X157946063Y-118085226D01*
X157832795Y-118254744D01*
X157754774Y-118443102D01*
X157715000Y-118643061D01*
X153324802Y-118643061D01*
X153346632Y-118628475D01*
X153553475Y-118421632D01*
X153715990Y-118178411D01*
X153827932Y-117908158D01*
X153885000Y-117621260D01*
X153885000Y-117328740D01*
X153855911Y-117182500D01*
X163324509Y-117182500D01*
X163346423Y-117404998D01*
X163411324Y-117618946D01*
X163516717Y-117816122D01*
X163658552Y-117988948D01*
X163831378Y-118130783D01*
X164028554Y-118236176D01*
X164242502Y-118301077D01*
X164465000Y-118322991D01*
X164687498Y-118301077D01*
X164901446Y-118236176D01*
X165098622Y-118130783D01*
X165228143Y-118024488D01*
X165277631Y-117975000D01*
X167060752Y-117975000D01*
X167227499Y-117958577D01*
X167441447Y-117893676D01*
X167638623Y-117788284D01*
X167811449Y-117646449D01*
X167953284Y-117473623D01*
X168058676Y-117276447D01*
X168123577Y-117062499D01*
X168145491Y-116840000D01*
X168123577Y-116617501D01*
X168058676Y-116403553D01*
X167953284Y-116206377D01*
X167811449Y-116033551D01*
X167638623Y-115891716D01*
X167441447Y-115786324D01*
X167227499Y-115721423D01*
X167060752Y-115705000D01*
X164863251Y-115705000D01*
X164807499Y-115699509D01*
X164585000Y-115721423D01*
X164544606Y-115733677D01*
X164371053Y-115786324D01*
X164173877Y-115891716D01*
X164001051Y-116033551D01*
X163965504Y-116076865D01*
X163623012Y-116419357D01*
X163516717Y-116548878D01*
X163411324Y-116746054D01*
X163346423Y-116960002D01*
X163324509Y-117182500D01*
X153855911Y-117182500D01*
X153827932Y-117041842D01*
X153715990Y-116771589D01*
X153553475Y-116528368D01*
X153346632Y-116321525D01*
X153172240Y-116205000D01*
X153346632Y-116088475D01*
X153553475Y-115881632D01*
X153715990Y-115638411D01*
X153827932Y-115368158D01*
X153885000Y-115081260D01*
X153885000Y-114788740D01*
X153827932Y-114501842D01*
X153715990Y-114231589D01*
X153553475Y-113988368D01*
X153421620Y-113856513D01*
X153494180Y-113834502D01*
X153604494Y-113775537D01*
X153701185Y-113696185D01*
X153780537Y-113599494D01*
X153800011Y-113563061D01*
X156445000Y-113563061D01*
X156445000Y-113766939D01*
X156484774Y-113966898D01*
X156562795Y-114155256D01*
X156676063Y-114324774D01*
X156820226Y-114468937D01*
X156989744Y-114582205D01*
X157178102Y-114660226D01*
X157378061Y-114700000D01*
X157581939Y-114700000D01*
X157781898Y-114660226D01*
X157970256Y-114582205D01*
X158139774Y-114468937D01*
X158283937Y-114324774D01*
X158397205Y-114155256D01*
X158475226Y-113966898D01*
X158515000Y-113766939D01*
X158515000Y-113563061D01*
X158475226Y-113363102D01*
X158397205Y-113174744D01*
X158283937Y-113005226D01*
X158139774Y-112861063D01*
X157970256Y-112747795D01*
X157781898Y-112669774D01*
X157581939Y-112630000D01*
X157378061Y-112630000D01*
X157178102Y-112669774D01*
X156989744Y-112747795D01*
X156820226Y-112861063D01*
X156676063Y-113005226D01*
X156562795Y-113174744D01*
X156484774Y-113363102D01*
X156445000Y-113563061D01*
X153800011Y-113563061D01*
X153839502Y-113489180D01*
X153875812Y-113369482D01*
X153888072Y-113245000D01*
X153888072Y-111545000D01*
X153875812Y-111420518D01*
X153839502Y-111300820D01*
X153780537Y-111190506D01*
X153701185Y-111093815D01*
X153604494Y-111014463D01*
X153494180Y-110955498D01*
X153374482Y-110919188D01*
X153250000Y-110906928D01*
X151550000Y-110906928D01*
X151425518Y-110919188D01*
X151305820Y-110955498D01*
X151257000Y-110981593D01*
X151257000Y-107848061D01*
X157372500Y-107848061D01*
X157372500Y-108051939D01*
X157412274Y-108251898D01*
X157490295Y-108440256D01*
X157603563Y-108609774D01*
X157747726Y-108753937D01*
X157751188Y-108756250D01*
X157747726Y-108758563D01*
X157603563Y-108902726D01*
X157490295Y-109072244D01*
X157412274Y-109260602D01*
X157372500Y-109460561D01*
X157372500Y-109664439D01*
X157412274Y-109864398D01*
X157490295Y-110052756D01*
X157603563Y-110222274D01*
X157747726Y-110366437D01*
X157917244Y-110479705D01*
X158020560Y-110522500D01*
X157917244Y-110565295D01*
X157747726Y-110678563D01*
X157603563Y-110822726D01*
X157490295Y-110992244D01*
X157412274Y-111180602D01*
X157372500Y-111380561D01*
X157372500Y-111584439D01*
X157412274Y-111784398D01*
X157490295Y-111972756D01*
X157603563Y-112142274D01*
X157747726Y-112286437D01*
X157917244Y-112399705D01*
X158105602Y-112477726D01*
X158305561Y-112517500D01*
X158317500Y-112517500D01*
X158317500Y-112529439D01*
X158357274Y-112729398D01*
X158435295Y-112917756D01*
X158548563Y-113087274D01*
X158692726Y-113231437D01*
X158862244Y-113344705D01*
X159050602Y-113422726D01*
X159250561Y-113462500D01*
X159270000Y-113462500D01*
X159270000Y-113481939D01*
X159309774Y-113681898D01*
X159387795Y-113870256D01*
X159501063Y-114039774D01*
X159645226Y-114183937D01*
X159814744Y-114297205D01*
X160003102Y-114375226D01*
X160203061Y-114415000D01*
X160406939Y-114415000D01*
X160606898Y-114375226D01*
X160795256Y-114297205D01*
X160964774Y-114183937D01*
X161108937Y-114039774D01*
X161222205Y-113870256D01*
X161300226Y-113681898D01*
X161340000Y-113481939D01*
X161340000Y-113278061D01*
X161300226Y-113078102D01*
X161222205Y-112889744D01*
X161108937Y-112720226D01*
X160964774Y-112576063D01*
X160795256Y-112462795D01*
X160606898Y-112384774D01*
X160406939Y-112345000D01*
X160387500Y-112345000D01*
X160387500Y-112325561D01*
X160347726Y-112125602D01*
X160269705Y-111937244D01*
X160156437Y-111767726D01*
X160012274Y-111623563D01*
X159842756Y-111510295D01*
X159654398Y-111432274D01*
X159454439Y-111392500D01*
X159442500Y-111392500D01*
X159442500Y-111380561D01*
X159402726Y-111180602D01*
X159324705Y-110992244D01*
X159211437Y-110822726D01*
X159067274Y-110678563D01*
X158897756Y-110565295D01*
X158794440Y-110522500D01*
X158897756Y-110479705D01*
X159067274Y-110366437D01*
X159211437Y-110222274D01*
X159324705Y-110052756D01*
X159402726Y-109864398D01*
X159442500Y-109664439D01*
X159442500Y-109460561D01*
X159402726Y-109260602D01*
X159324705Y-109072244D01*
X159211437Y-108902726D01*
X159067274Y-108758563D01*
X159063812Y-108756250D01*
X159067274Y-108753937D01*
X159211437Y-108609774D01*
X159324705Y-108440256D01*
X159402726Y-108251898D01*
X159442500Y-108051939D01*
X159442500Y-107848061D01*
X159402726Y-107648102D01*
X159324705Y-107459744D01*
X159211437Y-107290226D01*
X159067274Y-107146063D01*
X158897756Y-107032795D01*
X158709398Y-106954774D01*
X158509439Y-106915000D01*
X158305561Y-106915000D01*
X158105602Y-106954774D01*
X157917244Y-107032795D01*
X157747726Y-107146063D01*
X157603563Y-107290226D01*
X157490295Y-107459744D01*
X157412274Y-107648102D01*
X157372500Y-107848061D01*
X151257000Y-107848061D01*
X151257000Y-105537000D01*
X162433000Y-105537000D01*
X162433000Y-108949651D01*
G37*
%TD.AperFunction*%
%TD*%
D24*
%TO.N,GNDPWR*%
X189738000Y-125603000D02*
X160798407Y-125603000D01*
X160824502Y-125554180D01*
X160860812Y-125434482D01*
X160873072Y-125310000D01*
X160873072Y-123610000D01*
X160860812Y-123485518D01*
X160824502Y-123365820D01*
X160765537Y-123255506D01*
X160686185Y-123158815D01*
X160589494Y-123079463D01*
X160479180Y-123020498D01*
X160359482Y-122984188D01*
X160235000Y-122971928D01*
X158877000Y-122971928D01*
X158877000Y-122047000D01*
X168843289Y-122047000D01*
X168885226Y-122088937D01*
X169054744Y-122202205D01*
X169243102Y-122280226D01*
X169443061Y-122320000D01*
X169646939Y-122320000D01*
X169846898Y-122280226D01*
X169962970Y-122232147D01*
X169953992Y-122261745D01*
X169936928Y-122434999D01*
X169936928Y-123235001D01*
X169953992Y-123408255D01*
X170004528Y-123574851D01*
X170086595Y-123728387D01*
X170197038Y-123862962D01*
X170331613Y-123973405D01*
X170485149Y-124055472D01*
X170651745Y-124106008D01*
X170824999Y-124123072D01*
X172075001Y-124123072D01*
X172248255Y-124106008D01*
X172414851Y-124055472D01*
X172568387Y-123973405D01*
X172702962Y-123862962D01*
X172766944Y-123785000D01*
X173335627Y-123785000D01*
X173390820Y-123814502D01*
X173510518Y-123850812D01*
X173635000Y-123863072D01*
X174335000Y-123863072D01*
X174459482Y-123850812D01*
X174579180Y-123814502D01*
X174689494Y-123755537D01*
X174786185Y-123676185D01*
X174865537Y-123579494D01*
X174924502Y-123469180D01*
X174960812Y-123349482D01*
X174973072Y-123225000D01*
X174973072Y-123209184D01*
X175038676Y-123086447D01*
X175103577Y-122872499D01*
X175125491Y-122650000D01*
X175103577Y-122427501D01*
X175038676Y-122213553D01*
X174973072Y-122090816D01*
X174973072Y-122075000D01*
X174970314Y-122047000D01*
X185420000Y-122047000D01*
X185444776Y-122044560D01*
X185468601Y-122037333D01*
X185490557Y-122025597D01*
X185509803Y-122009803D01*
X185525597Y-121990557D01*
X185537333Y-121968601D01*
X185544560Y-121944776D01*
X185547000Y-121920000D01*
X185547000Y-118237000D01*
X189738000Y-118237000D01*
X189738000Y-125603000D01*
%TA.AperFunction,Conductor*%
D25*
G36*
X189738000Y-125603000D02*
G01*
X160798407Y-125603000D01*
X160824502Y-125554180D01*
X160860812Y-125434482D01*
X160873072Y-125310000D01*
X160873072Y-123610000D01*
X160860812Y-123485518D01*
X160824502Y-123365820D01*
X160765537Y-123255506D01*
X160686185Y-123158815D01*
X160589494Y-123079463D01*
X160479180Y-123020498D01*
X160359482Y-122984188D01*
X160235000Y-122971928D01*
X158877000Y-122971928D01*
X158877000Y-122047000D01*
X168843289Y-122047000D01*
X168885226Y-122088937D01*
X169054744Y-122202205D01*
X169243102Y-122280226D01*
X169443061Y-122320000D01*
X169646939Y-122320000D01*
X169846898Y-122280226D01*
X169962970Y-122232147D01*
X169953992Y-122261745D01*
X169936928Y-122434999D01*
X169936928Y-123235001D01*
X169953992Y-123408255D01*
X170004528Y-123574851D01*
X170086595Y-123728387D01*
X170197038Y-123862962D01*
X170331613Y-123973405D01*
X170485149Y-124055472D01*
X170651745Y-124106008D01*
X170824999Y-124123072D01*
X172075001Y-124123072D01*
X172248255Y-124106008D01*
X172414851Y-124055472D01*
X172568387Y-123973405D01*
X172702962Y-123862962D01*
X172766944Y-123785000D01*
X173335627Y-123785000D01*
X173390820Y-123814502D01*
X173510518Y-123850812D01*
X173635000Y-123863072D01*
X174335000Y-123863072D01*
X174459482Y-123850812D01*
X174579180Y-123814502D01*
X174689494Y-123755537D01*
X174786185Y-123676185D01*
X174865537Y-123579494D01*
X174924502Y-123469180D01*
X174960812Y-123349482D01*
X174973072Y-123225000D01*
X174973072Y-123209184D01*
X175038676Y-123086447D01*
X175103577Y-122872499D01*
X175125491Y-122650000D01*
X175103577Y-122427501D01*
X175038676Y-122213553D01*
X174973072Y-122090816D01*
X174973072Y-122075000D01*
X174970314Y-122047000D01*
X185420000Y-122047000D01*
X185444776Y-122044560D01*
X185468601Y-122037333D01*
X185490557Y-122025597D01*
X185509803Y-122009803D01*
X185525597Y-121990557D01*
X185537333Y-121968601D01*
X185544560Y-121944776D01*
X185547000Y-121920000D01*
X185547000Y-118237000D01*
X189738000Y-118237000D01*
X189738000Y-125603000D01*
G37*
%TD.AperFunction*%
%TD*%
D24*
%TO.N,/PHASE*%
X189738000Y-117348000D02*
X184785000Y-117348000D01*
X184760224Y-117350440D01*
X184736399Y-117357667D01*
X184714443Y-117369403D01*
X184695197Y-117385197D01*
X184679403Y-117404443D01*
X184667667Y-117426399D01*
X184660440Y-117450224D01*
X184658000Y-117475000D01*
X184658000Y-121158000D01*
X173735430Y-121158000D01*
X173773676Y-121086447D01*
X173838577Y-120872499D01*
X173860491Y-120650000D01*
X173838577Y-120427501D01*
X173773676Y-120213553D01*
X173668284Y-120016377D01*
X173526449Y-119843551D01*
X173482000Y-119807073D01*
X173482000Y-116839990D01*
X174434259Y-116839990D01*
X174490010Y-116845481D01*
X174545761Y-116839990D01*
X174545762Y-116839990D01*
X174712509Y-116823567D01*
X174926457Y-116758666D01*
X175123633Y-116653274D01*
X175296459Y-116511439D01*
X175332005Y-116468126D01*
X175468131Y-116332000D01*
X175895000Y-116332000D01*
X175919776Y-116329560D01*
X175943601Y-116322333D01*
X175965557Y-116310597D01*
X175984803Y-116294803D01*
X176000597Y-116275557D01*
X176012333Y-116253601D01*
X176019560Y-116229776D01*
X176022000Y-116205000D01*
X176022000Y-115778824D01*
X176061449Y-115746449D01*
X176203284Y-115573623D01*
X176308676Y-115376447D01*
X176373577Y-115162499D01*
X176390000Y-114995752D01*
X176390000Y-114995745D01*
X176395490Y-114940001D01*
X176390000Y-114884257D01*
X176390000Y-114339249D01*
X176373577Y-114172502D01*
X176308676Y-113958554D01*
X176243072Y-113835816D01*
X176243072Y-113820000D01*
X176240314Y-113792000D01*
X189738000Y-113792000D01*
X189738000Y-117348000D01*
%TA.AperFunction,Conductor*%
D25*
G36*
X189738000Y-117348000D02*
G01*
X184785000Y-117348000D01*
X184760224Y-117350440D01*
X184736399Y-117357667D01*
X184714443Y-117369403D01*
X184695197Y-117385197D01*
X184679403Y-117404443D01*
X184667667Y-117426399D01*
X184660440Y-117450224D01*
X184658000Y-117475000D01*
X184658000Y-121158000D01*
X173735430Y-121158000D01*
X173773676Y-121086447D01*
X173838577Y-120872499D01*
X173860491Y-120650000D01*
X173838577Y-120427501D01*
X173773676Y-120213553D01*
X173668284Y-120016377D01*
X173526449Y-119843551D01*
X173482000Y-119807073D01*
X173482000Y-116839990D01*
X174434259Y-116839990D01*
X174490010Y-116845481D01*
X174545761Y-116839990D01*
X174545762Y-116839990D01*
X174712509Y-116823567D01*
X174926457Y-116758666D01*
X175123633Y-116653274D01*
X175296459Y-116511439D01*
X175332005Y-116468126D01*
X175468131Y-116332000D01*
X175895000Y-116332000D01*
X175919776Y-116329560D01*
X175943601Y-116322333D01*
X175965557Y-116310597D01*
X175984803Y-116294803D01*
X176000597Y-116275557D01*
X176012333Y-116253601D01*
X176019560Y-116229776D01*
X176022000Y-116205000D01*
X176022000Y-115778824D01*
X176061449Y-115746449D01*
X176203284Y-115573623D01*
X176308676Y-115376447D01*
X176373577Y-115162499D01*
X176390000Y-114995752D01*
X176390000Y-114995745D01*
X176395490Y-114940001D01*
X176390000Y-114884257D01*
X176390000Y-114339249D01*
X176373577Y-114172502D01*
X176308676Y-113958554D01*
X176243072Y-113835816D01*
X176243072Y-113820000D01*
X176240314Y-113792000D01*
X189738000Y-113792000D01*
X189738000Y-117348000D01*
G37*
%TD.AperFunction*%
%TD*%
M02*
